M48
;FILE_FORMAT=2:4
INCH,LZ
FMAT,2
ICI,OFF
;TYPE=PLATED
T1C.01181
T2C.02559
T3C.03543
T4C.03937
T5C.044
;TYPE=NON_PLATED
T6C.12598
%
M72
G90
G93X0Y0
T1C.01181F095S3
X056004Y040472
X056004Y043465
X05498Y044783
X054823Y051358
X055551Y052461
X054803Y053602
X05748Y058661
X057598Y054547
X05748Y053937
X058346Y053878
X057972Y050984
X056299Y049508
X056398Y047146
X05748Y045965
X058465Y045472
X058465Y044882
X057677Y044094
X056496Y043465
X058465Y043406
X056949Y043366
X057677Y042618
X056496Y040472
X057303Y039937
X056299Y039764
X061024Y039764
X059449Y039783
X05935Y042224
X059055Y044882
X05876Y045177
X059055Y045472
X060138Y04813
X06063Y048622
X06065Y049213
X061024Y050984
X059547Y050984
X059449Y058661
X063386Y058661
X061417Y058661
X0625Y058307
X062894Y058307
X062795Y057343
X062795Y054941
X062106Y047835
X062303Y044193
X061319Y044193
X062992Y041417
X062972Y039764
X065925Y040276
X065748Y040748
X065748Y042323
X064961Y042323
X064961Y045866
X065748Y045866
X064075Y045866
X064783Y046634
X064173Y047244
X065925Y047815
X06437Y048819
X063976Y049902
X064567Y049902
X063976Y050295
X064567Y050295
X063976Y050689
X064508Y053583
X065886Y053996
X06378Y054272
X063839Y054626
X06502Y055039
X064016Y055039
X06565Y056024
X064528Y057146
X06502Y057146
X065354Y058661
X067323Y058661
X067283Y058307
X066417Y055748
X067205Y055728
X067992Y055709
X067559Y053484
X068012Y049311
X066535Y047815
X066535Y047343
X068504Y04689
X066535Y046811
X067579Y046122
X066929Y045866
X068504Y045748
X066929Y042323
X068524Y042185
X067677Y041811
X066535Y04122
X068524Y041004
X066535Y040748
X066535Y040276
X068307Y039764
X066142Y039744
X069882Y040295
X070748Y041909
X070276Y041929
X069685Y041929
X070866Y04252
X070276Y04252
X069685Y043012
X070276Y04311
X070866Y04311
X070669Y044882
X070079Y044882
X069665Y044921
X070079Y045472
X070669Y045472
X070079Y046063
X070669Y046063
X068898Y048031
X070079Y048031
X068898Y049213
X070079Y049213
X069291Y053543
X069016Y053937
X06878Y055728
X070354Y055728
X070866Y055866
X069252Y055906
X070866Y057638
X068819Y058307
X070433Y058307
X069291Y058661
X07185Y058661
X071969Y058307
X073504Y058307
X072441Y055709
X071929Y055709
X073524Y055709
X072343Y053996
X071063Y049213
X072933Y049213
X072441Y048031
X07126Y048031
X072126Y046535
X073024Y046406
X072618Y046366
X073051Y046043
X072126Y045591
X073043Y045531
X071181Y045197
X073051Y045177
X071161Y044701
X071575Y044606
X072343Y04439
X072736Y04439
X07313Y04439
X072343Y043996
X07313Y043996
X072736Y043996
X072343Y043602
X072736Y043602
X07313Y043602
X071594Y043346
X071213Y043331
X072559Y042835
X071201Y042795
X073425Y042717
X072146Y042421
X072146Y041417
X072441Y039764
X074803Y039764
X075787Y041929
X075295Y041929
X074606Y041929
X075787Y042323
X075295Y042323
X074606Y04252
X073819Y042913
X074213Y042913
X074567Y043228
X074618Y043858
X074992Y043882
X075327Y044067
X074543Y044583
X074409Y045079
X073819Y045079
X075591Y045276
X073819Y045472
X075Y045472
X074409Y045472
X075Y045866
X074409Y045866
X074606Y04626
X073622Y046378
X074016Y047146
X07498Y04761
X074685Y048091
X075374Y048819
X075295Y049291
X075315Y049803
X075315Y050295
X074626Y051358
X07498Y051358
X075335Y051457
X07435Y051772
X075433Y051969
X075965Y052382
X073937Y05252
X073622Y053445
X075256Y053996
X073701Y053996
X075886Y054193
X074016Y058661
X077756Y055846
X076969Y05439
X077972Y05439
X077461Y05439
X076476Y05437
X078386Y054291
X078346Y053878
X078189Y053346
X076969Y053287
X077598Y053287
X077913Y05311
X077283Y053031
X07815Y05187
X076437Y051535
X07815Y051181
X07815Y050492
X076457Y050276
X076969Y049646
X076437Y048583
X077047Y047795
X07815Y045374
X077756Y044882
X077343Y044882
X077756Y042913
X077756Y041535
X077756Y039744
X080138Y039764
X080118Y041535
X080118Y042913
X080118Y044488
X078858Y044803
X080118Y045374
X079134Y045571
X079134Y046161
X079232Y047677
X080217Y047677
X079724Y047677
X078543Y048248
X078878Y048681
X080118Y04878
X081004Y048996
X07939Y049055
X080039Y049409
X079528Y050492
X078839Y050492
X079528Y051181
X078839Y051181
X080945Y051575
X079528Y05187
X078839Y05187
X080217Y052894
X080531Y053209
X079055Y053524
X080827Y053661
X080098Y053858
X079055Y053898
X079724Y054488
X078701Y05502
X080925Y056063
X079921Y058071
X083386Y057677
X081791Y055709
X081299Y055472
X083366Y055413
X08128Y054232
X081791Y051988
X083091Y051535
X083465Y051535
X082343Y051535
X082717Y051535
X083346Y050472
X082047Y050039
X082047Y049665
X081496Y048996
X081752Y048642
X081752Y04813
X083228Y047618
X081457Y046339
X083071Y044488
X081496Y044488
X083071Y042913
X081496Y042913
X083071Y041339
X081496Y041339
X081634Y040177
X081496Y039764
X083071Y039764
X084646Y039764
X08622Y039764
X084646Y041339
X08622Y041339
X084173Y054232
X085787Y056693
X083858Y056693
X08622Y057087
X085748Y057283
X085728Y058484
X08622Y058661
T2C.02559F197S55
X078429Y057033
X078429Y057533
X078929Y057533
X079429Y057533
X079929Y057533
X080429Y057533
X079929Y057033
X079429Y057033
X080429Y057033
X078929Y057033
T3C.03543F197S55
X045276Y045472
X045276Y054331
X05224Y042724
X05524Y042724
X05524Y041724
X05224Y041724
T4C.03937F197S55
X042035Y047713
X041035Y047713
X041035Y048713
X042035Y048713
X041035Y049713
X042035Y049713
X042035Y050713
X041035Y050713
X067067Y044646
X068067Y044646
X067067Y043366
X068067Y043366
X077362Y046949
X078362Y046949
X085736Y055713
X084736Y055713
X085736Y054713
X084736Y054713
X085736Y053713
X084736Y053713
X085736Y052713
X084736Y052713
X085736Y051713
X084736Y051713
X085736Y050713
X084736Y050713
X085736Y049713
X084736Y049713
X085736Y048713
X084736Y048713
X085736Y047713
X084736Y047713
X08061Y046949
X07961Y046949
X085736Y046713
X084736Y046713
X085736Y045713
X084736Y045713
X085736Y044713
X084736Y044713
X085736Y043713
X084736Y043713
X085736Y042713
X084736Y042713
T5C.044F139S55
X050689Y04685
X050689Y049803
X054626Y049803
X054626Y04685
X058378Y041244
X068996Y040256
X060827Y056398
X074409Y057283
X073031Y05374
X071457Y05374
X072441Y051969
X072441Y050787
X073228Y049803
X074409Y049803
X073228Y048622
X074409Y048622
X071378Y040256
X083858Y040512
T6C.12598F035S794
X041339Y041339
X041339Y057087
M30
