*
*
G04 PADS VX.2.1 Build Number: 5759717 generated Gerber (RS-274-X) file*
G04 PC Version=2.1*
*
%IN "STARCOM-1-DEVMODULE_Rev"*%
*
%MOIN*%
*
%FSLAX35Y35*%
*
*
*
*
G04 PC Standard Apertures*
*
*
G04 Thermal Relief Aperture macro.*
%AMTER*
1,1,$1,0,0*
1,0,$1-$2,0,0*
21,0,$3,$4,0,0,45*
21,0,$3,$4,0,0,135*
%
*
*
G04 Annular Aperture macro.*
%AMANN*
1,1,$1,0,0*
1,0,$2,0,0*
%
*
*
G04 Odd Aperture macro.*
%AMODD*
1,1,$1,0,0*
1,0,$1-0.005,0,0*
%
*
*
G04 PC Custom Aperture Macros*
*
*
*
*
*
*
G04 PC Aperture Table*
*
%ADD056C,0.08*%
%ADD082C,0.01*%
%ADD088C,0.001*%
%ADD131C,0.01181*%
%ADD144R,0.04331X0.04331*%
%ADD146C,0.00394*%
%ADD148C,0.00787*%
%ADD151C,0.02756*%
%ADD153C,0.00984*%
%ADD155C,0.04331*%
%ADD227C,0.05906*%
%ADD235R,0.06299X0.06299*%
%ADD238C,0.06299*%
%ADD278C,0.07*%
%ADD308C,0.004*%
*
*
*
*
G04 PC Circuitry*
G04 Layer Name STARCOM-1-DEVMODULE_Rev - circuitry*
%LPD*%
*
*
G04 PC Custom Flashes*
G04 Layer Name STARCOM-1-DEVMODULE_Rev - flashes*
%LPD*%
*
*
G04 PC Circuitry*
G04 Layer Name STARCOM-1-DEVMODULE_Rev - circuitry*
%LPD*%
*
G54D56*
G01X506890Y498031D03*
Y468504D03*
X546260D03*
Y498031D03*
G54D82*
X988189Y511515D02*
Y504952D01*
X990916*
X994780Y511515D02*
X992962Y504952D01*
X994780Y511515D02*
X996598Y504952D01*
X993644Y507140D02*
X995916D01*
X998644Y511515D02*
X1000462Y508390D01*
Y504952*
X1002280Y511515D02*
X1000462Y508390D01*
X1004325Y511515D02*
Y504952D01*
Y511515D02*
X1007280D01*
X1004325Y508390D02*
X1006144D01*
X1004325Y504952D02*
X1007280D01*
X1009325Y511515D02*
Y504952D01*
Y511515D02*
X1011371D01*
X1012053Y511202*
X1012280Y510890*
X1012507Y510265*
Y509640*
X1012280Y509015*
X1012053Y508702*
X1011371Y508390*
X1009325*
X1010916D02*
X1012507Y504952D01*
X1020007Y509952D02*
Y510265D01*
X1020234Y510890*
X1020462Y511202*
X1020916Y511515*
X1021825*
X1022280Y511202*
X1022507Y510890*
X1022734Y510265*
Y509640*
X1022507Y509015*
X1022053Y508077*
X1019780Y504952*
X1022962*
X354642Y629921D02*
G75*
G03X354642I-500J0D01*
G01X355142D02*
G03X355142I-1000J0D01*
G01X339142D02*
X369142D01*
X369142*
X366142D02*
G03X366142I-12000J0D01*
G01X905823D02*
G03X905823I-500J0D01*
G01X906323D02*
G03X906323I-1000J0D01*
G01X890323D02*
X920323D01*
X920323*
X917323D02*
G03X917323I-12000J0D01*
G01X354642Y354331D02*
G03X354642I-500J0D01*
G01X355142D02*
G03X355142I-1000J0D01*
G01X339142D02*
X369142D01*
X369142*
X366142D02*
G03X366142I-12000J0D01*
G54D88*
G54D131*
G01X693131Y405730D02*
X692436Y405034D01*
X686790Y405730D02*
X687486Y405034D01*
X686790Y399388D02*
X687486Y400084D01*
X693131Y399388D02*
X692436Y400084D01*
X797064Y577562D02*
X797760Y576866D01*
X801518Y577562D02*
X800822Y576866D01*
X797064Y573108D02*
X797760Y573804D01*
X801518Y573108D02*
X800822Y573804D01*
X854439Y554203D02*
X855135Y554899D01*
X854439Y560049D02*
X855135Y559353D01*
X860285Y560049D02*
X859589Y559353D01*
X860285Y554203D02*
X859589Y554899D01*
X841754Y408289D02*
X841058Y407593D01*
X835412Y408289D02*
X836108Y407593D01*
X835412Y401947D02*
X836108Y402643D01*
X841754Y401947D02*
X841058Y402643D01*
X747265Y576005D02*
X746569Y575310D01*
X740924Y576005D02*
X741620Y575310D01*
X740924Y569664D02*
X741620Y570360D01*
X747265Y569664D02*
X746569Y570360D01*
X861496Y427126D02*
X860512D01*
X857362Y422992D02*
Y423976D01*
X853228Y427126D02*
X854213D01*
X857362Y431260D02*
Y430276D01*
X854439Y434203D02*
X855135Y434899D01*
X854439Y440049D02*
X855135Y439353D01*
X860285Y440049D02*
X859589Y439353D01*
X860285Y434203D02*
X859589Y434899D01*
X611439Y567147D02*
X610743Y566451D01*
X605097Y567147D02*
X605793Y566451D01*
X605097Y560806D02*
X605793Y561502D01*
X611439Y560806D02*
X610743Y561502D01*
G54D144*
X784291Y570335D03*
G54D146*
X861496Y437126D02*
G03X861496I-4134J0D01*
G01Y447126D02*
G03X861496I-4134J0D01*
G01Y457126D02*
G03X861496I-4134J0D01*
G01Y467126D02*
G03X861496I-4134J0D01*
G01Y477126D02*
G03X861496I-4134J0D01*
G01Y487126D02*
G03X861496I-4134J0D01*
G01X851496Y427126D02*
G03X851496I-4134J0D01*
G01Y437126D02*
G03X851496I-4134J0D01*
G01Y447126D02*
G03X851496I-4134J0D01*
G01Y457126D02*
G03X851496I-4134J0D01*
G01Y467126D02*
G03X851496I-4134J0D01*
G01Y477126D02*
G03X851496I-4134J0D01*
G01X861496Y507126D02*
G03X861496I-4134J0D01*
G01Y517126D02*
G03X861496I-4134J0D01*
G01Y527126D02*
G03X861496I-4134J0D01*
G01Y537126D02*
G03X861496I-4134J0D01*
G01X843067Y405118D02*
G03X843067I-4484J0D01*
G01X834646Y476181D02*
G03X834646I-2363J0D01*
G01X790945Y448031D02*
G03X790945I-2362J0D01*
G01X793701Y455709D02*
G03X793701I-2362J0D01*
G01X800039Y469488D02*
G03X800039I-3937J0D01*
G01X748032Y432283D02*
G03X748032I-2363J0D01*
G01X787559Y469488D02*
G03X787559I-3937J0D01*
G01X802756Y494094D02*
G03X802756I-2362J0D01*
G01X851496Y517126D02*
G03X851496I-4134J0D01*
G01Y527126D02*
G03X851496I-4134J0D01*
G01X861496Y557126D02*
G03X861496I-4134J0D01*
G01X851496D02*
G03X851496I-4134J0D01*
G01X772835Y477953D02*
G03X772835I-2363J0D01*
G01X772047Y496457D02*
G03X772047I-2362J0D01*
G01X766929Y502756D02*
G03X766929I-2362J0D01*
G01X766732Y515354D02*
G03X766732I-2362J0D01*
G01X762008Y523819D02*
G03X762008I-2362J0D01*
G01X761220Y541929D02*
G03X761220I-2362J0D01*
G01X747795Y445827D02*
G03X747795I-2362J0D01*
G01X755512Y502953D02*
G03X755512I-2362J0D01*
G01X748579Y498031D02*
G03X748579I-4485J0D01*
G01X736768D02*
G03X736768I-4485J0D01*
G01X723819Y414173D02*
G03X723819I-2362J0D01*
G01Y424213D02*
G03X723819I-2362J0D01*
G01X723622Y455906D02*
G03X723622I-2362J0D01*
G01Y465354D02*
G03X723622I-2362J0D01*
G01X728894Y507874D02*
G03X728894I-4485J0D01*
G01Y519685D02*
G03X728894I-4485J0D01*
G01X734799Y537402D02*
G03X734799I-4484J0D01*
G01X719051D02*
G03X719051I-4484J0D01*
G01X699213Y430118D02*
G03X699213I-2363J0D01*
G01X694445Y402559D02*
G03X694445I-4484J0D01*
G01X699016Y449213D02*
G03X699016I-2362J0D01*
G01X692520Y539370D02*
G03X692520I-2363J0D01*
G01X687598Y410039D02*
G03X687598I-2362J0D01*
G01Y421850D02*
G03X687598I-2362J0D01*
G01X684606Y433661D02*
G03X684606I-3937J0D01*
G01Y446457D02*
G03X684606I-3937J0D01*
G01X687402Y457480D02*
G03X687402I-2363J0D01*
G01Y468898D02*
G03X687402I-2363J0D01*
G01X677953Y534843D02*
G03X677953I-2362J0D01*
G01X667717Y468110D02*
G03X667717I-2363J0D01*
G01X661614Y478150D02*
G03X661614I-2362J0D01*
G01X661220Y539961D02*
G03X661220I-2362J0D01*
G01X748579Y572835D02*
G03X748579I-4485J0D01*
G01X737402Y583071D02*
G03X737402I-2363J0D01*
G01X722047D02*
G03X722047I-2362J0D01*
G01X711024Y576378D02*
G03X711024I-2363J0D01*
G01X706693Y583071D02*
G03X706693I-2362J0D01*
G01X690551D02*
G03X690551I-2362J0D01*
G01X675197D02*
G03X675197I-2362J0D01*
G01X630315Y549409D02*
G03X630315I-2362J0D01*
G01Y573425D02*
G03X630315I-2362J0D01*
G01X631299Y583071D02*
G03X631299I-2362J0D01*
G01X623425Y478346D02*
G03X623425I-2362J0D01*
G01X608858Y492126D02*
G03X608858I-2362J0D01*
G01X612752Y563976D02*
G03X612752I-4484J0D01*
G01X588264Y412441D02*
G03X588264I-4484J0D01*
G01X567323Y434646D02*
G03X567323I-2362J0D01*
G01X811811Y515748D02*
G03X811811I-2362J0D01*
G01X863976Y588189D02*
G03X863780Y588386I-196J-0D01*
G01X545669*
G03X545472Y588189I0J-197*
G01Y503178*
G03X545692Y502983I197J0*
G01Y493079D02*
G03Y502983I568J4952D01*
G01Y493079D02*
G03X545472Y492884I-23J-195D01*
G01Y473651*
G03X545692Y473456I197J0*
G01Y463552D02*
G03Y473456I568J4952D01*
G01Y463552D02*
G03X545472Y463357I-23J-195D01*
G01Y441339*
G03X545669Y441142I197J-0*
G01X557087*
X557283Y440945D02*
G03X557087Y441142I-196J-0D01*
G01X557283Y440945D02*
Y396063D01*
G03X557480Y395866I197J0*
G01X863780*
G03X863976Y396063I-0J197*
G01Y588189*
X782369Y540988D02*
G03X782302Y541136I-197J0D01*
G01X781496Y542913D02*
G03X782302Y541136I2362J0D01*
G01X781514Y543202D02*
G03X781496Y542913I2344J-289D01*
G01X781514Y543202D02*
G03X781459Y543364I-196J24D01*
G01X781077Y544157D02*
G03X781459Y543364I1367J170D01*
G01X781077Y544157D02*
G03X781021Y544271I-195J-25D01*
G01X776925Y548368*
G03X776786Y548425I-139J-140*
G01X776122*
G03X775983Y548089I-0J-197*
G01X778140Y545932*
X778543Y544958D02*
G03X778140Y545932I-1378J-0D01*
G01X778543Y544958D02*
Y543490D01*
G03X778601Y543351I197J-0*
G01X781509Y540443*
G03X781788I139J139*
G01X782272Y540818D02*
G03X781788Y540443I1193J-2038D01*
G01X782272Y540818D02*
G03X782369Y540988I-100J170D01*
G01X796938Y573241D02*
G03X797198Y572982I2353J2094D01*
G01X796938Y573241D02*
G03X796644I-147J-131D01*
G01X796385Y572982D02*
G03X796644Y573241I-2094J2353D01*
G01X796385Y572982D02*
G03Y572688I131J-147D01*
G01X796644Y572428D02*
G03X796385Y572688I-2353J-2093D01*
G01X796644Y572428D02*
G03X796938I147J131D01*
G01X797198Y572688D02*
G03X796938Y572428I2093J-2353D01*
G01X797198Y572688D02*
G03Y572982I-131J147D01*
G01X801938Y573241D02*
G03X802198Y572982I2353J2094D01*
G01X801938Y573241D02*
G03X801644I-147J-131D01*
G01X801385Y572982D02*
G03X801644Y573241I-2094J2353D01*
G01X801385Y572982D02*
G03Y572688I131J-147D01*
G01X801644Y572428D02*
G03X801385Y572688I-2353J-2093D01*
G01X801644Y572428D02*
G03X801938I147J131D01*
G01X802198Y572688D02*
G03X801938Y572428I2093J-2353D01*
G01X802198Y572688D02*
G03Y572982I-131J147D01*
G01X803937Y539778D02*
G03X803879Y539917I-197J-0D01*
G01X795218Y548578*
G03X794882Y548439I-139J-139*
G01Y542778*
G03X794940Y542639I197J0*
G01X798395Y539183*
G03X798723Y539266I139J140*
G01X801667Y536321D02*
G03X798723Y539266I-683J2262D01*
G01X801667Y536321D02*
G03X801585Y535994I57J-188D01*
G01X803140Y534439*
X803455Y533951D02*
G03X803140Y534439I-1290J-486D01*
G01X803455Y533951D02*
G03X803768Y533872I184J69D01*
G01X803861Y533949D02*
G03X803768Y533872I1454J-1862D01*
G01X803861Y533949D02*
G03X803937Y534104I-121J155D01*
G01Y539778*
X819094Y529446D02*
G03X819037Y529585I-196J0D01*
G01X810666Y537956*
G03X810353Y537725I-140J-139*
G01X806996Y534624D02*
G03X810353Y537725I1272J1990D01*
G01X806996Y534624D02*
G03X806693Y534458I-106J-166D01*
G01Y534104*
G03X806769Y533949I197J-0*
G01X804684Y529810D02*
G03X806769Y533949I631J2277D01*
G01X804684Y529810D02*
G03X804442Y529568I-53J-189D01*
G01X800712Y530799D02*
G03X804442Y529568I1453J-1862D01*
G01X800712Y530799D02*
G03X800787Y530954I-121J155D01*
G01Y532812*
G03X800730Y532951I-196J0*
G01X792530Y541152*
X792126Y542126D02*
G03X792530Y541152I1378J-0D01*
G01X792126Y542126D02*
Y549640D01*
G03X792068Y549779I-197J0*
G01X782063Y559785*
G03X781924Y559842I-139J-139*
G01X781924D02*
X729196D01*
X729196D02*
G03X729056Y559785I-0J-196D01*
G01X726810Y557539*
G03X726752Y557399I139J-140*
G01X726752*
G03X726754Y557375I197J0*
G01X726590Y556178D02*
G03X726754Y557375I-2181J909D01*
G01X726590Y556178D02*
G03X726772Y555906I182J-76D01*
G01X782677*
X783652Y555502D02*
G03X782677Y555906I-975J-974D01*
G01X783652Y555502D02*
X786556Y552598D01*
G03X786719Y552541I139J139*
G01X786934Y547836D02*
G03X786719Y552541I74J2361D01*
G01X786934Y547836D02*
G03X786788Y547500I-6J-197D01*
G01X788770Y545519*
X789173Y544544D02*
G03X788770Y545519I-1378J0D01*
G01X789173Y544544D02*
Y541247D01*
G03X789461Y541072I197J-0*
G01X792896Y538688D02*
G03X789461Y541072I-2345J288D01*
G01X792896Y538688D02*
G03X792894Y538664I195J-24D01*
G01X792894*
G03X792952Y538524I197J-0*
G01X794085Y537392*
X794488Y536417D02*
G03X794085Y537392I-1378J0D01*
G01X794488Y536417D02*
Y529120D01*
G03X794546Y528981I197J-0*
G01X800778Y522749*
X801181Y521775D02*
G03X800778Y522749I-1378J-0D01*
G01X801181Y521775D02*
Y510495D01*
G03X801239Y510356I197J-0*
G01X816064Y495530*
G03X816203Y495472I139J139*
G01X818110*
G03X818292Y495745I0J197*
G01X818110Y496654D02*
G03X818292Y495745I2362J-0D01*
G01X818110Y496654D02*
X818110D01*
X818860Y498380D02*
G03X818110Y496654I1612J-1726D01*
G01X818860Y498380D02*
G03Y498667I-134J144D01*
G01X819019Y502256D02*
G03X818860Y498667I1453J-1862D01*
G01X819019Y502256D02*
G03X819094Y502411I-121J155D01*
G01Y529446*
X833268Y544617D02*
G03X833210Y544757I-197J0D01*
G01X807766Y570201*
G03X807430Y570078I-139J-139*
G01X805774Y567556D02*
G03X807430Y570078I-1483J2779D01*
G01X805774Y567556D02*
G03X805669Y567382I92J-174D01*
G01Y560083*
G03X805727Y559944I197J-0*
G01X831880Y533791*
X832283Y532816D02*
G03X831880Y533791I-1377J0D01*
G01X832283Y532816D02*
Y517371D01*
G03X832359Y517216I197J0*
G01X832632Y516967D02*
G03X832359Y517216I-1726J-1613D01*
G01X832632Y516967D02*
G03X832919I144J134D01*
G01X833192Y517216D02*
G03X832919Y516967I1454J-1862D01*
G01X833192Y517216D02*
G03X833268Y517371I-121J155D01*
G01Y544617*
X861496Y430276D02*
Y423976D01*
X860512Y422992D02*
G03X861496Y423976I-0J984D01*
G01X860512Y422992D02*
X854213D01*
X853228Y423976D02*
G03X854213Y422992I985J0D01*
G01X853228Y423976D02*
Y430276D01*
X854213Y431260D02*
G03X853228Y430276I-0J-984D01*
G01X854213Y431260D02*
X860512D01*
X861496Y430276D02*
G03X860512Y431260I-984J-0D01*
G01X861496Y437126D02*
G03X861496I-4134J0D01*
G01Y447126D02*
G03X861496I-4134J0D01*
G01Y457126D02*
G03X861496I-4134J0D01*
G01Y467126D02*
G03X861496I-4134J0D01*
G01Y477126D02*
G03X861496I-4134J0D01*
G01Y487126D02*
G03X861496I-4134J0D01*
G01X851496Y427126D02*
G03X851496I-4134J0D01*
G01Y437126D02*
G03X851496I-4134J0D01*
G01Y447126D02*
G03X851496I-4134J0D01*
G01Y457126D02*
G03X851496I-4134J0D01*
G01Y467126D02*
G03X851496I-4134J0D01*
G01Y477126D02*
G03X851496I-4134J0D01*
G01X853819Y494997D02*
G03X853511Y495035I-169J-101D01*
G01X850218Y491742*
X849242Y491339D02*
G03X850218Y491742I1J1378D01*
G01X849242Y491339D02*
X848984D01*
G03X848787Y491142I-0J-197*
X848910Y490959I197J-0*
G01X845814D02*
G03X848910I1548J-3833D01*
G01X845814D02*
G03X845938Y491142I-73J183D01*
X845741Y491339I-197J-0*
G01X814980*
X814006Y491742D02*
G03X814980Y491339I974J975D01*
G01X814006Y491742D02*
X797057Y508691D01*
X796654Y509665D02*
G03X797057Y508691I1377J0D01*
G01X796654Y509665D02*
Y519928D01*
G03X796596Y520068I-197J0*
G01X789577Y527087*
X789173Y528061D02*
G03X789577Y527087I1378J0D01*
G01X789173Y528061D02*
Y533219D01*
G03X789097Y533374I-197J0*
G01X788204Y535506D02*
G03X789097Y533374I2347J-270D01*
G01X788204Y535506D02*
G03X788206Y535529I-195J23D01*
G01X788206*
G03X787870Y535668I-197J-0*
G01X786007Y533806*
X785033Y533402D02*
G03X786007Y533806I-0J1378D01*
G01X785033Y533402D02*
X784436D01*
G03X784240Y533225I-0J-197*
G01X781702Y531110D02*
G03X784240Y533225I188J2355D01*
G01X781702Y531110D02*
G03X781490Y530928I-16J-196D01*
G01X776860Y530462D02*
G03X781490Y530928I2274J640D01*
G01X776860Y530462D02*
G03X776618Y530598I-189J-53D01*
G01X775438Y530576D02*
G03X776618Y530598I546J2298D01*
G01X775438Y530576D02*
G03X775196Y530384I-45J-192D01*
G01X775196*
G03Y530379I197J0*
G01X775197Y530315D02*
G03X775196Y530379I-2362J-0D01*
G01X775197Y530315D02*
X775197D01*
X770472D02*
G03X775197I2363J-0D01*
G01X770472D02*
X770472D01*
X770473Y530379D02*
G03X770472Y530315I2362J-64D01*
G01X770473Y530379D02*
G03Y530384I-196J5D01*
G01X770473*
G03X770231Y530576I-196J0*
G01X767323Y532874D02*
G03X770231Y530576I2362J0D01*
G01X772047Y532874D02*
G03X767323I-2362J0D01*
G01X772047D02*
X772047D01*
X772046Y532810D02*
G03X772047Y532874I-2361J64D01*
G01X772046Y532810D02*
G03Y532805I197J-5D01*
G01X772046*
G03X772289Y532613I197J-0*
G01X773381D02*
G03X772289I-546J-2298D01*
G01X773381D02*
G03X773623Y532805I45J192D01*
G01X773623*
G03Y532810I-197J-0*
G01X773622Y532874D02*
G03X773623Y532810I2362J0D01*
G01X773622Y532874D02*
X773622D01*
X777512Y534675D02*
G03X773622Y532874I-1528J-1801D01*
G01X777512Y534675D02*
G03X777827Y534763I128J150D01*
G01X778159Y535302D02*
G03X777827Y534763I975J-974D01*
G01X778159Y535302D02*
X780052Y537195D01*
X780316Y537401D02*
G03X780052Y537195I711J-1181D01*
G01X780316Y537401D02*
G03X780412Y537570I-101J169D01*
X780341Y537721I-197J0*
G01X780249Y537805D02*
G03X780341Y537721I974J975D01*
G01X780249Y537805D02*
X776191Y541863D01*
X775787Y542838D02*
G03X776191Y541863I1378J-0D01*
G01X775787Y542838D02*
Y544305D01*
G03X775730Y544445I-196J0*
G01X773185Y546990*
G03X773045Y547047I-140J-140*
G01X659117*
G03X658978Y546990I-0J-197*
G01X657274Y545285*
X656299Y544882D02*
G03X657274Y545285I0J1378D01*
G01X656299Y544882D02*
X640403D01*
G03X640248Y544806I-0J-197*
G01X638167Y548612D02*
G03X640248Y544806I219J-2352D01*
G01X638167Y548612D02*
G03X638303Y548930I-18J196D01*
G01X642019Y551847D02*
G03X638303Y548930I-1862J-1453D01*
G01X642019Y551847D02*
G03X642175Y551772I156J122D01*
G01X644253*
X645228Y551368D02*
G03X644253Y551772I-975J-974D01*
G01X645228Y551368D02*
X647326Y549270D01*
G03X647465Y549213I139J139*
G01X654289*
G03X654428Y549270I-0J196*
G01X655935Y550778*
X656910Y551181D02*
G03X655935Y550778I-0J-1378D01*
G01X656910Y551181D02*
X657559D01*
G03X657699Y551517I0J197*
G01X644301Y564915*
X643898Y565889D02*
G03X644301Y564915I1378J-0D01*
G01X643898Y565889D02*
Y569440D01*
G03X643822Y569595I-197J-0*
G01X647547Y572106D02*
G03X643822Y569595I-2271J-649D01*
G01X647547Y572106D02*
G03X647925I189J54D01*
G01X651651Y569595D02*
G03X647926Y572106I-1454J1862D01*
G01X651651Y569595D02*
G03X651575Y569440I121J-155D01*
G01Y563569*
G03X651632Y563430I197J-0*
G01X660674Y554388*
G03X660813Y554331I139J140*
G01X679907*
G03X679921I-0J197*
X679936I15J197*
G01X683365*
G03X683504Y554667I-0J197*
G01X682520Y555651*
G03X682381Y555709I-139J-139*
G01X681938*
G03X681783Y555633I0J-197*
G01X679935Y554724D02*
G03X681783Y555633I-14J2363D01*
G01X679935Y554724D02*
G03X679921I1J-196D01*
X679908I-14J-196*
G01X681783Y558540D02*
G03X679908Y554724I-1862J-1453D01*
G01X681783Y558540D02*
G03X681938Y558465I155J121D01*
G01X683033*
X684007Y558061D02*
G03X683033Y558465I-974J-974D01*
G01X684007Y558061D02*
X686105Y555963D01*
G03X686244Y555906I139J139*
G01X708647*
G03X708661I-0J196*
X708676I15J196*
G01X722047*
G03X722229Y556178I0J196*
G01X724698Y559431D02*
G03X722229Y556178I-289J-2344D01*
G01X724698Y559431D02*
G03X724861Y559487I24J196D01*
G01X726258Y560884*
G03X726119Y561220I-139J140*
G01X713251*
G03X713112Y561163I-0J-196*
G01X711062Y559113*
G03X711004Y558974I139J-139*
G01X711004*
G03X711006Y558950I197J0*
G01X708675Y556299D02*
G03X711006Y558950I-14J2362D01*
G01X708675Y556299D02*
G03X708661I1J-197D01*
X708648I-14J-197*
G01X708950Y561006D02*
G03X708648Y556299I-289J-2345D01*
G01X708950Y561006D02*
G03X709113Y561062I24J195D01*
G01X710314Y562262*
G03X710174Y562598I-140J140*
G01X698093*
G03X697954Y562541I0J-196*
G01X694920Y559507*
G03X694863Y559368I140J-139*
G01X694863*
G03X694864Y559344I197J-0*
G01X692808Y561400D02*
G03X694864Y559344I-288J-2345D01*
G01X692808Y561400D02*
G03X692972Y561456I24J195D01*
G01X695156Y563640*
G03X695017Y563976I-139J140*
G01X672700*
G03X672560Y563919I-0J-196*
G01X666574Y557932*
G03X666516Y557793I139J-139*
G01X666516*
G03X666518Y557769I197J0*
G01X664462Y559825D02*
G03X666518Y557769I-289J-2345D01*
G01X664462Y559825D02*
G03X664625Y559881I24J195D01*
G01X671073Y566329*
X672047Y566732D02*
G03X671073Y566329I0J-1378D01*
G01X672047Y566732D02*
X787717D01*
G03X787913Y566929I-0J197*
G01Y567382*
G03X787809Y567556I-196J-0*
G01X787563Y567702D02*
G03X787809Y567556I1728J2633D01*
G01X787563Y567702D02*
G03X787288Y567643I-108J-165D01*
G01X786457Y567185D02*
G03X787288Y567643I-0J984D01*
G01X786457Y567185D02*
X782126D01*
X781142Y568169D02*
G03X782126Y567185I984J0D01*
G01X781142Y568169D02*
Y572500D01*
X781599Y573332D02*
G03X781142Y572500I527J-832D01*
G01X781599Y573332D02*
G03X781659Y573606I-105J166D01*
G01X786644Y577428D02*
G03X781659Y573606I-2353J-2093D01*
G01X786644Y577428D02*
G03X786938I147J131D01*
G01X791644D02*
G03X786938I-2353J-2093D01*
G01X791644D02*
G03X791938I147J131D01*
G01X796644D02*
G03X791938I-2353J-2093D01*
G01X796644D02*
G03X796938I147J131D01*
G01X801644D02*
G03X796938I-2353J-2093D01*
G01X801644D02*
G03X801938I147J131D01*
G01X807362Y574633D02*
G03X801938Y577428I-3071J702D01*
G01X807362Y574633D02*
G03X807357Y574589I192J-44D01*
X807414Y574450I197J-0*
G01X835620Y546244*
X836024Y545270D02*
G03X835620Y546244I-1378J-0D01*
G01X836024Y545270D02*
Y517371D01*
G03X836099Y517216I196J0*
G01X832919Y513742D02*
G03X836099Y517216I1727J1612D01*
G01X832919Y513742D02*
G03X832632I-143J-135D01*
G01X829179D02*
G03X832632I1727J1612D01*
G01X829179D02*
G03X828892I-144J-135D01*
G01X825439D02*
G03X828892I1726J1612D01*
G01X825439D02*
G03X825151I-144J-135D01*
G01X822153Y513364D02*
G03X825151Y513742I1272J1990D01*
G01X822153Y513364D02*
G03X821850Y513198I-106J-166D01*
G01Y502411*
G03X821926Y502256I197J-0*
G01X822085Y498667D02*
G03X821926Y502256I-1613J1727D01*
G01X822085Y498667D02*
G03Y498380I134J-143D01*
G01X822835Y496654D02*
G03X822085Y498380I-2363J-0D01*
G01X822835Y496654D02*
X822835D01*
X822653Y495745D02*
G03X822835Y496654I-2181J909D01*
G01X822653Y495745D02*
G03X822835Y495472I182J-76D01*
G01X833678*
G03X833818Y495530I0J197*
G01X843535Y505248*
G03X843576Y505466I-139J139*
G01X845702Y503340D02*
G03X843576Y505466I1660J3786D01*
G01X845702Y503340D02*
G03X845484Y503299I-79J-180D01*
G01X836616Y494431*
G03X836755Y494095I139J-140*
G01X844088*
G03X844237Y494420I0J196*
G01X851489Y497374D02*
G03X844237Y494420I-4127J-248D01*
G01X851489Y497374D02*
G03X851824Y497246I196J11D01*
G01X852678Y498100*
X853356Y498472D02*
G03X852678Y498100I297J-1346D01*
G01X853356Y498472D02*
G03X853498Y498594I-42J192D01*
G01X853819Y494997D02*
G03X853498Y498594I3543J2129D01*
G01X861496Y507126D02*
G03X861496I-4134J0D01*
G01Y517126D02*
G03X861496I-4134J0D01*
G01Y527126D02*
G03X861496I-4134J0D01*
G01Y537126D02*
G03X861496I-4134J0D01*
G01X843067Y405118D02*
G03X843067I-4484J0D01*
G01X834646Y476181D02*
G03X834646I-2363J0D01*
G01X818898Y476772D02*
Y402953D01*
X818702Y402244D02*
G03X818898Y402953I-1182J709D01*
G01X818702Y402244D02*
G03X818676Y402115I169J-101D01*
G01X815975Y404106D02*
G03X818676Y402115I364J-2334D01*
G01X815975Y404106D02*
G03X816142Y404300I-30J194D01*
G01Y476119*
G03X816084Y476259I-197J0*
G01X810314Y482029*
G03X810174Y482087I-140J-139*
G01X800748*
X799684Y482589D02*
G03X800748Y482087I1064J876D01*
G01X799684Y482589D02*
X799581Y482714D01*
G03X799568Y482728I-152J-125*
G01X796921Y485375*
G03X796782Y485433I-139J-139*
G01X790797*
G03X790641Y485357I-0J-197*
G01Y488265D02*
G03Y485357I-1861J-1454D01*
G01Y488265D02*
G03X790797Y488189I156J121D01*
G01X792534*
G03X792639Y488552I-0J197*
G01X791535Y490551D02*
G03X792639Y488552I2363J0D01*
G01X796260Y490551D02*
G03X791535I-2362J0D01*
G01X795157Y488552D02*
G03X796260Y490551I-1259J1999D01*
G01X795157Y488552D02*
G03X795262Y488189I105J-166D01*
G01X797434*
X798408Y487785D02*
G03X797434Y488189I-974J-974D01*
G01X798408Y487785D02*
X798483Y487710D01*
G03X798819Y487845I140J140*
G01X801231Y485434D02*
G03X798819Y487845I-50J2361D01*
G01X801231Y485434D02*
G03X801096Y485098I4J-197D01*
G01X801294Y484900*
G03X801433Y484843I139J139*
G01X810827*
X811801Y484439D02*
G03X810827Y484843I-974J-974D01*
G01X811801Y484439D02*
X818494Y477746D01*
X818898Y476772D02*
G03X818494Y477746I-1378J-0D01*
G01X813386Y476772D02*
Y403543D01*
X812982Y402569D02*
G03X813386Y403543I-974J974D01*
G01X812982Y402569D02*
X809636Y399222D01*
X808660Y398819D02*
G03X809636Y399222I1J1378D01*
G01X808660Y398819D02*
X717913D01*
X716988Y399176D02*
G03X717913Y398819I925J1021D01*
G01X716988Y399176D02*
G03X716726Y399179I-133J-146D01*
G01X718264Y402559D02*
G03X716726Y399179I-4484J0D01*
G01X718264Y402559D02*
X718264D01*
X718222Y401947D02*
G03X718264Y402559I-4442J612D01*
G01X718222Y401947D02*
G03X718278Y401781I195J-27D01*
G01X718427Y401632*
G03X718566Y401575I139J140*
G01X808009*
G03X808148Y401632I0J197*
G01X810572Y404056*
G03X810630Y404196I-139J140*
G01Y466329*
G03X810236Y466330I-197J-0*
G01X809252Y465354D02*
G03X810236Y466330I-0J985D01*
G01X809252Y465354D02*
X802953D01*
X801968Y466339D02*
G03X802953Y465354I985J-0D01*
G01X801968Y466339D02*
Y472638D01*
X802953Y473622D02*
G03X801968Y472638I-0J-984D01*
G01X802953Y473622D02*
X809252D01*
X810236Y472646D02*
G03X809252Y473622I-984J-8D01*
G01X810236Y472646D02*
G03X810630Y472648I197J2D01*
G01Y476119*
G03X810572Y476259I-197J0*
G01X808345Y478486*
G03X808206Y478543I-139J-140*
G01X794340*
G03X794143Y478346I-0J-197*
X794185Y478225I197J0*
G01X790461D02*
G03X794185I1862J-1453D01*
G01X790461D02*
G03X790503Y478346I-155J121D01*
X790306Y478543I-197J0*
G01X787992*
X787018Y478947D02*
G03X787992Y478543I974J974D01*
G01X787018Y478947D02*
X785885Y480080D01*
G03X785722Y480136I-139J-140*
G01X787778Y482192D02*
G03X785722Y480136I-2345J288D01*
G01X787778Y482192D02*
G03X787776Y482168I195J-24D01*
G01X787776*
G03X787834Y482028I197J-0*
G01X788505Y481357*
G03X788644Y481299I139J139*
G01X808858*
X809833Y480896D02*
G03X808858Y481299I-975J-975D01*
G01X809833Y480896D02*
X812982Y477746D01*
X813386Y476772D02*
G03X812982Y477746I-1378J-0D01*
G01X790945Y448031D02*
G03X790945I-2362J0D01*
G01X793701Y455709D02*
G03X793701I-2362J0D01*
G01X800039Y469488D02*
G03X800039I-3937J0D01*
G01X748032Y432283D02*
G03X748032I-2363J0D01*
G01X779013Y446957D02*
G03X778937Y446802I121J-155D01*
G01Y445669*
X778533Y444695D02*
G03X778937Y445669I-974J974D01*
G01X778533Y444695D02*
X769085Y435246D01*
X768109Y434843D02*
G03X769085Y435246I1J1377D01*
G01X768109Y434842D02*
X748543D01*
X747569Y435246D02*
G03X748543Y434842I974J974D01*
G01X747569Y435246D02*
X746633Y436182D01*
G03X746470Y436238I-139J-139*
G01X747806Y440297D02*
G03X746470Y436238I-1625J-1714D01*
G01X747806Y440297D02*
G03X748094Y440316I135J143D01*
G01X752249Y439219D02*
G03X748094Y440316I-2328J-400D01*
G01X752249Y439219D02*
G03X752443Y439055I194J33D01*
G01X766946*
G03X767085Y439113I0J197*
G01X771990Y444017*
G03X772047Y444156I-140J139*
G01Y446802*
G03X771972Y446957I-197J-0*
G01X775333Y450212D02*
G03X771972Y446957I-1908J-1393D01*
G01X775333Y450212D02*
G03X775651I159J116D01*
G01X779013Y446957D02*
G03X775651Y450212I-1454J1862D01*
G01X787559Y469488D02*
G03X787559I-3937J0D01*
G01X802756Y494094D02*
G03X802756I-2362J0D01*
G01X851496Y517126D02*
G03X851496I-4134J0D01*
G01Y527126D02*
G03X851496I-4134J0D01*
G01X855702Y543340D02*
G03X855484Y543299I-79J-180D01*
G01X853533Y541348*
X852559Y540945D02*
G03X853533Y541348I0J1378D01*
G01X852559Y540945D02*
X849736D01*
G03X849539Y540748I0J-197*
X849628Y540583I197J0*
G01X845096D02*
G03X849628I2266J-3457D01*
G01X845096D02*
G03X845185Y540748I-108J165D01*
X844988Y540945I-197J0*
G01X843749*
G03X843594Y540869I0J-197*
G01Y543777D02*
G03Y540869I-1862J-1454D01*
G01Y543777D02*
G03X843749Y543701I155J121D01*
G01X844475*
G03X844607Y544044I0J197*
G01X850118D02*
G03X844607I-2756J3082D01*
G01X850118D02*
G03X850249Y543701I131J-146D01*
G01X851907*
G03X852046Y543758I-0J197*
G01X853535Y545248*
G03X853576Y545466I-139J139*
G01X855702Y543340D02*
G03X853576Y545466I1660J3786D01*
G01X861496Y557126D02*
G03X861496I-4134J0D01*
G01X851496D02*
G03X851496I-4134J0D01*
G01X777756Y472638D02*
Y466339D01*
X776772Y465354D02*
G03X777756Y466339I-0J985D01*
G01X776772Y465354D02*
X770472D01*
X769488Y466339D02*
G03X770472Y465354I984J-0D01*
G01X769488Y466339D02*
Y472638D01*
X770472Y473622D02*
G03X769488Y472638I0J-984D01*
G01X770472Y473622D02*
X776772D01*
X777756Y472638D02*
G03X776772Y473622I-984J-0D01*
G01X772835Y477953D02*
G03X772835I-2363J0D01*
G01X772047Y496457D02*
G03X772047I-2362J0D01*
G01X766929Y502756D02*
G03X766929I-2362J0D01*
G01X766732Y515354D02*
G03X766732I-2362J0D01*
G01X762008Y523819D02*
G03X762008I-2362J0D01*
G01X761220Y541929D02*
G03X761220I-2362J0D01*
G01X747795Y445827D02*
G03X747795I-2362J0D01*
G01X751257Y474240D02*
G03X751181Y474085I121J-155D01*
G01Y471063*
X750778Y470089D02*
G03X751181Y471063I-975J974D01*
G01X750778Y470089D02*
X732913Y452224D01*
G03X732855Y452084I139J-140*
G01X732855*
G03X732856Y452060I197J0*
G01X728772Y453369D02*
G03X732856Y452060I1740J-1597D01*
G01X728772Y453369D02*
G03X728766Y453642I-145J133D01*
G01X728071Y455315D02*
G03X728766Y453642I2362J-0D01*
G01X731639Y457346D02*
G03X728071Y455315I-1206J-2031D01*
G01X731639Y457346D02*
G03X731879Y457376I101J169D01*
G01X745364Y470896*
X746793Y472325*
G03X746850Y472464I-139J139*
G01Y473127*
G03X746793Y473266I-196J0*
G01X745876Y474183*
X745472Y475157D02*
G03X745876Y474183I1378J0D01*
G01X745472Y475157D02*
Y478888D01*
G03X745397Y479044I-196J0*
G01X744488Y480906D02*
G03X745397Y479044I2362J-0D01*
G01X744488Y480906D02*
X744488D01*
X744564Y481498D02*
G03X744488Y480906I2286J-592D01*
G01X744564Y481498D02*
G03X744361Y481744I-191J50D01*
G01X741464Y482588D02*
G03X744361Y481744I2630J3632D01*
G01X741464Y482588D02*
G03X741210Y482568I-115J-159D01*
G01X733129Y474487*
G03X733071Y474348I139J-139*
G01Y467660*
G03X733129Y467521I197J0*
G01X734045Y466604*
X734449Y465630D02*
G03X734045Y466604I-1378J-0D01*
G01X734449Y465630D02*
Y462992D01*
X734045Y462018D02*
G03X734449Y462992I-974J974D01*
G01X734045Y462018D02*
X732913Y460885D01*
G03X732855Y460746I139J-139*
G01X732855*
G03X732856Y460722I197J-0*
G01X728725Y461979D02*
G03X732856Y460722I1787J-1546D01*
G01X728725Y461979D02*
G03X728704Y462257I-149J128D01*
G01X728783Y465917D02*
G03X728704Y462257I1453J-1862D01*
G01X728783Y465917D02*
G03X728858Y466072I-122J155D01*
G01Y477953*
X729278Y478943D02*
G03X728858Y477953I958J-990D01*
G01X729278Y478943D02*
X731239Y480841D01*
G03X731299Y480982I-137J141*
G01Y481691*
G03X731152Y481881I-197J-0*
G01X736768Y486220D02*
G03X731152Y481881I-4485J0D01*
G01X734169Y482152D02*
G03X736768Y486220I-1886J4068D01*
G01X734169Y482152D02*
G03X734055Y481973I83J-179D01*
G01Y480315*
X733918Y479715D02*
G03X734055Y480315I-1241J600D01*
G01X733918Y479715D02*
G03X734234Y479490I177J-86D01*
G01X739692Y484948*
G03X739750Y485087I-139J139*
X739744Y485135I-197J-0*
G01X747599Y483423D02*
G03X739744Y485135I-3505J2797D01*
G01X747599Y483423D02*
G03X747556Y483300I154J-123D01*
X747684Y483116I197J0*
G01X749213Y480906D02*
G03X747684Y483116I-2363J-0D01*
G01X748304Y479044D02*
G03X749213Y480906I-1454J1862D01*
G01X748304Y479044D02*
G03X748228Y478888I121J-156D01*
G01Y478259*
G03X748531Y478093I197J-0*
G01X751257Y474240D02*
G03X748531Y478093I-1454J1862D01*
G01X755512Y502953D02*
G03X755512I-2362J0D01*
G01X748579Y498031D02*
G03X748579I-4485J0D01*
G01X748168Y511878D02*
G03X747895I-137J-142D01*
G01Y515287D02*
G03Y511878I-1635J-1704D01*
G01Y515287D02*
G03X748168I136J142D01*
G01Y511878D02*
G03Y515287I1635J1705D01*
G01X736768Y498031D02*
G03X736768I-4485J0D01*
G01X723819Y414173D02*
G03X723819I-2362J0D01*
G01Y424213D02*
G03X723819I-2362J0D01*
G01X723622Y455906D02*
G03X723622I-2362J0D01*
G01Y465354D02*
G03X723622I-2362J0D01*
G01X728894Y507874D02*
G03X728894I-4485J0D01*
G01Y519685D02*
G03X728894I-4485J0D01*
G01X734799Y537402D02*
G03X734799I-4484J0D01*
G01X719051D02*
G03X719051I-4484J0D01*
G01X699213Y430118D02*
G03X699213I-2363J0D01*
G01X694445Y402559D02*
G03X694445I-4484J0D01*
G01X699016Y449213D02*
G03X699016I-2362J0D01*
G01X692520Y539370D02*
G03X692520I-2363J0D01*
G01X687598Y410039D02*
G03X687598I-2362J0D01*
G01Y421850D02*
G03X687598I-2362J0D01*
G01X684606Y433661D02*
G03X684606I-3937J0D01*
G01Y446457D02*
G03X684606I-3937J0D01*
G01X687402Y457480D02*
G03X687402I-2363J0D01*
G01Y468898D02*
G03X687402I-2363J0D01*
G01X666263Y410024D02*
G03Y409661I76J-181D01*
G01Y405300D02*
G03Y409661I-909J2180D01*
G01Y405300D02*
G03Y404936I76J-182D01*
G01X664446D02*
G03X666263I908J-2180D01*
G01X664446D02*
G03Y405300I-76J182D01*
G01Y409661D02*
G03Y405300I908J-2181D01*
G01Y409661D02*
G03Y410024I-76J182D01*
G01X666263D02*
G03X664446I-909J2181D01*
G01X674803Y436811D02*
Y430512D01*
X673819Y429528D02*
G03X674803Y430512I-0J984D01*
G01X673819Y429528D02*
X667520D01*
X666535Y430512D02*
G03X667520Y429528I985J-0D01*
G01X666535Y430512D02*
Y436811D01*
X667520Y437795D02*
G03X666535Y436811I-0J-984D01*
G01X667520Y437795D02*
X673819D01*
X674803Y436811D02*
G03X673819Y437795I-984J0D01*
G01X674803Y449606D02*
Y443307D01*
X673819Y442323D02*
G03X674803Y443307I-0J984D01*
G01X673819Y442323D02*
X667520D01*
X666535Y443307D02*
G03X667520Y442323I985J0D01*
G01X666535Y443307D02*
Y449606D01*
X667520Y450591D02*
G03X666535Y449606I-0J-985D01*
G01X667520Y450591D02*
X673819D01*
X674803Y449606D02*
G03X673819Y450591I-984J0D01*
G01X677953Y534843D02*
G03X677953I-2362J0D01*
G01X667717Y468110D02*
G03X667717I-2363J0D01*
G01X666263Y475969D02*
G03Y475606I76J-182D01*
G01X664446D02*
G03X666263I908J-2181D01*
G01X664446D02*
G03Y475969I-76J181D01*
G01X666263D02*
G03X664446I-909J2181D01*
G01X658063Y404797D02*
G03X657927Y405161I-99J170D01*
G01X658669Y405439D02*
G03X657927Y405161I-1189J2041D01*
G01X658669Y405439D02*
G03X658805Y405075I99J-170D01*
G01X658063Y404797D02*
G03X658805Y405075I1189J-2041D01*
G01X661614Y478150D02*
G03X661614I-2362J0D01*
G01X661220Y539961D02*
G03X661220I-2362J0D01*
G01X647179Y501136D02*
G03Y500833I125J-152D01*
G01X644160D02*
G03X647179I1509J-1817D01*
G01X644160D02*
G03Y501136I-126J151D01*
G01X647179D02*
G03X644160I-1510J1817D01*
G01X641273Y505073D02*
G03Y504770I126J-152D01*
G01Y501136D02*
G03Y504770I-1509J1817D01*
G01Y501136D02*
G03Y500833I126J-152D01*
G01X638254D02*
G03X641273I1510J-1817D01*
G01X638254D02*
G03Y501136I-125J151D01*
G01Y504770D02*
G03Y501136I1510J-1817D01*
G01Y504770D02*
G03Y505073I-125J151D01*
G01X641273D02*
G03X638254I-1509J1817D01*
G01X748579Y572835D02*
G03X748579I-4485J0D01*
G01X737402Y583071D02*
G03X737402I-2363J0D01*
G01X722047D02*
G03X722047I-2362J0D01*
G01X711024Y576378D02*
G03X711024I-2363J0D01*
G01X706693Y583071D02*
G03X706693I-2362J0D01*
G01X690551D02*
G03X690551I-2362J0D01*
G01X675197D02*
G03X675197I-2362J0D01*
G01X630315Y549409D02*
G03X630315I-2362J0D01*
G01Y573425D02*
G03X630315I-2362J0D01*
G01X631299Y583071D02*
G03X631299I-2362J0D01*
G01X623425Y478346D02*
G03X623425I-2362J0D01*
G01X608858Y492126D02*
G03X608858I-2362J0D01*
G01X612752Y563976D02*
G03X612752I-4484J0D01*
G01X588264Y412441D02*
G03X588264I-4484J0D01*
G01X590154Y452396D02*
G03X589927Y452169I-33J-194D01*
G01Y451375D02*
G03Y452169I-2329J397D01*
G01Y451375D02*
G03X590154Y451148I194J-33D01*
G01X588223Y449216D02*
G03X590154Y451148I2328J-397D01*
G01X588223Y449216D02*
G03X587995Y449443I-194J33D01*
G01X587201D02*
G03X587995I397J2329D01*
G01X587201D02*
G03X586974Y449216I-33J-194D01*
G01X585043Y451148D02*
G03X586974Y449216I-397J-2329D01*
G01X585043Y451148D02*
G03X585270Y451375I33J194D01*
G01Y452169D02*
G03Y451375I2328J-397D01*
G01Y452169D02*
G03X585043Y452396I-194J33D01*
G01X586974Y454327D02*
G03X585043Y452396I-2328J397D01*
G01X586974Y454327D02*
G03X587201Y454100I194J-33D01*
G01X587995D02*
G03X587201I-397J-2328D01*
G01X587995D02*
G03X588223Y454327I34J194D01*
G01X590154Y452396D02*
G03X588223Y454327I397J2328D01*
G01X567323Y434646D02*
G03X567323I-2362J0D01*
G01X811811Y515748D02*
G03X811811I-2362J0D01*
G01X545472Y587912D02*
X863976D01*
X545472Y587558D02*
X863976D01*
X545472Y587203D02*
X863976D01*
X545472Y586849D02*
X863976D01*
X545472Y586495D02*
X863976D01*
X545472Y586140D02*
X863976D01*
X545472Y585786D02*
X863976D01*
X735118Y585432D02*
X863976D01*
X736286Y585077D02*
X863976D01*
X736728Y584723D02*
X863976D01*
X737013Y584369D02*
X863976D01*
X737205Y584014D02*
X863976D01*
X737327Y583660D02*
X863976D01*
X737390Y583306D02*
X863976D01*
X737399Y582951D02*
X863976D01*
X737354Y582597D02*
X863976D01*
X737252Y582243D02*
X863976D01*
X737084Y581888D02*
X863976D01*
X736833Y581534D02*
X863976D01*
X736455Y581180D02*
X863976D01*
X735773Y580825D02*
X863976D01*
X545472Y580471D02*
X863976D01*
X545472Y580117D02*
X863976D01*
X545472Y579762D02*
X863976D01*
X545472Y579408D02*
X863976D01*
X545472Y579054D02*
X863976D01*
X709098Y578699D02*
X863976D01*
X805217Y578345D02*
X863976D01*
X805984Y577991D02*
X863976D01*
X806441Y577637D02*
X863976D01*
X806767Y577282D02*
X863976D01*
X807008Y576928D02*
X863976D01*
X807187Y576574D02*
X863976D01*
X807314Y576219D02*
X863976D01*
X807396Y575865D02*
X863976D01*
X807436Y575511D02*
X863976D01*
X807436Y575156D02*
X863976D01*
X807396Y574802D02*
X863976D01*
X807417Y574448D02*
X863976D01*
X807771Y574093D02*
X863976D01*
X808125Y573739D02*
X863976D01*
X808480Y573385D02*
X863976D01*
X808834Y573030D02*
X863976D01*
X809188Y572676D02*
X863976D01*
X809543Y572322D02*
X863976D01*
X809897Y571967D02*
X863976D01*
X810251Y571613D02*
X863976D01*
X810606Y571259D02*
X863976D01*
X810960Y570904D02*
X863976D01*
X811314Y570550D02*
X863976D01*
X811669Y570196D02*
X863976D01*
X812023Y569841D02*
X863976D01*
X812377Y569487D02*
X863976D01*
X812732Y569133D02*
X863976D01*
X813086Y568778D02*
X863976D01*
X813440Y568424D02*
X863976D01*
X813795Y568070D02*
X863976D01*
X814149Y567715D02*
X863976D01*
X814503Y567361D02*
X863976D01*
X814858Y567007D02*
X863976D01*
X815212Y566652D02*
X863976D01*
X815566Y566298D02*
X863976D01*
X815921Y565944D02*
X863976D01*
X816275Y565589D02*
X863976D01*
X816629Y565235D02*
X863976D01*
X816984Y564881D02*
X863976D01*
X817338Y564526D02*
X863976D01*
X817692Y564172D02*
X863976D01*
X818047Y563818D02*
X863976D01*
X818401Y563463D02*
X863976D01*
X818755Y563109D02*
X863976D01*
X819110Y562755D02*
X863976D01*
X819464Y562400D02*
X863976D01*
X819818Y562046D02*
X863976D01*
X820172Y561692D02*
X863976D01*
X820527Y561337D02*
X863976D01*
X858850Y560983D02*
X863976D01*
X859558Y560629D02*
X863976D01*
X860041Y560274D02*
X863976D01*
X860409Y559920D02*
X863976D01*
X860699Y559566D02*
X863976D01*
X860932Y559211D02*
X863976D01*
X861116Y558857D02*
X863976D01*
X861260Y558503D02*
X863976D01*
X861368Y558148D02*
X863976D01*
X861442Y557794D02*
X863976D01*
X861484Y557440D02*
X863976D01*
X861496Y557085D02*
X863976D01*
X861477Y556731D02*
X863976D01*
X861428Y556377D02*
X863976D01*
X861346Y556022D02*
X863976D01*
X861230Y555668D02*
X863976D01*
X861078Y555314D02*
X863976D01*
X860883Y554959D02*
X863976D01*
X860638Y554605D02*
X863976D01*
X860332Y554251D02*
X863976D01*
X859943Y553896D02*
X863976D01*
X859422Y553542D02*
X863976D01*
X858619Y553188D02*
X863976D01*
X829031Y552833D02*
X863976D01*
X829385Y552479D02*
X863976D01*
X829739Y552125D02*
X863976D01*
X830094Y551770D02*
X863976D01*
X830448Y551416D02*
X863976D01*
X858627Y551062D02*
X863976D01*
X859427Y550707D02*
X863976D01*
X859946Y550353D02*
X863976D01*
X860335Y549999D02*
X863976D01*
X860640Y549644D02*
X863976D01*
X860884Y549290D02*
X863976D01*
X861079Y548936D02*
X863976D01*
X861231Y548581D02*
X863976D01*
X861347Y548227D02*
X863976D01*
X861428Y547873D02*
X863976D01*
X861477Y547518D02*
X863976D01*
X861496Y547164D02*
X863976D01*
X861484Y546810D02*
X863976D01*
X861441Y546455D02*
X863976D01*
X861367Y546101D02*
X863976D01*
X861259Y545747D02*
X863976D01*
X861115Y545392D02*
X863976D01*
X860930Y545038D02*
X863976D01*
X860698Y544684D02*
X863976D01*
X860407Y544329D02*
X863976D01*
X860038Y543975D02*
X863976D01*
X859554Y543621D02*
X863976D01*
X858843Y543266D02*
X863976D01*
X855097Y542912D02*
X863976D01*
X854743Y542558D02*
X863976D01*
X854388Y542203D02*
X863976D01*
X854034Y541849D02*
X863976D01*
X853680Y541495D02*
X863976D01*
X858349Y541140D02*
X863976D01*
X859284Y540786D02*
X863976D01*
X859844Y540432D02*
X863976D01*
X860257Y540077D02*
X863976D01*
X860578Y539723D02*
X863976D01*
X860835Y539369D02*
X863976D01*
X861040Y539014D02*
X863976D01*
X861201Y538660D02*
X863976D01*
X861324Y538306D02*
X863976D01*
X861413Y537951D02*
X863976D01*
X861469Y537597D02*
X863976D01*
X861494Y537243D02*
X863976D01*
X861489Y536888D02*
X863976D01*
X861453Y536534D02*
X863976D01*
X861386Y536180D02*
X863976D01*
X861286Y535825D02*
X863976D01*
X861150Y535471D02*
X863976D01*
X860975Y535117D02*
X863976D01*
X860754Y534762D02*
X863976D01*
X860477Y534408D02*
X863976D01*
X860128Y534054D02*
X863976D01*
X859675Y533699D02*
X863976D01*
X859034Y533345D02*
X863976D01*
X836024Y532991D02*
X863976D01*
X836024Y532637D02*
X863976D01*
X836024Y532282D02*
X863976D01*
X836024Y531928D02*
X863976D01*
X836024Y531574D02*
X863976D01*
X857941Y531219D02*
X863976D01*
X859126Y530865D02*
X863976D01*
X859736Y530511D02*
X863976D01*
X860174Y530156D02*
X863976D01*
X860513Y529802D02*
X863976D01*
X860783Y529448D02*
X863976D01*
X860998Y529093D02*
X863976D01*
X861168Y528739D02*
X863976D01*
X861300Y528385D02*
X863976D01*
X861396Y528030D02*
X863976D01*
X861459Y527676D02*
X863976D01*
X861491Y527322D02*
X863976D01*
X861493Y526967D02*
X863976D01*
X861464Y526613D02*
X863976D01*
X861404Y526259D02*
X863976D01*
X861311Y525904D02*
X863976D01*
X861184Y525550D02*
X863976D01*
X861018Y525196D02*
X863976D01*
X860807Y524841D02*
X863976D01*
X860544Y524487D02*
X863976D01*
X860213Y524133D02*
X863976D01*
X859787Y523778D02*
X863976D01*
X859202Y523424D02*
X863976D01*
X858159Y523070D02*
X863976D01*
X836024Y522715D02*
X863976D01*
X836024Y522361D02*
X863976D01*
X836024Y522007D02*
X863976D01*
X836024Y521652D02*
X863976D01*
X836024Y521298D02*
X863976D01*
X858948Y520944D02*
X863976D01*
X859619Y520589D02*
X863976D01*
X860087Y520235D02*
X863976D01*
X860445Y519881D02*
X863976D01*
X860728Y519526D02*
X863976D01*
X860954Y519172D02*
X863976D01*
X861134Y518818D02*
X863976D01*
X861274Y518463D02*
X863976D01*
X861378Y518109D02*
X863976D01*
X861448Y517755D02*
X863976D01*
X861487Y517400D02*
X863976D01*
X861495Y517046D02*
X863976D01*
X861473Y516692D02*
X863976D01*
X861420Y516337D02*
X863976D01*
X861335Y515983D02*
X863976D01*
X861215Y515629D02*
X863976D01*
X861058Y515274D02*
X863976D01*
X860858Y514920D02*
X863976D01*
X860608Y514566D02*
X863976D01*
X860294Y514211D02*
X863976D01*
X859893Y513857D02*
X863976D01*
X859352Y513503D02*
X863976D01*
X858488Y513148D02*
X863976D01*
X821850Y512794D02*
X863976D01*
X821850Y512440D02*
X863976D01*
X821850Y512085D02*
X863976D01*
X821850Y511731D02*
X863976D01*
X821850Y511377D02*
X863976D01*
X858743Y511022D02*
X863976D01*
X859494Y510668D02*
X863976D01*
X859994Y510314D02*
X863976D01*
X860372Y509959D02*
X863976D01*
X860670Y509605D02*
X863976D01*
X860908Y509251D02*
X863976D01*
X861098Y508896D02*
X863976D01*
X861246Y508542D02*
X863976D01*
X861357Y508188D02*
X863976D01*
X861435Y507833D02*
X863976D01*
X861481Y507479D02*
X863976D01*
X861496Y507125D02*
X863976D01*
X861481Y506770D02*
X863976D01*
X861435Y506416D02*
X863976D01*
X861357Y506062D02*
X863976D01*
X861245Y505707D02*
X863976D01*
X861097Y505353D02*
X863976D01*
X860907Y504999D02*
X863976D01*
X860668Y504644D02*
X863976D01*
X860370Y504290D02*
X863976D01*
X859991Y503936D02*
X863976D01*
X859489Y503581D02*
X863976D01*
X858736Y503227D02*
X863976D01*
X845058Y502873D02*
X863976D01*
X844703Y502518D02*
X863976D01*
X844349Y502164D02*
X863976D01*
X843995Y501810D02*
X863976D01*
X843640Y501455D02*
X863976D01*
X858497Y501101D02*
X863976D01*
X859357Y500747D02*
X863976D01*
X859896Y500392D02*
X863976D01*
X860296Y500038D02*
X863976D01*
X860610Y499684D02*
X863976D01*
X860860Y499329D02*
X863976D01*
X861059Y498975D02*
X863976D01*
X861216Y498621D02*
X863976D01*
X861336Y498266D02*
X863976D01*
X861421Y497912D02*
X863976D01*
X861473Y497558D02*
X863976D01*
X861495Y497203D02*
X863976D01*
X861487Y496849D02*
X863976D01*
X861448Y496495D02*
X863976D01*
X861377Y496140D02*
X863976D01*
X861273Y495786D02*
X863976D01*
X861133Y495432D02*
X863976D01*
X860953Y495077D02*
X863976D01*
X860726Y494723D02*
X863976D01*
X860442Y494369D02*
X863976D01*
X860084Y494014D02*
X863976D01*
X859615Y493660D02*
X863976D01*
X858942Y493306D02*
X863976D01*
X851427Y492951D02*
X863976D01*
X851073Y492597D02*
X863976D01*
X850718Y492243D02*
X863976D01*
X850364Y491888D02*
X863976D01*
X849951Y491534D02*
X863976D01*
X858172Y491180D02*
X863976D01*
X859207Y490825D02*
X863976D01*
X859791Y490471D02*
X863976D01*
X860216Y490117D02*
X863976D01*
X860546Y489762D02*
X863976D01*
X860809Y489408D02*
X863976D01*
X861019Y489054D02*
X863976D01*
X861185Y488699D02*
X863976D01*
X861312Y488345D02*
X863976D01*
X861405Y487991D02*
X863976D01*
X861464Y487637D02*
X863976D01*
X861493Y487282D02*
X863976D01*
X861491Y486928D02*
X863976D01*
X861459Y486574D02*
X863976D01*
X861395Y486219D02*
X863976D01*
X861299Y485865D02*
X863976D01*
X861167Y485511D02*
X863976D01*
X860997Y485156D02*
X863976D01*
X860781Y484802D02*
X863976D01*
X860511Y484448D02*
X863976D01*
X860171Y484093D02*
X863976D01*
X859732Y483739D02*
X863976D01*
X859120Y483385D02*
X863976D01*
X857922Y483030D02*
X863976D01*
X813564Y482676D02*
X863976D01*
X813919Y482322D02*
X863976D01*
X814273Y481967D02*
X863976D01*
X814627Y481613D02*
X863976D01*
X857466Y481259D02*
X863976D01*
X859040Y480904D02*
X863976D01*
X859679Y480550D02*
X863976D01*
X860131Y480196D02*
X863976D01*
X860479Y479841D02*
X863976D01*
X860756Y479487D02*
X863976D01*
X860976Y479133D02*
X863976D01*
X861152Y478778D02*
X863976D01*
X861287Y478424D02*
X863976D01*
X861387Y478070D02*
X863976D01*
X861454Y477715D02*
X863976D01*
X861489Y477361D02*
X863976D01*
X861494Y477007D02*
X863976D01*
X861469Y476652D02*
X863976D01*
X861412Y476298D02*
X863976D01*
X861323Y475944D02*
X863976D01*
X861200Y475589D02*
X863976D01*
X861038Y475235D02*
X863976D01*
X860833Y474881D02*
X863976D01*
X860576Y474526D02*
X863976D01*
X860254Y474172D02*
X863976D01*
X859841Y473818D02*
X863976D01*
X859279Y473463D02*
X863976D01*
X858338Y473109D02*
X863976D01*
X818898Y472755D02*
X863976D01*
X818898Y472400D02*
X863976D01*
X818898Y472046D02*
X863976D01*
X818898Y471692D02*
X863976D01*
X818898Y471337D02*
X863976D01*
X858850Y470983D02*
X863976D01*
X859558Y470629D02*
X863976D01*
X860041Y470274D02*
X863976D01*
X860409Y469920D02*
X863976D01*
X860699Y469566D02*
X863976D01*
X860932Y469211D02*
X863976D01*
X861116Y468857D02*
X863976D01*
X861260Y468503D02*
X863976D01*
X861368Y468148D02*
X863976D01*
X861442Y467794D02*
X863976D01*
X861484Y467440D02*
X863976D01*
X861496Y467085D02*
X863976D01*
X861477Y466731D02*
X863976D01*
X861428Y466377D02*
X863976D01*
X861346Y466022D02*
X863976D01*
X861230Y465668D02*
X863976D01*
X861078Y465314D02*
X863976D01*
X860883Y464959D02*
X863976D01*
X860638Y464605D02*
X863976D01*
X860332Y464251D02*
X863976D01*
X859943Y463896D02*
X863976D01*
X859422Y463542D02*
X863976D01*
X858619Y463188D02*
X863976D01*
X818898Y462833D02*
X863976D01*
X818898Y462479D02*
X863976D01*
X818898Y462125D02*
X863976D01*
X818898Y461770D02*
X863976D01*
X818898Y461416D02*
X863976D01*
X858627Y461062D02*
X863976D01*
X859427Y460707D02*
X863976D01*
X859946Y460353D02*
X863976D01*
X860335Y459999D02*
X863976D01*
X860640Y459644D02*
X863976D01*
X860884Y459290D02*
X863976D01*
X861079Y458936D02*
X863976D01*
X861231Y458581D02*
X863976D01*
X861347Y458227D02*
X863976D01*
X861428Y457873D02*
X863976D01*
X861477Y457518D02*
X863976D01*
X861496Y457164D02*
X863976D01*
X861484Y456810D02*
X863976D01*
X861441Y456455D02*
X863976D01*
X861367Y456101D02*
X863976D01*
X861259Y455747D02*
X863976D01*
X861115Y455392D02*
X863976D01*
X860930Y455038D02*
X863976D01*
X860698Y454684D02*
X863976D01*
X860407Y454329D02*
X863976D01*
X860038Y453975D02*
X863976D01*
X859554Y453621D02*
X863976D01*
X858843Y453266D02*
X863976D01*
X818898Y452912D02*
X863976D01*
X818898Y452558D02*
X863976D01*
X818898Y452203D02*
X863976D01*
X818898Y451849D02*
X863976D01*
X818898Y451495D02*
X863976D01*
X858349Y451140D02*
X863976D01*
X859284Y450786D02*
X863976D01*
X859844Y450432D02*
X863976D01*
X860257Y450077D02*
X863976D01*
X860578Y449723D02*
X863976D01*
X860835Y449369D02*
X863976D01*
X861040Y449014D02*
X863976D01*
X861201Y448660D02*
X863976D01*
X861324Y448306D02*
X863976D01*
X861413Y447951D02*
X863976D01*
X861469Y447597D02*
X863976D01*
X861494Y447243D02*
X863976D01*
X861489Y446888D02*
X863976D01*
X861453Y446534D02*
X863976D01*
X861386Y446180D02*
X863976D01*
X861286Y445825D02*
X863976D01*
X861150Y445471D02*
X863976D01*
X860975Y445117D02*
X863976D01*
X860754Y444762D02*
X863976D01*
X860477Y444408D02*
X863976D01*
X860128Y444054D02*
X863976D01*
X859675Y443699D02*
X863976D01*
X859034Y443345D02*
X863976D01*
X818898Y442991D02*
X863976D01*
X818898Y442637D02*
X863976D01*
X818898Y442282D02*
X863976D01*
X818898Y441928D02*
X863976D01*
X818898Y441574D02*
X863976D01*
X857941Y441219D02*
X863976D01*
X859126Y440865D02*
X863976D01*
X859736Y440511D02*
X863976D01*
X860174Y440156D02*
X863976D01*
X860513Y439802D02*
X863976D01*
X860783Y439448D02*
X863976D01*
X860998Y439093D02*
X863976D01*
X861168Y438739D02*
X863976D01*
X861300Y438385D02*
X863976D01*
X861396Y438030D02*
X863976D01*
X861459Y437676D02*
X863976D01*
X861491Y437322D02*
X863976D01*
X861493Y436967D02*
X863976D01*
X861464Y436613D02*
X863976D01*
X861404Y436259D02*
X863976D01*
X861311Y435904D02*
X863976D01*
X861184Y435550D02*
X863976D01*
X861018Y435196D02*
X863976D01*
X860807Y434841D02*
X863976D01*
X860544Y434487D02*
X863976D01*
X860213Y434133D02*
X863976D01*
X859787Y433778D02*
X863976D01*
X859202Y433424D02*
X863976D01*
X858159Y433070D02*
X863976D01*
X818898Y432715D02*
X863976D01*
X818898Y432361D02*
X863976D01*
X818898Y432007D02*
X863976D01*
X818898Y431652D02*
X863976D01*
X818898Y431298D02*
X863976D01*
X861235Y430944D02*
X863976D01*
X861445Y430589D02*
X863976D01*
X861496Y430235D02*
X863976D01*
X861496Y429881D02*
X863976D01*
X861496Y429526D02*
X863976D01*
X861496Y429172D02*
X863976D01*
X861496Y428818D02*
X863976D01*
X861496Y428463D02*
X863976D01*
X861496Y428109D02*
X863976D01*
X861496Y427755D02*
X863976D01*
X861496Y427400D02*
X863976D01*
X861496Y427046D02*
X863976D01*
X861496Y426692D02*
X863976D01*
X861496Y426337D02*
X863976D01*
X861496Y425983D02*
X863976D01*
X861496Y425629D02*
X863976D01*
X861496Y425274D02*
X863976D01*
X861496Y424920D02*
X863976D01*
X861496Y424566D02*
X863976D01*
X861496Y424211D02*
X863976D01*
X861489Y423857D02*
X863976D01*
X861375Y423503D02*
X863976D01*
X861044Y423148D02*
X863976D01*
X818898Y422794D02*
X863976D01*
X818898Y422440D02*
X863976D01*
X818898Y422085D02*
X863976D01*
X818898Y421731D02*
X863976D01*
X818898Y421377D02*
X863976D01*
X818898Y421022D02*
X863976D01*
X818898Y420668D02*
X863976D01*
X818898Y420314D02*
X863976D01*
X818898Y419959D02*
X863976D01*
X818898Y419605D02*
X863976D01*
X818898Y419251D02*
X863976D01*
X818898Y418896D02*
X863976D01*
X818898Y418542D02*
X863976D01*
X818898Y418188D02*
X863976D01*
X818898Y417833D02*
X863976D01*
X818898Y417479D02*
X863976D01*
X818898Y417125D02*
X863976D01*
X818898Y416770D02*
X863976D01*
X818898Y416416D02*
X863976D01*
X818898Y416062D02*
X863976D01*
X818898Y415707D02*
X863976D01*
X818898Y415353D02*
X863976D01*
X818898Y414999D02*
X863976D01*
X818898Y414644D02*
X863976D01*
X818898Y414290D02*
X863976D01*
X818898Y413936D02*
X863976D01*
X818898Y413581D02*
X863976D01*
X818898Y413227D02*
X863976D01*
X818898Y412873D02*
X863976D01*
X818898Y412518D02*
X863976D01*
X818898Y412164D02*
X863976D01*
X818898Y411810D02*
X863976D01*
X818898Y411455D02*
X863976D01*
X818898Y411101D02*
X863976D01*
X818898Y410747D02*
X863976D01*
X818898Y410392D02*
X863976D01*
X818898Y410038D02*
X863976D01*
X818898Y409684D02*
X863976D01*
X840123Y409329D02*
X863976D01*
X840870Y408975D02*
X863976D01*
X841383Y408621D02*
X863976D01*
X841776Y408266D02*
X863976D01*
X842090Y407912D02*
X863976D01*
X842345Y407558D02*
X863976D01*
X842553Y407203D02*
X863976D01*
X842719Y406849D02*
X863976D01*
X842850Y406495D02*
X863976D01*
X842949Y406140D02*
X863976D01*
X843017Y405786D02*
X863976D01*
X843056Y405432D02*
X863976D01*
X843067Y405077D02*
X863976D01*
X843050Y404723D02*
X863976D01*
X843004Y404369D02*
X863976D01*
X842929Y404014D02*
X863976D01*
X842823Y403660D02*
X863976D01*
X842684Y403306D02*
X863976D01*
X842509Y402951D02*
X863976D01*
X842291Y402597D02*
X863976D01*
X842024Y402243D02*
X863976D01*
X841694Y401888D02*
X863976D01*
X841278Y401534D02*
X863976D01*
X840727Y401180D02*
X863976D01*
X839880Y400825D02*
X863976D01*
X818311Y400471D02*
X863976D01*
X818024Y400117D02*
X863976D01*
X817581Y399762D02*
X863976D01*
X809821Y399408D02*
X863976D01*
X809431Y399054D02*
X863976D01*
X716063Y398699D02*
X863976D01*
X715313Y398345D02*
X863976D01*
X557283Y397991D02*
X863976D01*
X557283Y397637D02*
X863976D01*
X557283Y397282D02*
X863976D01*
X557283Y396928D02*
X863976D01*
X557283Y396574D02*
X863976D01*
X557283Y396219D02*
X863976D01*
X545488Y588266D02*
X863960D01*
X847466Y481259D02*
X857258D01*
X847922Y483030D02*
X856802D01*
X847941Y531219D02*
X856784D01*
X847941Y441219D02*
X856784D01*
X848159Y523070D02*
X856566D01*
X848159Y433070D02*
X856566D01*
X848791Y491180D02*
X856553D01*
X848338Y473109D02*
X856386D01*
X853267Y541140D02*
X856376D01*
X848349Y451140D02*
X856376D01*
X848488Y513148D02*
X856237D01*
X848497Y501101D02*
X856227D01*
X848619Y553188D02*
X856106D01*
X848619Y463188D02*
X856106D01*
X848627Y551062D02*
X856098D01*
X848627Y461062D02*
X856098D01*
X848736Y503227D02*
X855988D01*
X848743Y511022D02*
X855981D01*
X855451Y543266D02*
X855881D01*
X848843Y453266D02*
X855881D01*
X848850Y560983D02*
X855875D01*
X848850Y470983D02*
X855875D01*
X851781Y493306D02*
X855783D01*
X848948Y520944D02*
X855776D01*
X849034Y533345D02*
X855691D01*
X849034Y443345D02*
X855691D01*
X849040Y480904D02*
X855685D01*
X849120Y483385D02*
X855604D01*
X849126Y530865D02*
X855599D01*
X849126Y440865D02*
X855599D01*
X849202Y523424D02*
X855523D01*
X849202Y433424D02*
X855523D01*
X849207Y490825D02*
X855518D01*
X849279Y473463D02*
X855446D01*
X849543Y540786D02*
X855441D01*
X849284Y450786D02*
X855441D01*
X849352Y513503D02*
X855372D01*
X849357Y500747D02*
X855367D01*
X849422Y553542D02*
X855302D01*
X849422Y463542D02*
X855302D01*
X849427Y550707D02*
X855298D01*
X849427Y460707D02*
X855298D01*
X849489Y503581D02*
X855235D01*
X849494Y510668D02*
X855231D01*
X849554Y453621D02*
X855171D01*
X849558Y560629D02*
X855167D01*
X849558Y470629D02*
X855167D01*
X852136Y493660D02*
X855109D01*
X849619Y520589D02*
X855105D01*
X849675Y533699D02*
X855050D01*
X849675Y443699D02*
X855050D01*
X849679Y480550D02*
X855046D01*
X849732Y483739D02*
X854992D01*
X849736Y530511D02*
X854989D01*
X849736Y440511D02*
X854989D01*
X849787Y523778D02*
X854937D01*
X849787Y433778D02*
X854937D01*
X849791Y490471D02*
X854933D01*
X849841Y473818D02*
X854884D01*
X849844Y540432D02*
X854880D01*
X849844Y450432D02*
X854880D01*
X849893Y513857D02*
X854832D01*
X849896Y500392D02*
X854829D01*
X849943Y553896D02*
X854782D01*
X849943Y463896D02*
X854782D01*
X849946Y550353D02*
X854779D01*
X849946Y460353D02*
X854779D01*
X849991Y503936D02*
X854733D01*
X849994Y510314D02*
X854730D01*
X850038Y453975D02*
X854686D01*
X850041Y560274D02*
X854683D01*
X850041Y470274D02*
X854683D01*
X852490Y494014D02*
X854641D01*
X850087Y520235D02*
X854638D01*
X850128Y534054D02*
X854596D01*
X850128Y444054D02*
X854596D01*
X850131Y480196D02*
X854593D01*
X850171Y484093D02*
X854553D01*
X850174Y530156D02*
X854550D01*
X850174Y440156D02*
X854550D01*
X850213Y524133D02*
X854511D01*
X850213Y434133D02*
X854511D01*
X850216Y490117D02*
X854508D01*
X850254Y474172D02*
X854470D01*
X850257Y540077D02*
X854468D01*
X850257Y450077D02*
X854468D01*
X850294Y514211D02*
X854431D01*
X850296Y500038D02*
X854428D01*
X850332Y554251D02*
X854392D01*
X850332Y464251D02*
X854392D01*
X850335Y549999D02*
X854390D01*
X850335Y459999D02*
X854390D01*
X850370Y504290D02*
X854354D01*
X850372Y509959D02*
X854352D01*
X850407Y454329D02*
X854318D01*
X850409Y559920D02*
X854315D01*
X850409Y469920D02*
X854315D01*
X852844Y494369D02*
X854282D01*
X850445Y519881D02*
X854280D01*
X850477Y534408D02*
X854247D01*
X850477Y444408D02*
X854247D01*
X850479Y479841D02*
X854245D01*
X850511Y484448D02*
X854213D01*
X850513Y529802D02*
X854211D01*
X850513Y439802D02*
X854211D01*
X850544Y524487D02*
X854180D01*
X850544Y434487D02*
X854180D01*
X850546Y489762D02*
X854178D01*
X850576Y474526D02*
X854148D01*
X850578Y539723D02*
X854146D01*
X850578Y449723D02*
X854146D01*
X850608Y514566D02*
X854117D01*
X850610Y499684D02*
X854115D01*
X850638Y554605D02*
X854086D01*
X850638Y464605D02*
X854086D01*
X850640Y549644D02*
X854084D01*
X850640Y459644D02*
X854084D01*
X850668Y504644D02*
X854056D01*
X850670Y509605D02*
X854054D01*
X850698Y454684D02*
X854027D01*
X850699Y559566D02*
X854025D01*
X850699Y469566D02*
X854025D01*
X853199Y494723D02*
X853998D01*
X850728Y519526D02*
X853997D01*
X850754Y534762D02*
X853971D01*
X850754Y444762D02*
X853971D01*
X850756Y479487D02*
X853969D01*
X850781Y484802D02*
X853944D01*
X850783Y529448D02*
X853942D01*
X850783Y439448D02*
X853942D01*
X850807Y524841D02*
X853917D01*
X850807Y434841D02*
X853917D01*
X850809Y489408D02*
X853915D01*
X850833Y474881D02*
X853891D01*
X850835Y539369D02*
X853890D01*
X850835Y449369D02*
X853890D01*
X850858Y514920D02*
X853866D01*
X850860Y499329D02*
X853865D01*
X850883Y554959D02*
X853842D01*
X850883Y464959D02*
X853842D01*
X850884Y549290D02*
X853840D01*
X850884Y459290D02*
X853840D01*
X850907Y504999D02*
X853818D01*
X850908Y509251D02*
X853816D01*
X850930Y455038D02*
X853794D01*
X850932Y559211D02*
X853793D01*
X850932Y469211D02*
X853793D01*
X850954Y519172D02*
X853770D01*
X850975Y535117D02*
X853749D01*
X850975Y445117D02*
X853749D01*
X850976Y479133D02*
X853748D01*
X850997Y485156D02*
X853728D01*
X850998Y529093D02*
X853726D01*
X850998Y439093D02*
X853726D01*
X853574Y495077D02*
X853726D01*
X851018Y525196D02*
X853707D01*
X851018Y435196D02*
X853707D01*
X851019Y489054D02*
X853705D01*
X851038Y475235D02*
X853686D01*
X851040Y539014D02*
X853685D01*
X851040Y449014D02*
X853685D01*
X848488Y423148D02*
X853681D01*
X851058Y515274D02*
X853666D01*
X851059Y498975D02*
X853665D01*
X851078Y555314D02*
X853647D01*
X851078Y465314D02*
X853647D01*
X851079Y548936D02*
X853646D01*
X851079Y458936D02*
X853646D01*
X851097Y505353D02*
X853628D01*
X851098Y508896D02*
X853627D01*
X851115Y455392D02*
X853609D01*
X851116Y558857D02*
X853608D01*
X851116Y468857D02*
X853608D01*
X851115Y545392D02*
X853593D01*
X851134Y518818D02*
X853590D01*
X851150Y535471D02*
X853574D01*
X851150Y445471D02*
X853574D01*
X851152Y478778D02*
X853573D01*
X851167Y485511D02*
X853557D01*
X851168Y528739D02*
X853556D01*
X851168Y438739D02*
X853556D01*
X851184Y525550D02*
X853541D01*
X851184Y435550D02*
X853541D01*
X851185Y488699D02*
X853540D01*
X851200Y475589D02*
X853525D01*
X851201Y538660D02*
X853524D01*
X851201Y448660D02*
X853524D01*
X851215Y515629D02*
X853509D01*
X851216Y498621D02*
X853508D01*
X851230Y555668D02*
X853494D01*
X851230Y465668D02*
X853494D01*
X851231Y548581D02*
X853493D01*
X851231Y458581D02*
X853493D01*
X848948Y430944D02*
X853490D01*
X851245Y505707D02*
X853479D01*
X851246Y508542D02*
X853478D01*
X851259Y545747D02*
X853465D01*
X851259Y455747D02*
X853465D01*
X851260Y558503D02*
X853464D01*
X851260Y468503D02*
X853464D01*
X851274Y518463D02*
X853451D01*
X851286Y535825D02*
X853438D01*
X851286Y445825D02*
X853438D01*
X851287Y478424D02*
X853437D01*
X851299Y485865D02*
X853425D01*
X851300Y528385D02*
X853425D01*
X851300Y438385D02*
X853425D01*
X851311Y525904D02*
X853413D01*
X851311Y435904D02*
X853413D01*
X851312Y488345D02*
X853412D01*
X851323Y475944D02*
X853401D01*
X851324Y538306D02*
X853400D01*
X851324Y448306D02*
X853400D01*
X851335Y515983D02*
X853389D01*
X851346Y556022D02*
X853378D01*
X851346Y466022D02*
X853378D01*
X851347Y548227D02*
X853378D01*
X851347Y458227D02*
X853378D01*
X851357Y506062D02*
X853368D01*
X851357Y508188D02*
X853367D01*
X851367Y546101D02*
X853357D01*
X851367Y456101D02*
X853357D01*
X851368Y558148D02*
X853357D01*
X851368Y468148D02*
X853357D01*
X849352Y423503D02*
X853350D01*
X851378Y518109D02*
X853347D01*
X851386Y536180D02*
X853338D01*
X851386Y446180D02*
X853338D01*
X851387Y478070D02*
X853337D01*
X851395Y486219D02*
X853329D01*
X851396Y528030D02*
X853328D01*
X851396Y438030D02*
X853328D01*
X850930Y545038D02*
X853326D01*
X851404Y526259D02*
X853320D01*
X851404Y436259D02*
X853320D01*
X851405Y487991D02*
X853320D01*
X851412Y476298D02*
X853312D01*
X851413Y537951D02*
X853312D01*
X851413Y447951D02*
X853312D01*
X851420Y516337D02*
X853304D01*
X851428Y556377D02*
X853297D01*
X851428Y466377D02*
X853297D01*
X851428Y547873D02*
X853296D01*
X851428Y457873D02*
X853296D01*
X851435Y506416D02*
X853290D01*
X851435Y507833D02*
X853289D01*
X851441Y546455D02*
X853283D01*
X851441Y456455D02*
X853283D01*
X851442Y557794D02*
X853283D01*
X851442Y467794D02*
X853283D01*
X849619Y430589D02*
X853280D01*
X851448Y517755D02*
X853276D01*
X851453Y536534D02*
X853271D01*
X851453Y446534D02*
X853271D01*
X851454Y477715D02*
X853271D01*
X851459Y486574D02*
X853265D01*
X851459Y527676D02*
X853265D01*
X851459Y437676D02*
X853265D01*
X851464Y526613D02*
X853260D01*
X851464Y436613D02*
X853260D01*
X851464Y487637D02*
X853260D01*
X851469Y476652D02*
X853256D01*
X851469Y537597D02*
X853255D01*
X851469Y447597D02*
X853255D01*
X851473Y516692D02*
X853251D01*
X851477Y556731D02*
X853247D01*
X851477Y466731D02*
X853247D01*
X851477Y547518D02*
X853247D01*
X851477Y457518D02*
X853247D01*
X851481Y506770D02*
X853244D01*
X851481Y507479D02*
X853243D01*
X851484Y546810D02*
X853240D01*
X851484Y456810D02*
X853240D01*
X851484Y557440D02*
X853240D01*
X851484Y467440D02*
X853240D01*
X851487Y517400D02*
X853237D01*
X849893Y423857D02*
X853236D01*
X851489Y536888D02*
X853235D01*
X851489Y446888D02*
X853235D01*
X851489Y477361D02*
X853235D01*
X851491Y486928D02*
X853233D01*
X851491Y527322D02*
X853233D01*
X851491Y437322D02*
X853233D01*
X851493Y526967D02*
X853231D01*
X851493Y436967D02*
X853231D01*
X851493Y487282D02*
X853231D01*
X851494Y477007D02*
X853230D01*
X851494Y537243D02*
X853230D01*
X851494Y447243D02*
X853230D01*
X851495Y517046D02*
X853229D01*
X851496Y557085D02*
X853229D01*
X851496Y467085D02*
X853229D01*
X851496Y547164D02*
X853229D01*
X851496Y457164D02*
X853229D01*
X851496Y507125D02*
X853228D01*
X850087Y430235D02*
X853228D01*
X850445Y429881D02*
X853228D01*
X850728Y429526D02*
X853228D01*
X850954Y429172D02*
X853228D01*
X851134Y428818D02*
X853228D01*
X851274Y428463D02*
X853228D01*
X851378Y428109D02*
X853228D01*
X851448Y427755D02*
X853228D01*
X851487Y427400D02*
X853228D01*
X851495Y427046D02*
X853228D01*
X851473Y426692D02*
X853228D01*
X851420Y426337D02*
X853228D01*
X851335Y425983D02*
X853228D01*
X851215Y425629D02*
X853228D01*
X851058Y425274D02*
X853228D01*
X850858Y424920D02*
X853228D01*
X850608Y424566D02*
X853228D01*
X850294Y424211D02*
X853228D01*
X850698Y544684D02*
X852971D01*
X851336Y498266D02*
X852879D01*
X850407Y544329D02*
X852617D01*
X851421Y497912D02*
X852490D01*
X850068Y543975D02*
X852263D01*
X851473Y497558D02*
X852136D01*
X851610Y497203D02*
X851760D01*
X814982Y481259D02*
X847258D01*
X813210Y483030D02*
X846802D01*
X836024Y531219D02*
X846784D01*
X818898Y441219D02*
X846784D01*
X836024Y523070D02*
X846566D01*
X818898Y433070D02*
X846566D01*
X818898Y473109D02*
X846386D01*
X818898Y451140D02*
X846376D01*
X835490Y513148D02*
X846237D01*
X818898Y423148D02*
X846237D01*
X843286Y501101D02*
X846227D01*
X828676Y553188D02*
X846106D01*
X818898Y463188D02*
X846106D01*
X830802Y551062D02*
X846098D01*
X818898Y461062D02*
X846098D01*
X845412Y503227D02*
X845988D01*
X821850Y511022D02*
X845981D01*
X796175Y491180D02*
X845934D01*
X818898Y453266D02*
X845881D01*
X820881Y560983D02*
X845875D01*
X818898Y470983D02*
X845875D01*
X836024Y520944D02*
X845776D01*
X818898Y430944D02*
X845776D01*
X836024Y533345D02*
X845691D01*
X818898Y443345D02*
X845691D01*
X815336Y480904D02*
X845685D01*
X812856Y483385D02*
X845604D01*
X836024Y530865D02*
X845599D01*
X818898Y440865D02*
X845599D01*
X836024Y523424D02*
X845523D01*
X818898Y433424D02*
X845523D01*
X796244Y490825D02*
X845518D01*
X818898Y473463D02*
X845446D01*
X818898Y450786D02*
X845441D01*
X836112Y513503D02*
X845372D01*
X818898Y423503D02*
X845372D01*
X842932Y500747D02*
X845367D01*
X828322Y553542D02*
X845302D01*
X818898Y463542D02*
X845302D01*
X831157Y550707D02*
X845298D01*
X818898Y460707D02*
X845298D01*
X821850Y510668D02*
X845231D01*
X843526Y540786D02*
X845181D01*
X818898Y453621D02*
X845171D01*
X821235Y560629D02*
X845167D01*
X818898Y470629D02*
X845167D01*
X836024Y520589D02*
X845105D01*
X818898Y430589D02*
X845105D01*
X836024Y533699D02*
X845050D01*
X818898Y443699D02*
X845050D01*
X815690Y480550D02*
X845046D01*
X812501Y483739D02*
X844992D01*
X836024Y530511D02*
X844989D01*
X818898Y440511D02*
X844989D01*
X836024Y523778D02*
X844937D01*
X818898Y433778D02*
X844937D01*
X796259Y490471D02*
X844933D01*
X818898Y473818D02*
X844884D01*
X843148Y540432D02*
X844880D01*
X818898Y450432D02*
X844880D01*
X836473Y513857D02*
X844832D01*
X818898Y423857D02*
X844832D01*
X842577Y500392D02*
X844829D01*
X827968Y553896D02*
X844782D01*
X818898Y463896D02*
X844782D01*
X831511Y550353D02*
X844779D01*
X818898Y460353D02*
X844779D01*
X821850Y510314D02*
X844730D01*
X818898Y453975D02*
X844686D01*
X821590Y560274D02*
X844683D01*
X818898Y470274D02*
X844683D01*
X843421Y543975D02*
X844656D01*
X836024Y520235D02*
X844638D01*
X818898Y430235D02*
X844638D01*
X836024Y534054D02*
X844596D01*
X818898Y444054D02*
X844596D01*
X816045Y480196D02*
X844593D01*
X812147Y484093D02*
X844553D01*
X836024Y530156D02*
X844550D01*
X818898Y440156D02*
X844550D01*
X836024Y524133D02*
X844511D01*
X818898Y434133D02*
X844511D01*
X801618Y490117D02*
X844508D01*
X833526Y474172D02*
X844470D01*
X842466Y540077D02*
X844468D01*
X818898Y450077D02*
X844468D01*
X836713Y514211D02*
X844431D01*
X818898Y424211D02*
X844431D01*
X842223Y500038D02*
X844428D01*
X827613Y554251D02*
X844392D01*
X818898Y464251D02*
X844392D01*
X831865Y549999D02*
X844390D01*
X818898Y459999D02*
X844390D01*
X821850Y509959D02*
X844352D01*
X818898Y454329D02*
X844318D01*
X842979Y544329D02*
X844318D01*
X821944Y559920D02*
X844315D01*
X818898Y469920D02*
X844315D01*
X836024Y519881D02*
X844280D01*
X818898Y429881D02*
X844280D01*
X836574Y494369D02*
X844269D01*
X836024Y534408D02*
X844247D01*
X818898Y444408D02*
X844247D01*
X816399Y479841D02*
X844245D01*
X811792Y484448D02*
X844213D01*
X836024Y529802D02*
X844211D01*
X818898Y439802D02*
X844211D01*
X836024Y524487D02*
X844180D01*
X818898Y434487D02*
X844180D01*
X802489Y489762D02*
X844178D01*
X833969Y474526D02*
X844148D01*
X836024Y539723D02*
X844146D01*
X818898Y449723D02*
X844146D01*
X836872Y514566D02*
X844117D01*
X818898Y424566D02*
X844117D01*
X841869Y499684D02*
X844115D01*
X827259Y554605D02*
X844086D01*
X818898Y464605D02*
X844086D01*
X832220Y549644D02*
X844084D01*
X818898Y459644D02*
X844084D01*
X821850Y509605D02*
X844054D01*
X841811Y544684D02*
X844027D01*
X818898Y454684D02*
X844027D01*
X822298Y559566D02*
X844025D01*
X818898Y469566D02*
X844025D01*
X836908Y494723D02*
X843998D01*
X836024Y519526D02*
X843997D01*
X818898Y429526D02*
X843997D01*
X836024Y534762D02*
X843971D01*
X818898Y444762D02*
X843971D01*
X816753Y479487D02*
X843969D01*
X811159Y484802D02*
X843944D01*
X836024Y529448D02*
X843942D01*
X818898Y439448D02*
X843942D01*
X836024Y524841D02*
X843917D01*
X818898Y434841D02*
X843917D01*
X802907Y489408D02*
X843915D01*
X834255Y474881D02*
X843891D01*
X836024Y539369D02*
X843890D01*
X818898Y449369D02*
X843890D01*
X836968Y514920D02*
X843866D01*
X818898Y424920D02*
X843866D01*
X841514Y499329D02*
X843865D01*
X826905Y554959D02*
X843842D01*
X818898Y464959D02*
X843842D01*
X832574Y549290D02*
X843840D01*
X818898Y459290D02*
X843840D01*
X821850Y509251D02*
X843816D01*
X836024Y545038D02*
X843794D01*
X818898Y455038D02*
X843794D01*
X822653Y559211D02*
X843793D01*
X818898Y469211D02*
X843793D01*
X837262Y495077D02*
X843772D01*
X836024Y519172D02*
X843770D01*
X818898Y429172D02*
X843770D01*
X836024Y535117D02*
X843749D01*
X818898Y445117D02*
X843749D01*
X817108Y479133D02*
X843748D01*
X801056Y485156D02*
X843728D01*
X836024Y529093D02*
X843726D01*
X818898Y439093D02*
X843726D01*
X836024Y525196D02*
X843707D01*
X818898Y435196D02*
X843707D01*
X803180Y489054D02*
X843705D01*
X834448Y475235D02*
X843686D01*
X836024Y539014D02*
X843685D01*
X818898Y449014D02*
X843685D01*
X837007Y515274D02*
X843666D01*
X818898Y425274D02*
X843666D01*
X841160Y498975D02*
X843665D01*
X826550Y555314D02*
X843647D01*
X818898Y465314D02*
X843647D01*
X832928Y548936D02*
X843646D01*
X818898Y458936D02*
X843646D01*
X821850Y508896D02*
X843627D01*
X818898Y455392D02*
X843609D01*
X836018Y545392D02*
X843609D01*
X823007Y558857D02*
X843608D01*
X818898Y468857D02*
X843608D01*
X837617Y495432D02*
X843591D01*
X836024Y518818D02*
X843590D01*
X818898Y428818D02*
X843590D01*
X821850Y505353D02*
X843590D01*
X836024Y535471D02*
X843574D01*
X818898Y445471D02*
X843574D01*
X817462Y478778D02*
X843573D01*
X801781Y485511D02*
X843557D01*
X836024Y528739D02*
X843556D01*
X818898Y438739D02*
X843556D01*
X836024Y525550D02*
X843541D01*
X818898Y435550D02*
X843541D01*
X803363Y488699D02*
X843540D01*
X834570Y475589D02*
X843525D01*
X836024Y538660D02*
X843524D01*
X818898Y448660D02*
X843524D01*
X836992Y515629D02*
X843509D01*
X818898Y425629D02*
X843509D01*
X840806Y498621D02*
X843508D01*
X826196Y555668D02*
X843494D01*
X818898Y465668D02*
X843494D01*
X833283Y548581D02*
X843493D01*
X818898Y458581D02*
X843493D01*
X821850Y505707D02*
X843479D01*
X821850Y508542D02*
X843478D01*
X835938Y545747D02*
X843465D01*
X818898Y455747D02*
X843465D01*
X823361Y558503D02*
X843464D01*
X818898Y468503D02*
X843464D01*
X837971Y495786D02*
X843451D01*
X836024Y518463D02*
X843451D01*
X818898Y428463D02*
X843451D01*
X836024Y535825D02*
X843438D01*
X818898Y445825D02*
X843438D01*
X833025Y478424D02*
X843437D01*
X802543Y485865D02*
X843425D01*
X836024Y528385D02*
X843425D01*
X818898Y438385D02*
X843425D01*
X836024Y525904D02*
X843413D01*
X818898Y435904D02*
X843413D01*
X803478Y488345D02*
X843412D01*
X834634Y475944D02*
X843401D01*
X836024Y538306D02*
X843400D01*
X818898Y448306D02*
X843400D01*
X836923Y515983D02*
X843389D01*
X818898Y425983D02*
X843389D01*
X840451Y498266D02*
X843389D01*
X825842Y556022D02*
X843378D01*
X818898Y466022D02*
X843378D01*
X833637Y548227D02*
X843378D01*
X818898Y458227D02*
X843378D01*
X821850Y506062D02*
X843368D01*
X821850Y508188D02*
X843367D01*
X835745Y546101D02*
X843357D01*
X818898Y456101D02*
X843357D01*
X823716Y558148D02*
X843357D01*
X818898Y468148D02*
X843357D01*
X838325Y496140D02*
X843348D01*
X836024Y518109D02*
X843347D01*
X818898Y428109D02*
X843347D01*
X836024Y536180D02*
X843338D01*
X818898Y446180D02*
X843338D01*
X833703Y478070D02*
X843337D01*
X802941Y486219D02*
X843329D01*
X836024Y528030D02*
X843328D01*
X818898Y438030D02*
X843328D01*
X836024Y526259D02*
X843320D01*
X818898Y436259D02*
X843320D01*
X803535Y487991D02*
X843320D01*
X834643Y476298D02*
X843312D01*
X836024Y537951D02*
X843312D01*
X818898Y447951D02*
X843312D01*
X836794Y516337D02*
X843304D01*
X818898Y426337D02*
X843304D01*
X840097Y497912D02*
X843304D01*
X825487Y556377D02*
X843297D01*
X818898Y466377D02*
X843297D01*
X833991Y547873D02*
X843296D01*
X818898Y457873D02*
X843296D01*
X821850Y506416D02*
X843290D01*
X821850Y507833D02*
X843289D01*
X821850Y504999D02*
X843286D01*
X818898Y456455D02*
X843283D01*
X835409Y546455D02*
X843283D01*
X824070Y557794D02*
X843283D01*
X818898Y467794D02*
X843283D01*
X838680Y496495D02*
X843277D01*
X836024Y517755D02*
X843276D01*
X818898Y427755D02*
X843276D01*
X836024Y536534D02*
X843271D01*
X818898Y446534D02*
X843271D01*
X834080Y477715D02*
X843271D01*
X803203Y486574D02*
X843265D01*
X836024Y527676D02*
X843265D01*
X818898Y437676D02*
X843265D01*
X836024Y526613D02*
X843260D01*
X818898Y436613D02*
X843260D01*
X803538Y487637D02*
X843260D01*
X834598Y476652D02*
X843256D01*
X836024Y537597D02*
X843255D01*
X818898Y447597D02*
X843255D01*
X836593Y516692D02*
X843251D01*
X818898Y426692D02*
X843251D01*
X839743Y497558D02*
X843251D01*
X825133Y556731D02*
X843247D01*
X818898Y466731D02*
X843247D01*
X834346Y547518D02*
X843247D01*
X818898Y457518D02*
X843247D01*
X821850Y506770D02*
X843244D01*
X821850Y507479D02*
X843243D01*
X835054Y546810D02*
X843240D01*
X818898Y456810D02*
X843240D01*
X824424Y557440D02*
X843240D01*
X818898Y467440D02*
X843240D01*
X839034Y496849D02*
X843238D01*
X836024Y517400D02*
X843237D01*
X818898Y427400D02*
X843237D01*
X836024Y536888D02*
X843235D01*
X818898Y446888D02*
X843235D01*
X834330Y477361D02*
X843235D01*
X803378Y486928D02*
X843233D01*
X836024Y527322D02*
X843233D01*
X818898Y437322D02*
X843233D01*
X836024Y526967D02*
X843231D01*
X818898Y436967D02*
X843231D01*
X803487Y487282D02*
X843231D01*
X834497Y477007D02*
X843230D01*
X836024Y537243D02*
X843230D01*
X818898Y447243D02*
X843230D01*
X836294Y517046D02*
X843229D01*
X818898Y427046D02*
X843229D01*
X839388Y497203D02*
X843229D01*
X824779Y557085D02*
X843229D01*
X818898Y467085D02*
X843229D01*
X834700Y547164D02*
X843229D01*
X818898Y457164D02*
X843229D01*
X821850Y507125D02*
X843228D01*
X821850Y504644D02*
X842932D01*
X821850Y504290D02*
X842578D01*
X821850Y503936D02*
X842223D01*
X821850Y503581D02*
X841869D01*
X836024Y544684D02*
X841654D01*
X821850Y503227D02*
X841515D01*
X821850Y502873D02*
X841160D01*
X836024Y540077D02*
X840999D01*
X821850Y502518D02*
X840806D01*
X836024Y544329D02*
X840486D01*
X822036Y502164D02*
X840452D01*
X836024Y540432D02*
X840317D01*
X822363Y501810D02*
X840097D01*
X836024Y543975D02*
X840044D01*
X836024Y540786D02*
X839938D01*
X836024Y543621D02*
X839759D01*
X822583Y501455D02*
X839743D01*
X836024Y541140D02*
X839687D01*
X836024Y543266D02*
X839567D01*
X836024Y541495D02*
X839520D01*
X836024Y542912D02*
X839445D01*
X836024Y541849D02*
X839418D01*
X822726Y501101D02*
X839389D01*
X836024Y542558D02*
X839382D01*
X836024Y542203D02*
X839373D01*
X822808Y500747D02*
X839034D01*
X822835Y500392D02*
X838680D01*
X822808Y500038D02*
X838326D01*
X822725Y499684D02*
X837971D01*
X822581Y499329D02*
X837617D01*
X818503Y400825D02*
X837286D01*
X822361Y498975D02*
X837263D01*
X818898Y409329D02*
X837042D01*
X822048Y498621D02*
X836908D01*
X822198Y498266D02*
X836554D01*
X818625Y401180D02*
X836438D01*
X818898Y408975D02*
X836295D01*
X822471Y497912D02*
X836200D01*
X818689Y401534D02*
X835888D01*
X822655Y497558D02*
X835845D01*
X818898Y408621D02*
X835783D01*
X822770Y497203D02*
X835491D01*
X818698Y401888D02*
X835472D01*
X818898Y408266D02*
X835389D01*
X818701Y402243D02*
X835142D01*
X822827Y496849D02*
X835137D01*
X818898Y407912D02*
X835075D01*
X818851Y402597D02*
X834874D01*
X818898Y407558D02*
X834820D01*
X822829Y496495D02*
X834782D01*
X818898Y402951D02*
X834657D01*
X818898Y407203D02*
X834613D01*
X818898Y403306D02*
X834481D01*
X818898Y406849D02*
X834446D01*
X822778Y496140D02*
X834428D01*
X818898Y403660D02*
X834342D01*
X818898Y406495D02*
X834315D01*
X818898Y404014D02*
X834236D01*
X818898Y406140D02*
X834216D01*
X818898Y404369D02*
X834161D01*
X818898Y405786D02*
X834148D01*
X818898Y404723D02*
X834116D01*
X818898Y405432D02*
X834109D01*
X818898Y405077D02*
X834099D01*
X822670Y495786D02*
X834074D01*
X831750Y513148D02*
X833801D01*
X832372Y513503D02*
X833179D01*
X817816Y478424D02*
X831542D01*
X818898Y474172D02*
X831041D01*
X818171Y478070D02*
X830864D01*
X818898Y474526D02*
X830598D01*
X818524Y477715D02*
X830487D01*
X818898Y474881D02*
X830311D01*
X818765Y477361D02*
X830237D01*
X818898Y475235D02*
X830119D01*
X818877Y477007D02*
X830070D01*
X828010Y513148D02*
X830061D01*
X818898Y475589D02*
X829997D01*
X818898Y476652D02*
X829969D01*
X818898Y475944D02*
X829933D01*
X818898Y476298D02*
X829924D01*
X828632Y513503D02*
X829439D01*
X824270Y513148D02*
X826321D01*
X824892Y513503D02*
X825699D01*
X821850Y513148D02*
X822580D01*
X813386Y475944D02*
X816142D01*
X813386Y475589D02*
X816142D01*
X813386Y475235D02*
X816142D01*
X813386Y474881D02*
X816142D01*
X813386Y474526D02*
X816142D01*
X813386Y474172D02*
X816142D01*
X813386Y473818D02*
X816142D01*
X813386Y473463D02*
X816142D01*
X813386Y473109D02*
X816142D01*
X813386Y472755D02*
X816142D01*
X813386Y472400D02*
X816142D01*
X813386Y472046D02*
X816142D01*
X813386Y471692D02*
X816142D01*
X813386Y471337D02*
X816142D01*
X813386Y470983D02*
X816142D01*
X813386Y470629D02*
X816142D01*
X813386Y470274D02*
X816142D01*
X813386Y469920D02*
X816142D01*
X813386Y469566D02*
X816142D01*
X813386Y469211D02*
X816142D01*
X813386Y468857D02*
X816142D01*
X813386Y468503D02*
X816142D01*
X813386Y468148D02*
X816142D01*
X813386Y467794D02*
X816142D01*
X813386Y467440D02*
X816142D01*
X813386Y467085D02*
X816142D01*
X813386Y466731D02*
X816142D01*
X813386Y466377D02*
X816142D01*
X813386Y466022D02*
X816142D01*
X813386Y465668D02*
X816142D01*
X813386Y465314D02*
X816142D01*
X813386Y464959D02*
X816142D01*
X813386Y464605D02*
X816142D01*
X813386Y464251D02*
X816142D01*
X813386Y463896D02*
X816142D01*
X813386Y463542D02*
X816142D01*
X813386Y463188D02*
X816142D01*
X813386Y462833D02*
X816142D01*
X813386Y462479D02*
X816142D01*
X813386Y462125D02*
X816142D01*
X813386Y461770D02*
X816142D01*
X813386Y461416D02*
X816142D01*
X813386Y461062D02*
X816142D01*
X813386Y460707D02*
X816142D01*
X813386Y460353D02*
X816142D01*
X813386Y459999D02*
X816142D01*
X813386Y459644D02*
X816142D01*
X813386Y459290D02*
X816142D01*
X813386Y458936D02*
X816142D01*
X813386Y458581D02*
X816142D01*
X813386Y458227D02*
X816142D01*
X813386Y457873D02*
X816142D01*
X813386Y457518D02*
X816142D01*
X813386Y457164D02*
X816142D01*
X813386Y456810D02*
X816142D01*
X813386Y456455D02*
X816142D01*
X813386Y456101D02*
X816142D01*
X813386Y455747D02*
X816142D01*
X813386Y455392D02*
X816142D01*
X813386Y455038D02*
X816142D01*
X813386Y454684D02*
X816142D01*
X813386Y454329D02*
X816142D01*
X813386Y453975D02*
X816142D01*
X813386Y453621D02*
X816142D01*
X813386Y453266D02*
X816142D01*
X813386Y452912D02*
X816142D01*
X813386Y452558D02*
X816142D01*
X813386Y452203D02*
X816142D01*
X813386Y451849D02*
X816142D01*
X813386Y451495D02*
X816142D01*
X813386Y451140D02*
X816142D01*
X813386Y450786D02*
X816142D01*
X813386Y450432D02*
X816142D01*
X813386Y450077D02*
X816142D01*
X813386Y449723D02*
X816142D01*
X813386Y449369D02*
X816142D01*
X813386Y449014D02*
X816142D01*
X813386Y448660D02*
X816142D01*
X813386Y448306D02*
X816142D01*
X813386Y447951D02*
X816142D01*
X813386Y447597D02*
X816142D01*
X813386Y447243D02*
X816142D01*
X813386Y446888D02*
X816142D01*
X813386Y446534D02*
X816142D01*
X813386Y446180D02*
X816142D01*
X813386Y445825D02*
X816142D01*
X813386Y445471D02*
X816142D01*
X813386Y445117D02*
X816142D01*
X813386Y444762D02*
X816142D01*
X813386Y444408D02*
X816142D01*
X813386Y444054D02*
X816142D01*
X813386Y443699D02*
X816142D01*
X813386Y443345D02*
X816142D01*
X813386Y442991D02*
X816142D01*
X813386Y442637D02*
X816142D01*
X813386Y442282D02*
X816142D01*
X813386Y441928D02*
X816142D01*
X813386Y441574D02*
X816142D01*
X813386Y441219D02*
X816142D01*
X813386Y440865D02*
X816142D01*
X813386Y440511D02*
X816142D01*
X813386Y440156D02*
X816142D01*
X813386Y439802D02*
X816142D01*
X813386Y439448D02*
X816142D01*
X813386Y439093D02*
X816142D01*
X813386Y438739D02*
X816142D01*
X813386Y438385D02*
X816142D01*
X813386Y438030D02*
X816142D01*
X813386Y437676D02*
X816142D01*
X813386Y437322D02*
X816142D01*
X813386Y436967D02*
X816142D01*
X813386Y436613D02*
X816142D01*
X813386Y436259D02*
X816142D01*
X813386Y435904D02*
X816142D01*
X813386Y435550D02*
X816142D01*
X813386Y435196D02*
X816142D01*
X813386Y434841D02*
X816142D01*
X813386Y434487D02*
X816142D01*
X813386Y434133D02*
X816142D01*
X813386Y433778D02*
X816142D01*
X813386Y433424D02*
X816142D01*
X813386Y433070D02*
X816142D01*
X813386Y432715D02*
X816142D01*
X813386Y432361D02*
X816142D01*
X813386Y432007D02*
X816142D01*
X813386Y431652D02*
X816142D01*
X813386Y431298D02*
X816142D01*
X813386Y430944D02*
X816142D01*
X813386Y430589D02*
X816142D01*
X813386Y430235D02*
X816142D01*
X813386Y429881D02*
X816142D01*
X813386Y429526D02*
X816142D01*
X813386Y429172D02*
X816142D01*
X813386Y428818D02*
X816142D01*
X813386Y428463D02*
X816142D01*
X813386Y428109D02*
X816142D01*
X813386Y427755D02*
X816142D01*
X813386Y427400D02*
X816142D01*
X813386Y427046D02*
X816142D01*
X813386Y426692D02*
X816142D01*
X813386Y426337D02*
X816142D01*
X813386Y425983D02*
X816142D01*
X813386Y425629D02*
X816142D01*
X813386Y425274D02*
X816142D01*
X813386Y424920D02*
X816142D01*
X813386Y424566D02*
X816142D01*
X813386Y424211D02*
X816142D01*
X813386Y423857D02*
X816142D01*
X813386Y423503D02*
X816142D01*
X813386Y423148D02*
X816142D01*
X813386Y422794D02*
X816142D01*
X813386Y422440D02*
X816142D01*
X813386Y422085D02*
X816142D01*
X813386Y421731D02*
X816142D01*
X813386Y421377D02*
X816142D01*
X813386Y421022D02*
X816142D01*
X813386Y420668D02*
X816142D01*
X813386Y420314D02*
X816142D01*
X813386Y419959D02*
X816142D01*
X813386Y419605D02*
X816142D01*
X813386Y419251D02*
X816142D01*
X813386Y418896D02*
X816142D01*
X813386Y418542D02*
X816142D01*
X813386Y418188D02*
X816142D01*
X813386Y417833D02*
X816142D01*
X813386Y417479D02*
X816142D01*
X813386Y417125D02*
X816142D01*
X813386Y416770D02*
X816142D01*
X813386Y416416D02*
X816142D01*
X813386Y416062D02*
X816142D01*
X813386Y415707D02*
X816142D01*
X813386Y415353D02*
X816142D01*
X813386Y414999D02*
X816142D01*
X813386Y414644D02*
X816142D01*
X813386Y414290D02*
X816142D01*
X813386Y413936D02*
X816142D01*
X813386Y413581D02*
X816142D01*
X813386Y413227D02*
X816142D01*
X813386Y412873D02*
X816142D01*
X813386Y412518D02*
X816142D01*
X813386Y412164D02*
X816142D01*
X813386Y411810D02*
X816142D01*
X813386Y411455D02*
X816142D01*
X813386Y411101D02*
X816142D01*
X813386Y410747D02*
X816142D01*
X813386Y410392D02*
X816142D01*
X813386Y410038D02*
X816142D01*
X813386Y409684D02*
X816142D01*
X813386Y409329D02*
X816142D01*
X813386Y408975D02*
X816142D01*
X813386Y408621D02*
X816142D01*
X813386Y408266D02*
X816142D01*
X813386Y407912D02*
X816142D01*
X813386Y407558D02*
X816142D01*
X813386Y407203D02*
X816142D01*
X813386Y406849D02*
X816142D01*
X813386Y406495D02*
X816142D01*
X813386Y406140D02*
X816142D01*
X813386Y405786D02*
X816142D01*
X813386Y405432D02*
X816142D01*
X813386Y405077D02*
X816142D01*
X813386Y404723D02*
X816142D01*
X813386Y404369D02*
X816142D01*
X813386Y476298D02*
X816045D01*
X813386Y476652D02*
X815690D01*
X813386Y404014D02*
X815597D01*
X813366Y477007D02*
X815336D01*
X810176Y399762D02*
X815096D01*
X813254Y477361D02*
X814982D01*
X813386Y403660D02*
X814920D01*
X810530Y400117D02*
X814653D01*
X813012Y477715D02*
X814627D01*
X813365Y403306D02*
X814542D01*
X810884Y400471D02*
X814367D01*
X813252Y402951D02*
X814292D01*
X812659Y478070D02*
X814273D01*
X796046Y491534D02*
X814273D01*
X811239Y400825D02*
X814174D01*
X813010Y402597D02*
X814125D01*
X811593Y401180D02*
X814052D01*
X812656Y402243D02*
X814024D01*
X811947Y401534D02*
X813988D01*
X812302Y401888D02*
X813979D01*
X812304Y478424D02*
X813919D01*
X801238Y491888D02*
X813860D01*
X811950Y478778D02*
X813564D01*
X801860Y492243D02*
X813505D01*
X811596Y479133D02*
X813210D01*
X802221Y492597D02*
X813151D01*
X811241Y479487D02*
X812856D01*
X802461Y492951D02*
X812797D01*
X810887Y479841D02*
X812501D01*
X802620Y493306D02*
X812442D01*
X810533Y480196D02*
X812147D01*
X802716Y493660D02*
X812088D01*
X810178Y480550D02*
X811793D01*
X802755Y494014D02*
X811734D01*
X809824Y480904D02*
X811438D01*
X802740Y494369D02*
X811379D01*
X809191Y481259D02*
X811084D01*
X802671Y494723D02*
X811025D01*
X788249Y481613D02*
X810730D01*
X802542Y495077D02*
X810671D01*
X794535Y475944D02*
X810630D01*
X794368Y475589D02*
X810630D01*
X794117Y475235D02*
X810630D01*
X793738Y474881D02*
X810630D01*
X793057Y474526D02*
X810630D01*
X751201Y474172D02*
X810630D01*
X751181Y473818D02*
X810630D01*
X809788Y473463D02*
X810630D01*
X810116Y473109D02*
X810630D01*
X810229Y472755D02*
X810630D01*
X810184Y466022D02*
X810630D01*
X809972Y465668D02*
X810630D01*
X746003Y465314D02*
X810630D01*
X745648Y464959D02*
X810630D01*
X745294Y464605D02*
X810630D01*
X744940Y464251D02*
X810630D01*
X744585Y463896D02*
X810630D01*
X744231Y463542D02*
X810630D01*
X743877Y463188D02*
X810630D01*
X743522Y462833D02*
X810630D01*
X743168Y462479D02*
X810630D01*
X742814Y462125D02*
X810630D01*
X742459Y461770D02*
X810630D01*
X742105Y461416D02*
X810630D01*
X741751Y461062D02*
X810630D01*
X741396Y460707D02*
X810630D01*
X741042Y460353D02*
X810630D01*
X740688Y459999D02*
X810630D01*
X740333Y459644D02*
X810630D01*
X739979Y459290D02*
X810630D01*
X739625Y458936D02*
X810630D01*
X739270Y458581D02*
X810630D01*
X738916Y458227D02*
X810630D01*
X792286Y457873D02*
X810630D01*
X792857Y457518D02*
X810630D01*
X793199Y457164D02*
X810630D01*
X793428Y456810D02*
X810630D01*
X793580Y456455D02*
X810630D01*
X793668Y456101D02*
X810630D01*
X793701Y455747D02*
X810630D01*
X793680Y455392D02*
X810630D01*
X793604Y455038D02*
X810630D01*
X793467Y454684D02*
X810630D01*
X793256Y454329D02*
X810630D01*
X792943Y453975D02*
X810630D01*
X792443Y453621D02*
X810630D01*
X733955Y453266D02*
X810630D01*
X733601Y452912D02*
X810630D01*
X733247Y452558D02*
X810630D01*
X732895Y452203D02*
X810630D01*
X732873Y451849D02*
X810630D01*
X732858Y451495D02*
X810630D01*
X777996Y451140D02*
X810630D01*
X778867Y450786D02*
X810630D01*
X779285Y450432D02*
X810630D01*
X789763Y450077D02*
X810630D01*
X790231Y449723D02*
X810630D01*
X790530Y449369D02*
X810630D01*
X790731Y449014D02*
X810630D01*
X790860Y448660D02*
X810630D01*
X790929Y448306D02*
X810630D01*
X790944Y447951D02*
X810630D01*
X790905Y447597D02*
X810630D01*
X790809Y447243D02*
X810630D01*
X790650Y446888D02*
X810630D01*
X790410Y446534D02*
X810630D01*
X790049Y446180D02*
X810630D01*
X789427Y445825D02*
X810630D01*
X778923Y445471D02*
X810630D01*
X778821Y445117D02*
X810630D01*
X778597Y444762D02*
X810630D01*
X778247Y444408D02*
X810630D01*
X777892Y444054D02*
X810630D01*
X777538Y443699D02*
X810630D01*
X777184Y443345D02*
X810630D01*
X776829Y442991D02*
X810630D01*
X776475Y442637D02*
X810630D01*
X776121Y442282D02*
X810630D01*
X775766Y441928D02*
X810630D01*
X775412Y441574D02*
X810630D01*
X775058Y441219D02*
X810630D01*
X774703Y440865D02*
X810630D01*
X774349Y440511D02*
X810630D01*
X773995Y440156D02*
X810630D01*
X773640Y439802D02*
X810630D01*
X773286Y439448D02*
X810630D01*
X772932Y439093D02*
X810630D01*
X772577Y438739D02*
X810630D01*
X772223Y438385D02*
X810630D01*
X771869Y438030D02*
X810630D01*
X771514Y437676D02*
X810630D01*
X771160Y437322D02*
X810630D01*
X770806Y436967D02*
X810630D01*
X770451Y436613D02*
X810630D01*
X770097Y436259D02*
X810630D01*
X769743Y435904D02*
X810630D01*
X769388Y435550D02*
X810630D01*
X769031Y435196D02*
X810630D01*
X684425Y434841D02*
X810630D01*
X746521Y434487D02*
X810630D01*
X747139Y434133D02*
X810630D01*
X747498Y433778D02*
X810630D01*
X747738Y433424D02*
X810630D01*
X747897Y433070D02*
X810630D01*
X747992Y432715D02*
X810630D01*
X748030Y432361D02*
X810630D01*
X748015Y432007D02*
X810630D01*
X747946Y431652D02*
X810630D01*
X747816Y431298D02*
X810630D01*
X747615Y430944D02*
X810630D01*
X747315Y430589D02*
X810630D01*
X746846Y430235D02*
X810630D01*
X699201Y429881D02*
X810630D01*
X699137Y429526D02*
X810630D01*
X699015Y429172D02*
X810630D01*
X698822Y428818D02*
X810630D01*
X698536Y428463D02*
X810630D01*
X698093Y428109D02*
X810630D01*
X557283Y427755D02*
X810630D01*
X557283Y427400D02*
X810630D01*
X557283Y427046D02*
X810630D01*
X557283Y426692D02*
X810630D01*
X722489Y426337D02*
X810630D01*
X723021Y425983D02*
X810630D01*
X723347Y425629D02*
X810630D01*
X723567Y425274D02*
X810630D01*
X723711Y424920D02*
X810630D01*
X723792Y424566D02*
X810630D01*
X723819Y424211D02*
X810630D01*
X723792Y423857D02*
X810630D01*
X723710Y423503D02*
X810630D01*
X723566Y423148D02*
X810630D01*
X723346Y422794D02*
X810630D01*
X723018Y422440D02*
X810630D01*
X722484Y422085D02*
X810630D01*
X687595Y421731D02*
X810630D01*
X687550Y421377D02*
X810630D01*
X687449Y421022D02*
X810630D01*
X687281Y420668D02*
X810630D01*
X687030Y420314D02*
X810630D01*
X686652Y419959D02*
X810630D01*
X685970Y419605D02*
X810630D01*
X557283Y419251D02*
X810630D01*
X557283Y418896D02*
X810630D01*
X557283Y418542D02*
X810630D01*
X557283Y418188D02*
X810630D01*
X557283Y417833D02*
X810630D01*
X557283Y417479D02*
X810630D01*
X557283Y417125D02*
X810630D01*
X584948Y416770D02*
X810630D01*
X722198Y416416D02*
X810630D01*
X722876Y416062D02*
X810630D01*
X723253Y415707D02*
X810630D01*
X723503Y415353D02*
X810630D01*
X723670Y414999D02*
X810630D01*
X723771Y414644D02*
X810630D01*
X723816Y414290D02*
X810630D01*
X723807Y413936D02*
X810630D01*
X723744Y413581D02*
X810630D01*
X723621Y413227D02*
X810630D01*
X723429Y412873D02*
X810630D01*
X723142Y412518D02*
X810630D01*
X722699Y412164D02*
X810630D01*
X686800Y411810D02*
X810630D01*
X687127Y411455D02*
X810630D01*
X687346Y411101D02*
X810630D01*
X687490Y410747D02*
X810630D01*
X687572Y410392D02*
X810630D01*
X687598Y410038D02*
X810630D01*
X687572Y409684D02*
X810630D01*
X687489Y409329D02*
X810630D01*
X687345Y408975D02*
X810630D01*
X687125Y408621D02*
X810630D01*
X686797Y408266D02*
X810630D01*
X686263Y407912D02*
X810630D01*
X667715Y407558D02*
X810630D01*
X667700Y407203D02*
X810630D01*
X715085Y406849D02*
X810630D01*
X715929Y406495D02*
X810630D01*
X716478Y406140D02*
X810630D01*
X716893Y405786D02*
X810630D01*
X717223Y405432D02*
X810630D01*
X717490Y405077D02*
X810630D01*
X717707Y404723D02*
X810630D01*
X717882Y404369D02*
X810630D01*
X810242Y466377D02*
X810624D01*
X794637Y476298D02*
X810533D01*
X718021Y404014D02*
X810530D01*
X787895Y481967D02*
X810375D01*
X802341Y495432D02*
X810316D01*
X794682Y476652D02*
X810179D01*
X718127Y403660D02*
X810176D01*
X802042Y495786D02*
X809962D01*
X794673Y477007D02*
X809824D01*
X718201Y403306D02*
X809822D01*
X801574Y496140D02*
X809608D01*
X794610Y477361D02*
X809470D01*
X718247Y402951D02*
X809467D01*
X772047Y496495D02*
X809253D01*
X794488Y477715D02*
X809116D01*
X718264Y402597D02*
X809113D01*
X772014Y496849D02*
X808899D01*
X794297Y478070D02*
X808761D01*
X718253Y402243D02*
X808759D01*
X771926Y497203D02*
X808545D01*
X794159Y478424D02*
X808407D01*
X718223Y401888D02*
X808404D01*
X771775Y497558D02*
X808190D01*
X771546Y497912D02*
X807836D01*
X771203Y498266D02*
X807482D01*
X770632Y498621D02*
X807127D01*
X748478Y498975D02*
X806773D01*
X748387Y499329D02*
X806419D01*
X748263Y499684D02*
X806064D01*
X748105Y500038D02*
X805710D01*
X747907Y500392D02*
X805356D01*
X765809Y500747D02*
X805001D01*
X766253Y501101D02*
X804647D01*
X766539Y501455D02*
X804293D01*
X766731Y501810D02*
X803938D01*
X766854Y502164D02*
X803584D01*
X800217Y578345D02*
X803366D01*
X766917Y502518D02*
X803230D01*
X766926Y502873D02*
X802875D01*
X800984Y577991D02*
X802599D01*
X766882Y503227D02*
X802521D01*
X777308Y473463D02*
X802417D01*
X797054Y465668D02*
X802232D01*
X766780Y503581D02*
X802167D01*
X801441Y577637D02*
X802142D01*
X797648Y473109D02*
X802089D01*
X797970Y466022D02*
X802021D01*
X798300Y472755D02*
X801975D01*
X798752Y472400D02*
X801968D01*
X799095Y472046D02*
X801968D01*
X799365Y471692D02*
X801968D01*
X799578Y471337D02*
X801968D01*
X799745Y470983D02*
X801968D01*
X799871Y470629D02*
X801968D01*
X799960Y470274D02*
X801968D01*
X800016Y469920D02*
X801968D01*
X800039Y469566D02*
X801968D01*
X800030Y469211D02*
X801968D01*
X799988Y468857D02*
X801968D01*
X799914Y468503D02*
X801968D01*
X799804Y468148D02*
X801968D01*
X799656Y467794D02*
X801968D01*
X799464Y467440D02*
X801968D01*
X799221Y467085D02*
X801968D01*
X798913Y466731D02*
X801968D01*
X798515Y466377D02*
X801968D01*
X766613Y503936D02*
X801812D01*
X766363Y504290D02*
X801458D01*
X765986Y504644D02*
X801104D01*
X765309Y504999D02*
X800749D01*
X796220Y490117D02*
X800745D01*
X728118Y505353D02*
X800395D01*
X728336Y505707D02*
X800041D01*
X787790Y482322D02*
X799978D01*
X796124Y489762D02*
X799873D01*
X728511Y506062D02*
X799686D01*
X787787Y482676D02*
X799612D01*
X795845Y491888D02*
X799549D01*
X795965Y489408D02*
X799455D01*
X728650Y506416D02*
X799332D01*
X787730Y483030D02*
X799266D01*
X772026Y496140D02*
X799213D01*
X795725Y489054D02*
X799182D01*
X795364Y488699D02*
X798999D01*
X728756Y506770D02*
X798978D01*
X795546Y492243D02*
X798927D01*
X787615Y483385D02*
X798912D01*
X795069Y488345D02*
X798884D01*
X798146Y487991D02*
X798827D01*
X771950Y495786D02*
X798745D01*
X728831Y507125D02*
X798624D01*
X795078Y492597D02*
X798567D01*
X787432Y483739D02*
X798557D01*
X771813Y495432D02*
X798446D01*
X795217Y578345D02*
X798366D01*
X608709Y492951D02*
X798326D01*
X728876Y507479D02*
X798269D01*
X771603Y495077D02*
X798246D01*
X787159Y484093D02*
X798203D01*
X608543Y493306D02*
X798167D01*
X771290Y494723D02*
X798117D01*
X745094Y493660D02*
X798072D01*
X770790Y494369D02*
X798047D01*
X746088Y494014D02*
X798033D01*
X728894Y507833D02*
X797915D01*
X786741Y484448D02*
X797849D01*
X795984Y577991D02*
X797599D01*
X728883Y508188D02*
X797561D01*
X790022Y484802D02*
X797494D01*
X728844Y508542D02*
X797206D01*
X796441Y577637D02*
X797142D01*
X790465Y485156D02*
X797140D01*
X728776Y508896D02*
X796888D01*
X728677Y509251D02*
X796717D01*
X728546Y509605D02*
X796655D01*
X728889Y519881D02*
X796654D01*
X728891Y519526D02*
X796654D01*
X728864Y519172D02*
X796654D01*
X728809Y518818D02*
X796654D01*
X728724Y518463D02*
X796654D01*
X728608Y518109D02*
X796654D01*
X728457Y517755D02*
X796654D01*
X765551Y517400D02*
X796654D01*
X766019Y517046D02*
X796654D01*
X766317Y516692D02*
X796654D01*
X766518Y516337D02*
X796654D01*
X766647Y515983D02*
X796654D01*
X766716Y515629D02*
X796654D01*
X766731Y515274D02*
X796654D01*
X766692Y514920D02*
X796654D01*
X766597Y514566D02*
X796654D01*
X766437Y514211D02*
X796654D01*
X766197Y513857D02*
X796654D01*
X765837Y513503D02*
X796654D01*
X765215Y513148D02*
X796654D01*
X752030Y512794D02*
X796654D01*
X751870Y512440D02*
X796654D01*
X751630Y512085D02*
X796654D01*
X751270Y511731D02*
X796654D01*
X750648Y511377D02*
X796654D01*
X727603Y511022D02*
X796654D01*
X727917Y510668D02*
X796654D01*
X728172Y510314D02*
X796654D01*
X728379Y509959D02*
X796654D01*
X728860Y520235D02*
X796429D01*
X728802Y520589D02*
X796074D01*
X728713Y520944D02*
X795720D01*
X728594Y521298D02*
X795366D01*
X784574Y465668D02*
X795150D01*
X760587Y521652D02*
X795011D01*
X761161Y522007D02*
X794657D01*
X785168Y473109D02*
X794556D01*
X761504Y522361D02*
X794303D01*
X785490Y466022D02*
X794235D01*
X761734Y522715D02*
X793948D01*
X785820Y472755D02*
X793904D01*
X786034Y466377D02*
X793690D01*
X761886Y523070D02*
X793594D01*
X786272Y472400D02*
X793453D01*
X790217Y578345D02*
X793366D01*
X786432Y466731D02*
X793292D01*
X761975Y523424D02*
X793240D01*
X786615Y472046D02*
X793109D01*
X786741Y467085D02*
X792984D01*
X762008Y523778D02*
X792885D01*
X786885Y471692D02*
X792840D01*
X786984Y467440D02*
X792740D01*
X790576Y488345D02*
X792726D01*
X608811Y492597D02*
X792717D01*
X787098Y471337D02*
X792627D01*
X790984Y577991D02*
X792599D01*
X787176Y467794D02*
X792549D01*
X761987Y524133D02*
X792531D01*
X787264Y470983D02*
X792460D01*
X790199Y488699D02*
X792431D01*
X787324Y468148D02*
X792400D01*
X787390Y470629D02*
X792334D01*
X787434Y468503D02*
X792291D01*
X608855Y492243D02*
X792249D01*
X787480Y470274D02*
X792245D01*
X787508Y468857D02*
X792216D01*
X787535Y469920D02*
X792189D01*
X761911Y524487D02*
X792177D01*
X787549Y469211D02*
X792175D01*
X787558Y469566D02*
X792166D01*
X791441Y577637D02*
X792142D01*
X789521Y489054D02*
X792071D01*
X608846Y491888D02*
X791950D01*
X747248Y489408D02*
X791830D01*
X761775Y524841D02*
X791822D01*
X608783Y491534D02*
X791750D01*
X746845Y489762D02*
X791671D01*
X608661Y491180D02*
X791621D01*
X751563Y474526D02*
X791589D01*
X746314Y490117D02*
X791576D01*
X608468Y490825D02*
X791551D01*
X745523Y490471D02*
X791537D01*
X761565Y525196D02*
X791468D01*
X761253Y525550D02*
X791114D01*
X751825Y474881D02*
X790907D01*
X760755Y525904D02*
X790759D01*
X752000Y475235D02*
X790529D01*
X772787Y478424D02*
X790487D01*
X545472Y526259D02*
X790405D01*
X738562Y457873D02*
X790392D01*
X772832Y478070D02*
X790349D01*
X752109Y475589D02*
X790278D01*
X734310Y453621D02*
X790234D01*
X772823Y477715D02*
X790157D01*
X771715Y475944D02*
X790111D01*
X545472Y526613D02*
X790051D01*
X772759Y477361D02*
X790035D01*
X772158Y476298D02*
X790009D01*
X772637Y477007D02*
X789972D01*
X772444Y476652D02*
X789964D01*
X738207Y457518D02*
X789820D01*
X734664Y453975D02*
X789734D01*
X545472Y526967D02*
X789696D01*
X737853Y457164D02*
X789478D01*
X735018Y454329D02*
X789421D01*
X545472Y527322D02*
X789388D01*
X737499Y456810D02*
X789249D01*
X545472Y527676D02*
X789228D01*
X735373Y454684D02*
X789210D01*
X773435Y528030D02*
X789174D01*
X784204Y532991D02*
X789173D01*
X784102Y532637D02*
X789173D01*
X783935Y532282D02*
X789173D01*
X783684Y531928D02*
X789173D01*
X783305Y531574D02*
X789173D01*
X782623Y531219D02*
X789173D01*
X781484Y530865D02*
X789173D01*
X781421Y530511D02*
X789173D01*
X781298Y530156D02*
X789173D01*
X781106Y529802D02*
X789173D01*
X780820Y529448D02*
X789173D01*
X780376Y529093D02*
X789173D01*
X774594Y528739D02*
X789173D01*
X774196Y528385D02*
X789173D01*
X784297Y533345D02*
X789128D01*
X737144Y456455D02*
X789097D01*
X735727Y455038D02*
X789074D01*
X736790Y456101D02*
X789009D01*
X736081Y455392D02*
X788998D01*
X736436Y455747D02*
X788977D01*
X785888Y533699D02*
X788757D01*
X786255Y534054D02*
X788506D01*
X785217Y578345D02*
X788366D01*
X786610Y534408D02*
X788339D01*
X786964Y534762D02*
X788237D01*
X787673Y535471D02*
X788201D01*
X787318Y535117D02*
X788192D01*
X747570Y489054D02*
X788038D01*
X787018Y567361D02*
X787913D01*
X651575Y567007D02*
X787913D01*
X778937Y445825D02*
X787738D01*
X785984Y577991D02*
X787599D01*
X787370Y567715D02*
X787539D01*
X785870Y484802D02*
X787537D01*
X779558Y450077D02*
X787402D01*
X747831Y488699D02*
X787360D01*
X772686Y478778D02*
X787223D01*
X786441Y577637D02*
X787142D01*
X778937Y446180D02*
X787116D01*
X748451Y485156D02*
X787094D01*
X748043Y488345D02*
X786983D01*
X779741Y449723D02*
X786934D01*
X772519Y479133D02*
X786832D01*
X748522Y485511D02*
X786808D01*
X778937Y446534D02*
X786756D01*
X748215Y487991D02*
X786733D01*
X779856Y449369D02*
X786635D01*
X748565Y485865D02*
X786615D01*
X748349Y487637D02*
X786566D01*
X778957Y446888D02*
X786515D01*
X748579Y486219D02*
X786493D01*
X772269Y479487D02*
X786478D01*
X748451Y487282D02*
X786465D01*
X779913Y449014D02*
X786435D01*
X748565Y486574D02*
X786429D01*
X748523Y486928D02*
X786420D01*
X779319Y447243D02*
X786356D01*
X779916Y448660D02*
X786306D01*
X779581Y447597D02*
X786261D01*
X779865Y448306D02*
X786236D01*
X779756Y447951D02*
X786222D01*
X771892Y479841D02*
X786123D01*
X748348Y484802D02*
X784997D01*
X771214Y480196D02*
X784833D01*
X748213Y484448D02*
X784125D01*
X749186Y480550D02*
X784072D01*
X748042Y484093D02*
X783707D01*
X749213Y480904D02*
X783674D01*
X747830Y483739D02*
X783434D01*
X749186Y481259D02*
X783411D01*
X709969Y578345D02*
X783366D01*
X747575Y483385D02*
X783251D01*
X749104Y481613D02*
X783236D01*
X747883Y483030D02*
X783136D01*
X748961Y481967D02*
X783127D01*
X748414Y482676D02*
X783079D01*
X748741Y482322D02*
X783076D01*
X777492Y465668D02*
X782670D01*
X710387Y577991D02*
X782599D01*
X710660Y577637D02*
X782142D01*
X777636Y473109D02*
X782076D01*
X744667Y577282D02*
X781816D01*
X777704Y466022D02*
X781754D01*
X748545Y573385D02*
X781655D01*
X748487Y573739D02*
X781576D01*
X745926Y576928D02*
X781574D01*
X651575Y567361D02*
X781564D01*
X777749Y472755D02*
X781424D01*
X748399Y574093D02*
X781397D01*
X746570Y576574D02*
X781396D01*
X748574Y573030D02*
X781297D01*
X748279Y574448D02*
X781269D01*
X747036Y576219D02*
X781268D01*
X651575Y567715D02*
X781253D01*
X777756Y466377D02*
X781210D01*
X748124Y574802D02*
X781187D01*
X747400Y575865D02*
X781187D01*
X748576Y572676D02*
X781158D01*
X651575Y568070D02*
X781147D01*
X747931Y575156D02*
X781147D01*
X747693Y575511D02*
X781147D01*
X748549Y572322D02*
X781142D01*
X748494Y571967D02*
X781142D01*
X748409Y571613D02*
X781142D01*
X748293Y571259D02*
X781142D01*
X748142Y570904D02*
X781142D01*
X747953Y570550D02*
X781142D01*
X747720Y570196D02*
X781142D01*
X747433Y569841D02*
X781142D01*
X747078Y569487D02*
X781142D01*
X746625Y569133D02*
X781142D01*
X746006Y568778D02*
X781142D01*
X744903Y568424D02*
X781142D01*
X777756Y472400D02*
X780973D01*
X777756Y466731D02*
X780812D01*
X777756Y472046D02*
X780629D01*
X777756Y467085D02*
X780503D01*
X734795Y537597D02*
X780410D01*
X777756Y471692D02*
X780359D01*
X777756Y467440D02*
X780260D01*
X777756Y471337D02*
X780146D01*
X734765Y537951D02*
X780103D01*
X734796Y537243D02*
X780103D01*
X777756Y467794D02*
X780068D01*
X777756Y470983D02*
X779980D01*
X777756Y468148D02*
X779920D01*
X777756Y470629D02*
X779854D01*
X777756Y468503D02*
X779810D01*
X777756Y470274D02*
X779764D01*
X734707Y538306D02*
X779748D01*
X734770Y536888D02*
X779746D01*
X777756Y468857D02*
X779736D01*
X777756Y469920D02*
X779709D01*
X777756Y469211D02*
X779695D01*
X777756Y469566D02*
X779686D01*
X734619Y538660D02*
X779394D01*
X734715Y536534D02*
X779392D01*
X734499Y539014D02*
X779040D01*
X734630Y536180D02*
X779037D01*
X734345Y539369D02*
X778685D01*
X734513Y535825D02*
X778683D01*
X759703Y539723D02*
X778331D01*
X734362Y535471D02*
X778329D01*
X776726Y535117D02*
X778004D01*
X760325Y540077D02*
X777977D01*
X774856Y529093D02*
X777892D01*
X777403Y534762D02*
X777826D01*
X760685Y540432D02*
X777622D01*
X775032Y529448D02*
X777448D01*
X760926Y540786D02*
X777268D01*
X775140Y529802D02*
X777162D01*
X773862Y451140D02*
X777123D01*
X775192Y530156D02*
X776969D01*
X761085Y541140D02*
X776914D01*
X775242Y530511D02*
X776839D01*
X761180Y541495D02*
X776559D01*
X774733Y450786D02*
X776251D01*
X761219Y541849D02*
X776205D01*
X761205Y542203D02*
X775942D01*
X775151Y450432D02*
X775833D01*
X761135Y542558D02*
X775816D01*
X760039Y543975D02*
X775787D01*
X760507Y543621D02*
X775787D01*
X760806Y543266D02*
X775787D01*
X761006Y542912D02*
X775787D01*
X639747Y544329D02*
X775786D01*
X640145Y544684D02*
X775490D01*
X770427Y535117D02*
X775243D01*
X656936Y545038D02*
X775136D01*
X657381Y545392D02*
X774782D01*
X771104Y534762D02*
X774565D01*
X657735Y545747D02*
X774427D01*
X771481Y534408D02*
X774188D01*
X658089Y546101D02*
X774073D01*
X771732Y534054D02*
X773938D01*
X771898Y533699D02*
X773771D01*
X658444Y546455D02*
X773719D01*
X772000Y533345D02*
X773669D01*
X772044Y532991D02*
X773625D01*
X773271Y532637D02*
X773528D01*
X658798Y546810D02*
X773365D01*
X732788Y451140D02*
X772989D01*
X772141Y532637D02*
X772398D01*
X545472Y528030D02*
X772235D01*
X732659Y450786D02*
X772117D01*
X747687Y446534D02*
X772047D01*
X747769Y446180D02*
X772047D01*
X747795Y445825D02*
X772047D01*
X747768Y445471D02*
X772047D01*
X747686Y445117D02*
X772047D01*
X747542Y444762D02*
X772047D01*
X747322Y444408D02*
X772047D01*
X747543Y446888D02*
X772027D01*
X746994Y444054D02*
X772018D01*
X732457Y450432D02*
X771699D01*
X746460Y443699D02*
X771672D01*
X747324Y447243D02*
X771666D01*
X545472Y528385D02*
X771473D01*
X732158Y450077D02*
X771426D01*
X746997Y447597D02*
X771403D01*
X683081Y443345D02*
X771318D01*
X731688Y449723D02*
X771243D01*
X746465Y447951D02*
X771228D01*
X699011Y449369D02*
X771128D01*
X698835Y448306D02*
X771119D01*
X545472Y528739D02*
X771075D01*
X699007Y449014D02*
X771071D01*
X698950Y448660D02*
X771068D01*
X682537Y442991D02*
X770963D01*
X545472Y529093D02*
X770813D01*
X545472Y529448D02*
X770637D01*
X681621Y442637D02*
X770609D01*
X545472Y529802D02*
X770529D01*
X545472Y530156D02*
X770478D01*
X545472Y530511D02*
X770428D01*
X545472Y442282D02*
X770255D01*
X751181Y473463D02*
X769936D01*
X545472Y441928D02*
X769900D01*
X746357Y465668D02*
X769752D01*
X749103Y480196D02*
X769731D01*
X751181Y473109D02*
X769608D01*
X545472Y441574D02*
X769546D01*
X746711Y466022D02*
X769540D01*
X751181Y472755D02*
X769495D01*
X751181Y472400D02*
X769488D01*
X751181Y472046D02*
X769488D01*
X751181Y471692D02*
X769488D01*
X751181Y471337D02*
X769488D01*
X751179Y470983D02*
X769488D01*
X751111Y470629D02*
X769488D01*
X750933Y470274D02*
X769488D01*
X750609Y469920D02*
X769488D01*
X750255Y469566D02*
X769488D01*
X749900Y469211D02*
X769488D01*
X749546Y468857D02*
X769488D01*
X749192Y468503D02*
X769488D01*
X748837Y468148D02*
X769488D01*
X748483Y467794D02*
X769488D01*
X748129Y467440D02*
X769488D01*
X747774Y467085D02*
X769488D01*
X747420Y466731D02*
X769488D01*
X747066Y466377D02*
X769488D01*
X752160Y475944D02*
X769230D01*
X545513Y441219D02*
X769192D01*
X748959Y479841D02*
X769053D01*
X734174Y535117D02*
X768943D01*
X751102Y440865D02*
X768837D01*
X752157Y476298D02*
X768787D01*
X748540Y498621D02*
X768738D01*
X748739Y479487D02*
X768676D01*
X746682Y494369D02*
X768580D01*
X752100Y476652D02*
X768500D01*
X751570Y440511D02*
X768483D01*
X545472Y530865D02*
X768443D01*
X748411Y479133D02*
X768426D01*
X751985Y477007D02*
X768308D01*
X733940Y534762D02*
X768266D01*
X748228Y478778D02*
X768259D01*
X751802Y477361D02*
X768186D01*
X748573Y498266D02*
X768167D01*
X750240Y478424D02*
X768158D01*
X751869Y440156D02*
X768129D01*
X751529Y477715D02*
X768122D01*
X751111Y478070D02*
X768113D01*
X747122Y494723D02*
X768080D01*
X545472Y531219D02*
X767999D01*
X733654Y534408D02*
X767889D01*
X748577Y497912D02*
X767824D01*
X752069Y439802D02*
X767774D01*
X747468Y495077D02*
X767767D01*
X545472Y531574D02*
X767713D01*
X733298Y534054D02*
X767639D01*
X748554Y497558D02*
X767595D01*
X747748Y495432D02*
X767557D01*
X545472Y531928D02*
X767521D01*
X732845Y533699D02*
X767472D01*
X748502Y497203D02*
X767444D01*
X752198Y439448D02*
X767420D01*
X747976Y495786D02*
X767420D01*
X545472Y532282D02*
X767398D01*
X732227Y533345D02*
X767370D01*
X748420Y496849D02*
X767356D01*
X748161Y496140D02*
X767344D01*
X676435Y532637D02*
X767335D01*
X731124Y532991D02*
X767326D01*
X748307Y496495D02*
X767323D01*
X752327Y439093D02*
X767062D01*
X754330Y504999D02*
X763825D01*
X752125Y513148D02*
X763525D01*
X753994Y500747D02*
X763325D01*
X728268Y517400D02*
X763189D01*
X754798Y504644D02*
X763148D01*
X752164Y513503D02*
X762903D01*
X754616Y501101D02*
X762881D01*
X755097Y504290D02*
X762771D01*
X728035Y517046D02*
X762721D01*
X754977Y501455D02*
X762595D01*
X752149Y513857D02*
X762543D01*
X755298Y503936D02*
X762520D01*
X727748Y516692D02*
X762423D01*
X755217Y501810D02*
X762402D01*
X755427Y503581D02*
X762354D01*
X752080Y514211D02*
X762303D01*
X755376Y502164D02*
X762280D01*
X755496Y503227D02*
X762252D01*
X727393Y516337D02*
X762222D01*
X755472Y502518D02*
X762217D01*
X755510Y502873D02*
X762208D01*
X751951Y514566D02*
X762143D01*
X726940Y515983D02*
X762093D01*
X751750Y514920D02*
X762048D01*
X750984Y515629D02*
X762024D01*
X751452Y515274D02*
X762009D01*
X728439Y521652D02*
X758705D01*
X545472Y525904D02*
X758536D01*
X728246Y522007D02*
X758131D01*
X545472Y525550D02*
X758038D01*
X734152Y539723D02*
X758014D01*
X728008Y522361D02*
X757787D01*
X545472Y525196D02*
X757726D01*
X638986Y543975D02*
X757678D01*
X727715Y522715D02*
X757557D01*
X545472Y524841D02*
X757516D01*
X727351Y523070D02*
X757405D01*
X733913Y540077D02*
X757392D01*
X545472Y524487D02*
X757380D01*
X726885Y523424D02*
X757317D01*
X724982Y524133D02*
X757304D01*
X726241Y523778D02*
X757284D01*
X545472Y543621D02*
X757209D01*
X733620Y540432D02*
X757031D01*
X545472Y543266D02*
X756911D01*
X733257Y540786D02*
X756791D01*
X545472Y542912D02*
X756710D01*
X732791Y541140D02*
X756632D01*
X545472Y542558D02*
X756581D01*
X732146Y541495D02*
X756536D01*
X659600Y542203D02*
X756512D01*
X730888Y541849D02*
X756497D01*
X747663Y500747D02*
X752305D01*
X727851Y504999D02*
X751969D01*
X747363Y501101D02*
X751683D01*
X727520Y504644D02*
X751501D01*
X746990Y501455D02*
X751323D01*
X727105Y504290D02*
X751202D01*
X746510Y501810D02*
X751082D01*
X726554Y503936D02*
X751002D01*
X745835Y502164D02*
X750923D01*
X725706Y503581D02*
X750873D01*
X647991Y502518D02*
X750828D01*
X648016Y503227D02*
X750803D01*
X648030Y502873D02*
X750789D01*
X748228Y478424D02*
X749367D01*
X747105Y511377D02*
X748958D01*
X746791Y440865D02*
X748741D01*
X747441Y515629D02*
X748622D01*
X748371Y478070D02*
X748480D01*
X747727Y511731D02*
X748336D01*
X747546Y440511D02*
X748272D01*
X747910Y515274D02*
X748153D01*
X684295Y435196D02*
X747622D01*
X684124Y435550D02*
X747265D01*
X683905Y435904D02*
X746911D01*
X733071Y473109D02*
X746850D01*
X733071Y472755D02*
X746850D01*
X733071Y472400D02*
X746840D01*
X733071Y473463D02*
X746596D01*
X733071Y472046D02*
X746513D01*
X733071Y473818D02*
X746242D01*
X733071Y471692D02*
X746159D01*
X733071Y474172D02*
X745887D01*
X733071Y471337D02*
X745805D01*
X683628Y436259D02*
X745759D01*
X733168Y474526D02*
X745625D01*
X557283Y440865D02*
X745571D01*
X733522Y474881D02*
X745501D01*
X737420Y478778D02*
X745472D01*
X737066Y478424D02*
X745472D01*
X736711Y478070D02*
X745472D01*
X736357Y477715D02*
X745472D01*
X736003Y477361D02*
X745472D01*
X735648Y477007D02*
X745472D01*
X735294Y476652D02*
X745472D01*
X734940Y476298D02*
X745472D01*
X734585Y475944D02*
X745472D01*
X734231Y475589D02*
X745472D01*
X733877Y475235D02*
X745472D01*
X733071Y470983D02*
X745450D01*
X727209Y511377D02*
X745415D01*
X737774Y479133D02*
X745289D01*
X733071Y470629D02*
X745097D01*
X726321Y515629D02*
X745079D01*
X738129Y479487D02*
X744962D01*
X683275Y436613D02*
X744877D01*
X684519Y434487D02*
X744818D01*
X557283Y440511D02*
X744816D01*
X726697Y511731D02*
X744793D01*
X733071Y470274D02*
X744743D01*
X738483Y479841D02*
X744742D01*
X725218Y515274D02*
X744611D01*
X738837Y480196D02*
X744597D01*
X740255Y481613D02*
X744559D01*
X739192Y480550D02*
X744515D01*
X739900Y481259D02*
X744515D01*
X699210Y430235D02*
X744493D01*
X739546Y480904D02*
X744488D01*
X682807Y436967D02*
X744458D01*
X725950Y512085D02*
X744433D01*
X557283Y440156D02*
X744419D01*
X683480Y443699D02*
X744406D01*
X698651Y447951D02*
X744401D01*
X733071Y469920D02*
X744390D01*
X545472Y514920D02*
X744313D01*
X684578Y434133D02*
X744199D01*
X545472Y512440D02*
X744193D01*
X682120Y437322D02*
X744184D01*
X557283Y439802D02*
X744158D01*
X545472Y514566D02*
X744112D01*
X733071Y469566D02*
X744037D01*
X545472Y512794D02*
X744033D01*
X699165Y430589D02*
X744023D01*
X674289Y437676D02*
X744000D01*
X557283Y439448D02*
X743983D01*
X545472Y514211D02*
X743983D01*
X545472Y513148D02*
X743938D01*
X545472Y513857D02*
X743914D01*
X545472Y513503D02*
X743899D01*
X557283Y438030D02*
X743884D01*
X557283Y439093D02*
X743875D01*
X683788Y444054D02*
X743872D01*
X698377Y447597D02*
X743869D01*
X684605Y433778D02*
X743840D01*
X557283Y438385D02*
X743827D01*
X557283Y438739D02*
X743824D01*
X699064Y430944D02*
X743724D01*
X733071Y469211D02*
X743683D01*
X684599Y433424D02*
X743601D01*
X684031Y444408D02*
X743544D01*
X697957Y447243D02*
X743542D01*
X698897Y431298D02*
X743522D01*
X710844Y577282D02*
X743522D01*
X684562Y433070D02*
X743442D01*
X698647Y431652D02*
X743393D01*
X684491Y432715D02*
X743347D01*
X733071Y468857D02*
X743330D01*
X684223Y444762D02*
X743324D01*
X698269Y432007D02*
X743323D01*
X697076Y446888D02*
X743323D01*
X697592Y432361D02*
X743308D01*
X651575Y568424D02*
X743286D01*
X684371Y445117D02*
X743180D01*
X684606Y446534D02*
X743179D01*
X684481Y445471D02*
X743098D01*
X684597Y446180D02*
X743097D01*
X733283Y493660D02*
X743095D01*
X684555Y445825D02*
X743071D01*
X733071Y468503D02*
X742976D01*
X740609Y481967D02*
X742674D01*
X733712Y490471D02*
X742666D01*
X733071Y468148D02*
X742623D01*
X734024Y502164D02*
X742354D01*
X733071Y467794D02*
X742270D01*
X710959Y576928D02*
X742263D01*
X651575Y568778D02*
X742183D01*
X734276Y494014D02*
X742101D01*
X733210Y467440D02*
X741916D01*
X740963Y482322D02*
X741879D01*
X734503Y490117D02*
X741875D01*
X734699Y501810D02*
X741679D01*
X711016Y576574D02*
X741619D01*
X651575Y569133D02*
X741564D01*
X733564Y467085D02*
X741563D01*
X734871Y494369D02*
X741507D01*
X735034Y489762D02*
X741344D01*
X733919Y466731D02*
X741209D01*
X735179Y501455D02*
X741199D01*
X711018Y576219D02*
X741153D01*
X651581Y569487D02*
X741111D01*
X735311Y494723D02*
X741067D01*
X735437Y489408D02*
X740941D01*
X734229Y466377D02*
X740856D01*
X735552Y501101D02*
X740825D01*
X710967Y575865D02*
X740789D01*
X651920Y569841D02*
X740756D01*
X735657Y495077D02*
X740721D01*
X735759Y489054D02*
X740619D01*
X735852Y500747D02*
X740526D01*
X734392Y466022D02*
X740503D01*
X710859Y575511D02*
X740496D01*
X652194Y570196D02*
X740469D01*
X735937Y495432D02*
X740441D01*
X736020Y488699D02*
X740358D01*
X736096Y500392D02*
X740282D01*
X710683Y575156D02*
X740258D01*
X652378Y570550D02*
X740236D01*
X736165Y495786D02*
X740213D01*
X734448Y465668D02*
X740149D01*
X736232Y488345D02*
X740146D01*
X736294Y500038D02*
X740084D01*
X710421Y574802D02*
X740065D01*
X652494Y570904D02*
X740047D01*
X736349Y496140D02*
X740028D01*
X736403Y487991D02*
X739974D01*
X736452Y499684D02*
X739926D01*
X710023Y574448D02*
X739910D01*
X652551Y571259D02*
X739896D01*
X736496Y496495D02*
X739882D01*
X736538Y487637D02*
X739840D01*
X736576Y499329D02*
X739802D01*
X734449Y465314D02*
X739796D01*
X709261Y574093D02*
X739790D01*
X652554Y571613D02*
X739780D01*
X736609Y496849D02*
X739769D01*
X736640Y485156D02*
X739738D01*
X736640Y487282D02*
X739738D01*
X736667Y498975D02*
X739711D01*
X650807Y573739D02*
X739702D01*
X652503Y571967D02*
X739695D01*
X736691Y497203D02*
X739687D01*
X736711Y485511D02*
X739667D01*
X736712Y486928D02*
X739666D01*
X736729Y498621D02*
X739649D01*
X651562Y573385D02*
X739644D01*
X652395Y572322D02*
X739640D01*
X736743Y497558D02*
X739635D01*
X736754Y485865D02*
X739624D01*
X736754Y486574D02*
X739624D01*
X736762Y498266D02*
X739616D01*
X651959Y573030D02*
X739614D01*
X652220Y572676D02*
X739613D01*
X736766Y497912D02*
X739612D01*
X736768Y486219D02*
X739610D01*
X736537Y484802D02*
X739546D01*
X734449Y464959D02*
X739442D01*
X736402Y484448D02*
X739192D01*
X734449Y464605D02*
X739089D01*
X736231Y484093D02*
X738837D01*
X734449Y464251D02*
X738736D01*
X736018Y483739D02*
X738483D01*
X734449Y463896D02*
X738382D01*
X735757Y483385D02*
X738129D01*
X734449Y463542D02*
X738029D01*
X735435Y483030D02*
X737774D01*
X734449Y463188D02*
X737675D01*
X735030Y482676D02*
X737420D01*
X734440Y462833D02*
X737322D01*
X734499Y482322D02*
X737066D01*
X734350Y462479D02*
X736968D01*
X734055Y481967D02*
X736711D01*
X734142Y462125D02*
X736615D01*
X734055Y481613D02*
X736357D01*
X733798Y461770D02*
X736262D01*
X734055Y481259D02*
X736003D01*
X733444Y461416D02*
X735908D01*
X734055Y480904D02*
X735648D01*
X733089Y461062D02*
X735555D01*
X734055Y480550D02*
X735294D01*
X732858Y460707D02*
X735201D01*
X719764Y585432D02*
X734961D01*
X734050Y480196D02*
X734940D01*
X732873Y460353D02*
X734848D01*
X733971Y479841D02*
X734585D01*
X732834Y459999D02*
X734495D01*
X720419Y580825D02*
X734306D01*
X733958Y479487D02*
X734231D01*
X732738Y459644D02*
X734141D01*
X720932Y585077D02*
X733793D01*
X732579Y459290D02*
X733788D01*
X721101Y581180D02*
X733624D01*
X732339Y458936D02*
X733434D01*
X721373Y584723D02*
X733351D01*
X721479Y581534D02*
X733245D01*
X731979Y458581D02*
X733081D01*
X721659Y584369D02*
X733066D01*
X721730Y581888D02*
X732994D01*
X721851Y584014D02*
X732874D01*
X721897Y582243D02*
X732827D01*
X721973Y583660D02*
X732752D01*
X731357Y458227D02*
X732728D01*
X721999Y582597D02*
X732725D01*
X722036Y583306D02*
X732689D01*
X722044Y582951D02*
X732680D01*
X722568Y457873D02*
X732374D01*
X731285Y457518D02*
X732021D01*
X545472Y481613D02*
X731299D01*
X545472Y481259D02*
X731299D01*
X608292Y493660D02*
X731284D01*
X545472Y480904D02*
X731283D01*
X621914Y480550D02*
X730938D01*
X545472Y481967D02*
X730863D01*
X608182Y490471D02*
X730855D01*
X666535Y480196D02*
X730572D01*
X647896Y502164D02*
X730543D01*
X607915Y494014D02*
X730290D01*
X667003Y479841D02*
X730206D01*
X545472Y482322D02*
X730068D01*
X607738Y490117D02*
X730064D01*
X647737Y501810D02*
X729868D01*
X667302Y479487D02*
X729840D01*
X715140Y541849D02*
X729742D01*
X607238Y494369D02*
X729696D01*
X721696Y458227D02*
X729667D01*
X722986Y457518D02*
X729582D01*
X545472Y482676D02*
X729537D01*
X545472Y489762D02*
X729533D01*
X715376Y532991D02*
X729506D01*
X667502Y479133D02*
X729474D01*
X647496Y501455D02*
X729388D01*
X698960Y449723D02*
X729336D01*
X549988Y494723D02*
X729256D01*
X667631Y478778D02*
X729133D01*
X545472Y483030D02*
X729132D01*
X545472Y489408D02*
X729130D01*
X687129Y458581D02*
X729045D01*
X647146Y501101D02*
X729014D01*
X723259Y457164D02*
X728963D01*
X667701Y478424D02*
X728941D01*
X550275Y495077D02*
X728910D01*
X698852Y450077D02*
X728866D01*
X667715Y478070D02*
X728863D01*
X667676Y477715D02*
X728858D01*
X667581Y477361D02*
X728858D01*
X667422Y477007D02*
X728858D01*
X667181Y476652D02*
X728858D01*
X666821Y476298D02*
X728858D01*
X666219Y475944D02*
X728858D01*
X666301Y475589D02*
X728858D01*
X666873Y475235D02*
X728858D01*
X667215Y474881D02*
X728858D01*
X667444Y474526D02*
X728858D01*
X667595Y474172D02*
X728858D01*
X667684Y473818D02*
X728858D01*
X667716Y473463D02*
X728858D01*
X667695Y473109D02*
X728858D01*
X667619Y472755D02*
X728858D01*
X667483Y472400D02*
X728858D01*
X667272Y472046D02*
X728858D01*
X666959Y471692D02*
X728858D01*
X666459Y471337D02*
X728858D01*
X686149Y470983D02*
X728858D01*
X686647Y470629D02*
X728858D01*
X686959Y470274D02*
X728858D01*
X687169Y469920D02*
X728858D01*
X687305Y469566D02*
X728858D01*
X687381Y469211D02*
X728858D01*
X687401Y468857D02*
X728858D01*
X687368Y468503D02*
X728858D01*
X687280Y468148D02*
X728858D01*
X687128Y467794D02*
X728858D01*
X722370Y467440D02*
X728858D01*
X722867Y467085D02*
X728858D01*
X723179Y466731D02*
X728858D01*
X723389Y466377D02*
X728858D01*
X723526Y466022D02*
X728852D01*
X545472Y483385D02*
X728810D01*
X545472Y489054D02*
X728808D01*
X721860Y453621D02*
X728784D01*
X545472Y462125D02*
X728772D01*
X647277Y500747D02*
X728715D01*
X686900Y458936D02*
X728685D01*
X592410Y453266D02*
X728683D01*
X550513Y495432D02*
X728630D01*
X723442Y456810D02*
X728604D01*
X698677Y450432D02*
X728566D01*
X545472Y461770D02*
X728565D01*
X545472Y483739D02*
X728548D01*
X545472Y488699D02*
X728547D01*
X723601Y465668D02*
X728510D01*
X722621Y453975D02*
X728488D01*
X716398Y541495D02*
X728483D01*
X545472Y462479D02*
X728477D01*
X647589Y500392D02*
X728471D01*
X686558Y459290D02*
X728445D01*
X592066Y452912D02*
X728443D01*
X716479Y533345D02*
X728403D01*
X550710Y495786D02*
X728402D01*
X698415Y450786D02*
X728365D01*
X723557Y456455D02*
X728364D01*
X545472Y461416D02*
X728364D01*
X545472Y484093D02*
X728336D01*
X545472Y488345D02*
X728334D01*
X723019Y454329D02*
X728286D01*
X685986Y459644D02*
X728285D01*
X591492Y452558D02*
X728284D01*
X647799Y500038D02*
X728273D01*
X723622Y465314D02*
X728237D01*
X698019Y451140D02*
X728235D01*
X545472Y461062D02*
X728235D01*
X550872Y496140D02*
X728217D01*
X545472Y462833D02*
X728214D01*
X723614Y456101D02*
X728205D01*
X545472Y459999D02*
X728190D01*
X589924Y452203D02*
X728189D01*
X697263Y451495D02*
X728166D01*
X545472Y460707D02*
X728166D01*
X545472Y484448D02*
X728165D01*
X545472Y487991D02*
X728163D01*
X723282Y454684D02*
X728157D01*
X545472Y460353D02*
X728151D01*
X589959Y451849D02*
X728151D01*
X647935Y499684D02*
X728115D01*
X723617Y455747D02*
X728111D01*
X723457Y455038D02*
X728087D01*
X723566Y455392D02*
X728072D01*
X551001Y496495D02*
X728071D01*
X723589Y464959D02*
X728054D01*
X722201Y463188D02*
X728039D01*
X545472Y484802D02*
X728029D01*
X545472Y487637D02*
X728029D01*
X648011Y499329D02*
X727991D01*
X646610Y496849D02*
X727958D01*
X723500Y464605D02*
X727939D01*
X722775Y463542D02*
X727930D01*
X545472Y485156D02*
X727927D01*
X545472Y487282D02*
X727927D01*
X648031Y498975D02*
X727900D01*
X723348Y464251D02*
X727882D01*
X723118Y463896D02*
X727879D01*
X647184Y497203D02*
X727876D01*
X545472Y485511D02*
X727856D01*
X545472Y486928D02*
X727855D01*
X717043Y541140D02*
X727839D01*
X647998Y498621D02*
X727838D01*
X647528Y497558D02*
X727824D01*
X545472Y485865D02*
X727813D01*
X545472Y486574D02*
X727813D01*
X647910Y498266D02*
X727805D01*
X647758Y497912D02*
X727801D01*
X545472Y486219D02*
X727799D01*
X717097Y533699D02*
X727784D01*
X717509Y540786D02*
X727373D01*
X717550Y534054D02*
X727331D01*
X717872Y540432D02*
X727009D01*
X717906Y534408D02*
X726976D01*
X718165Y540077D02*
X726717D01*
X718192Y534762D02*
X726690D01*
X718403Y539723D02*
X726478D01*
X718426Y535117D02*
X726456D01*
X712932Y560983D02*
X726312D01*
X718597Y539369D02*
X726285D01*
X718614Y535471D02*
X726267D01*
X718751Y539014D02*
X726131D01*
X718765Y535825D02*
X726117D01*
X718871Y538660D02*
X726011D01*
X712577Y560629D02*
X726003D01*
X718882Y536180D02*
X726000D01*
X718959Y538306D02*
X725923D01*
X718967Y536534D02*
X725915D01*
X719017Y537951D02*
X725865D01*
X719022Y536888D02*
X725860D01*
X719047Y537597D02*
X725835D01*
X719048Y537243D02*
X725833D01*
X712223Y560274D02*
X725648D01*
X711869Y559920D02*
X725294D01*
X711514Y559566D02*
X724940D01*
X545472Y524133D02*
X723837D01*
X545472Y515274D02*
X723601D01*
X711160Y559211D02*
X723377D01*
X647946Y503581D02*
X723113D01*
X545472Y512085D02*
X722869D01*
X711016Y558857D02*
X722846D01*
X545472Y523778D02*
X722578D01*
X711018Y558503D02*
X722519D01*
X545472Y515629D02*
X722498D01*
X710967Y558148D02*
X722299D01*
X647817Y503936D02*
X722265D01*
X686046Y556022D02*
X722227D01*
X709261Y556377D02*
X722156D01*
X710859Y557794D02*
X722156D01*
X545472Y511731D02*
X722122D01*
X710023Y556731D02*
X722074D01*
X710683Y557440D02*
X722074D01*
X710421Y557085D02*
X722047D01*
X545472Y523424D02*
X721934D01*
X545472Y515983D02*
X721879D01*
X647617Y504290D02*
X721714D01*
X545472Y511377D02*
X721609D01*
X545472Y523070D02*
X721468D01*
X545472Y516337D02*
X721426D01*
X647318Y504644D02*
X721298D01*
X545472Y511022D02*
X721216D01*
X545472Y522715D02*
X721104D01*
X545472Y516692D02*
X721071D01*
X646850Y504999D02*
X720968D01*
X545472Y510668D02*
X720902D01*
X687280Y458227D02*
X720823D01*
X545472Y522361D02*
X720811D01*
X545472Y517046D02*
X720784D01*
X585855Y416416D02*
X720715D01*
X641558Y505353D02*
X720701D01*
X592640Y453621D02*
X720660D01*
X545472Y510314D02*
X720647D01*
X545472Y522007D02*
X720573D01*
X545472Y517400D02*
X720551D01*
X641809Y505707D02*
X720483D01*
X545472Y509959D02*
X720440D01*
X687587Y422085D02*
X720430D01*
X557283Y426337D02*
X720424D01*
X545472Y521652D02*
X720380D01*
X545472Y517755D02*
X720362D01*
X545472Y463188D02*
X720319D01*
X641976Y506062D02*
X720308D01*
X545472Y509605D02*
X720273D01*
X545472Y521298D02*
X720225D01*
X686269Y412164D02*
X720214D01*
X545472Y518109D02*
X720211D01*
X642078Y506416D02*
X720169D01*
X686898Y467440D02*
X720150D01*
X639843Y509251D02*
X720142D01*
X545472Y520944D02*
X720105D01*
X545472Y518463D02*
X720095D01*
X642123Y506770D02*
X720063D01*
X641010Y508896D02*
X720043D01*
X586425Y416062D02*
X720038D01*
X545472Y520589D02*
X720017D01*
X545472Y518818D02*
X720010D01*
X642114Y507125D02*
X719988D01*
X641452Y508542D02*
X719975D01*
X545472Y520235D02*
X719959D01*
X545472Y519172D02*
X719955D01*
X687369Y457873D02*
X719952D01*
X642051Y507479D02*
X719943D01*
X641737Y508188D02*
X719936D01*
X545472Y519881D02*
X719929D01*
X545472Y519526D02*
X719928D01*
X641929Y507833D02*
X719925D01*
X592791Y453975D02*
X719898D01*
X687524Y422440D02*
X719896D01*
X557283Y425983D02*
X719893D01*
X667696Y412518D02*
X719771D01*
X546731Y463542D02*
X719745D01*
X586852Y415707D02*
X719660D01*
X686555Y467085D02*
X719652D01*
X704409Y585432D02*
X719606D01*
X687402Y422794D02*
X719568D01*
X557283Y425629D02*
X719566D01*
X687401Y457518D02*
X719534D01*
X592880Y454329D02*
X719500D01*
X667620Y412873D02*
X719485D01*
X587190Y415353D02*
X719410D01*
X548161Y463896D02*
X719401D01*
X687210Y423148D02*
X719348D01*
X557283Y425274D02*
X719347D01*
X685981Y466731D02*
X719340D01*
X667484Y413227D02*
X719292D01*
X687380Y457164D02*
X719261D01*
X587463Y414999D02*
X719243D01*
X592913Y454684D02*
X719238D01*
X686924Y423503D02*
X719204D01*
X557283Y424920D02*
X719203D01*
X548858Y464251D02*
X719171D01*
X667274Y413581D02*
X719170D01*
X587685Y414644D02*
X719142D01*
X666959Y466377D02*
X719130D01*
X686483Y423857D02*
X719121D01*
X557283Y424566D02*
X719121D01*
X666962Y413936D02*
X719106D01*
X666464Y414290D02*
X719097D01*
X685315Y424211D02*
X719094D01*
X687304Y456810D02*
X719078D01*
X592892Y455038D02*
X719063D01*
X549365Y464605D02*
X719020D01*
X666459Y466022D02*
X718994D01*
X687168Y456455D02*
X718963D01*
X686144Y455392D02*
X718954D01*
X705064Y580825D02*
X718951D01*
X549764Y464959D02*
X718931D01*
X550359Y465668D02*
X718919D01*
X686957Y456101D02*
X718906D01*
X686644Y455747D02*
X718903D01*
X550089Y465314D02*
X718898D01*
X705577Y585077D02*
X718439D01*
X705746Y581180D02*
X718269D01*
X706019Y584723D02*
X717997D01*
X706125Y581534D02*
X717891D01*
X706304Y584369D02*
X717711D01*
X706376Y581888D02*
X717640D01*
X706496Y584014D02*
X717519D01*
X706543Y582243D02*
X717473D01*
X706618Y583660D02*
X717397D01*
X706645Y582597D02*
X717371D01*
X706681Y583306D02*
X717335D01*
X706690Y582951D02*
X717326D01*
X716576Y399054D02*
X717144D01*
X660277Y541849D02*
X713994D01*
X677057Y532991D02*
X713758D01*
X691190Y541495D02*
X712735D01*
X677418Y533345D02*
X712655D01*
X691266Y406849D02*
X712474D01*
X691494Y398345D02*
X712246D01*
X691721Y541140D02*
X712091D01*
X677658Y533699D02*
X712036D01*
X692110Y406495D02*
X711630D01*
X692048Y540786D02*
X711625D01*
X677817Y534054D02*
X711583D01*
X692244Y398699D02*
X711496D01*
X692268Y540432D02*
X711261D01*
X677912Y534408D02*
X711228D01*
X692659Y406140D02*
X711081D01*
X692757Y399054D02*
X710983D01*
X692411Y540077D02*
X710969D01*
X677951Y534762D02*
X710941D01*
X692493Y539723D02*
X710730D01*
X677937Y535117D02*
X710708D01*
X693074Y405786D02*
X710666D01*
X693151Y399408D02*
X710589D01*
X692520Y539369D02*
X710537D01*
X677868Y535471D02*
X710519D01*
X692493Y539014D02*
X710383D01*
X697814Y562400D02*
X710371D01*
X677739Y535825D02*
X710369D01*
X693404Y405432D02*
X710336D01*
X693466Y399762D02*
X710274D01*
X692410Y538660D02*
X710263D01*
X677538Y536180D02*
X710252D01*
X692266Y538306D02*
X710175D01*
X677239Y536534D02*
X710167D01*
X692046Y537951D02*
X710116D01*
X676771Y536888D02*
X710112D01*
X697459Y562046D02*
X710097D01*
X691718Y537597D02*
X710087D01*
X691185Y537243D02*
X710085D01*
X693671Y405077D02*
X710069D01*
X693722Y400117D02*
X710019D01*
X693888Y404723D02*
X709852D01*
X693929Y400471D02*
X709811D01*
X697105Y561692D02*
X709743D01*
X694064Y404369D02*
X709677D01*
X694096Y400825D02*
X709644D01*
X694202Y404014D02*
X709538D01*
X694228Y401180D02*
X709513D01*
X694308Y403660D02*
X709433D01*
X694326Y401534D02*
X709414D01*
X696751Y561337D02*
X709389D01*
X694382Y403306D02*
X709358D01*
X694394Y401888D02*
X709346D01*
X694428Y402951D02*
X709312D01*
X694434Y402243D02*
X709306D01*
X694445Y402597D02*
X709295D01*
X545472Y578699D02*
X708225D01*
X696396Y560983D02*
X708225D01*
X630219Y574093D02*
X708061D01*
X685692Y556377D02*
X708061D01*
X545472Y578345D02*
X707354D01*
X696042Y560629D02*
X707354D01*
X630082Y574448D02*
X707300D01*
X692942Y556731D02*
X707300D01*
X545472Y577991D02*
X706936D01*
X695688Y560274D02*
X706936D01*
X629872Y574802D02*
X706902D01*
X693824Y557085D02*
X706902D01*
X545472Y577637D02*
X706662D01*
X695333Y559920D02*
X706662D01*
X629560Y575156D02*
X706640D01*
X694243Y557440D02*
X706640D01*
X545472Y577282D02*
X706479D01*
X694979Y559566D02*
X706479D01*
X629063Y575511D02*
X706464D01*
X694517Y557794D02*
X706464D01*
X545472Y576928D02*
X706364D01*
X694877Y559211D02*
X706364D01*
X545472Y575865D02*
X706356D01*
X694701Y558148D02*
X706356D01*
X545472Y576574D02*
X706307D01*
X694874Y558857D02*
X706307D01*
X545472Y576219D02*
X706305D01*
X694816Y558503D02*
X706305D01*
X688268Y585432D02*
X704252D01*
X688923Y580825D02*
X703597D01*
X689435Y585077D02*
X703084D01*
X689605Y581180D02*
X702915D01*
X689877Y584723D02*
X702642D01*
X689983Y581534D02*
X702537D01*
X690163Y584369D02*
X702357D01*
X690234Y581888D02*
X702286D01*
X690355Y584014D02*
X702165D01*
X690401Y582243D02*
X702118D01*
X690477Y583660D02*
X702043D01*
X690503Y582597D02*
X702016D01*
X690539Y583306D02*
X701980D01*
X690548Y582951D02*
X701972D01*
X684583Y446888D02*
X696231D01*
X684385Y432361D02*
X696109D01*
X589944Y451495D02*
X696044D01*
X557283Y428109D02*
X695608D01*
X684242Y432007D02*
X695431D01*
X684527Y447243D02*
X695350D01*
X590988Y451140D02*
X695288D01*
X672459Y563818D02*
X695210D01*
X557283Y428463D02*
X695165D01*
X684055Y431652D02*
X695054D01*
X672105Y563463D02*
X694979D01*
X684438Y447597D02*
X694930D01*
X591859Y450786D02*
X694892D01*
X557283Y428818D02*
X694878D01*
X683818Y431298D02*
X694804D01*
X557283Y429172D02*
X694686D01*
X684312Y447951D02*
X694656D01*
X683518Y430944D02*
X694637D01*
X674355Y450432D02*
X694630D01*
X671751Y563109D02*
X694625D01*
X557283Y429526D02*
X694564D01*
X683131Y430589D02*
X694536D01*
X681767Y429881D02*
X694500D01*
X682608Y430235D02*
X694491D01*
X684145Y448306D02*
X694472D01*
X682215Y450077D02*
X694455D01*
X683932Y448660D02*
X694357D01*
X682867Y449723D02*
X694347D01*
X683662Y449014D02*
X694300D01*
X683319Y449369D02*
X694296D01*
X671396Y562755D02*
X694270D01*
X671042Y562400D02*
X693916D01*
X670688Y562046D02*
X693562D01*
X670333Y561692D02*
X693207D01*
X685337Y556731D02*
X692097D01*
X669979Y561337D02*
X691910D01*
X684983Y557085D02*
X691216D01*
X669625Y560983D02*
X691155D01*
X684629Y557440D02*
X690796D01*
X669270Y560629D02*
X690758D01*
X684274Y557794D02*
X690522D01*
X668916Y560274D02*
X690496D01*
X683911Y558148D02*
X690338D01*
X668562Y559920D02*
X690321D01*
X681822Y558503D02*
X690223D01*
X668207Y559566D02*
X690213D01*
X681485Y558857D02*
X690166D01*
X680954Y559211D02*
X690163D01*
X545472Y537243D02*
X689130D01*
X660655Y541495D02*
X689125D01*
X667631Y406849D02*
X688655D01*
X545472Y537597D02*
X688596D01*
X660905Y541140D02*
X688594D01*
X557283Y398345D02*
X688427D01*
X660101Y537951D02*
X688269D01*
X661072Y540786D02*
X688267D01*
X672913Y585432D02*
X688110D01*
X660544Y538306D02*
X688049D01*
X661173Y540432D02*
X688047D01*
X660830Y538660D02*
X687904D01*
X661218Y540077D02*
X687904D01*
X661023Y539014D02*
X687822D01*
X661209Y539723D02*
X687822D01*
X667501Y406495D02*
X687811D01*
X661145Y539369D02*
X687795D01*
X557283Y398699D02*
X687678D01*
X673568Y580825D02*
X687455D01*
X667300Y406140D02*
X687262D01*
X557283Y399054D02*
X687164D01*
X674081Y585077D02*
X686942D01*
X667000Y405786D02*
X686847D01*
X674250Y581180D02*
X686773D01*
X557283Y399408D02*
X686770D01*
X666531Y405432D02*
X686517D01*
X674523Y584723D02*
X686501D01*
X557283Y399762D02*
X686455D01*
X674629Y581534D02*
X686395D01*
X666146Y405077D02*
X686250D01*
X674808Y584369D02*
X686215D01*
X557283Y400117D02*
X686200D01*
X674880Y581888D02*
X686144D01*
X666662Y404723D02*
X686033D01*
X675000Y584014D02*
X686023D01*
X665954Y400471D02*
X685992D01*
X675047Y582243D02*
X685977D01*
X675122Y583660D02*
X685901D01*
X675149Y582597D02*
X685875D01*
X667080Y404369D02*
X685858D01*
X675185Y583306D02*
X685838D01*
X675194Y582951D02*
X685830D01*
X666716Y400825D02*
X685825D01*
X667353Y404014D02*
X685719D01*
X667114Y401180D02*
X685694D01*
X667537Y403660D02*
X685614D01*
X667376Y401534D02*
X685595D01*
X667652Y403306D02*
X685539D01*
X667552Y401888D02*
X685527D01*
X667708Y402951D02*
X685494D01*
X667660Y402243D02*
X685488D01*
X667711Y402597D02*
X685477D01*
X557283Y424211D02*
X685157D01*
X557283Y419605D02*
X684502D01*
X667677Y407912D02*
X684209D01*
X667716Y412164D02*
X684204D01*
X667272Y466731D02*
X684098D01*
X545472Y459644D02*
X684092D01*
X557283Y423857D02*
X683990D01*
X592817Y455392D02*
X683934D01*
X550584Y470983D02*
X683930D01*
X557283Y419959D02*
X683821D01*
X667582Y408266D02*
X683675D01*
X667683Y411810D02*
X683672D01*
X557283Y423503D02*
X683548D01*
X660457Y554605D02*
X683546D01*
X667483Y467085D02*
X683524D01*
X545472Y459290D02*
X683521D01*
X557283Y420314D02*
X683442D01*
X592681Y455747D02*
X683435D01*
X550769Y470629D02*
X683432D01*
X667423Y408621D02*
X683347D01*
X667595Y411455D02*
X683345D01*
X557283Y423148D02*
X683263D01*
X680948Y554959D02*
X683212D01*
X557283Y420668D02*
X683191D01*
X667619Y467440D02*
X683181D01*
X545472Y458936D02*
X683179D01*
X667183Y408975D02*
X683127D01*
X667443Y411101D02*
X683126D01*
X592471Y456101D02*
X683122D01*
X666301Y470274D02*
X683120D01*
X557283Y422794D02*
X683071D01*
X557283Y421022D02*
X683024D01*
X666824Y409329D02*
X682983D01*
X667213Y410747D02*
X682982D01*
X667695Y467794D02*
X682951D01*
X545472Y458581D02*
X682949D01*
X557283Y422440D02*
X682949D01*
X557283Y421377D02*
X682922D01*
X592159Y456455D02*
X682911D01*
X666873Y469920D02*
X682910D01*
X666222Y409684D02*
X682901D01*
X666869Y410392D02*
X682901D01*
X557283Y422085D02*
X682886D01*
X557283Y421731D02*
X682877D01*
X666295Y410038D02*
X682874D01*
X681482Y555314D02*
X682857D01*
X667716Y468148D02*
X682799D01*
X545472Y458227D02*
X682798D01*
X591661Y456810D02*
X682774D01*
X667215Y469566D02*
X682774D01*
X667684Y468503D02*
X682710D01*
X545472Y457873D02*
X682710D01*
X545472Y457164D02*
X682698D01*
X667444Y469211D02*
X682698D01*
X667595Y468857D02*
X682677D01*
X545472Y457518D02*
X682677D01*
X681819Y555668D02*
X682500D01*
X674539Y442637D02*
X679717D01*
X674574Y429881D02*
X679571D01*
X674660Y437322D02*
X679219D01*
X674683Y450077D02*
X679123D01*
X660103Y554959D02*
X678894D01*
X667853Y559211D02*
X678889D01*
X674751Y442991D02*
X678802D01*
X674763Y430235D02*
X678730D01*
X674791Y436967D02*
X678531D01*
X674796Y449723D02*
X678471D01*
X665114Y555314D02*
X678360D01*
X667499Y558857D02*
X678357D01*
X674803Y443345D02*
X678257D01*
X674803Y430589D02*
X678207D01*
X674803Y436613D02*
X678064D01*
X665688Y555668D02*
X678032D01*
X667144Y558503D02*
X678031D01*
X674803Y449369D02*
X678020D01*
X674803Y443699D02*
X677859D01*
X674803Y430944D02*
X677821D01*
X666032Y556022D02*
X677812D01*
X666790Y558148D02*
X677811D01*
X674803Y436259D02*
X677710D01*
X674803Y449014D02*
X677676D01*
X666262Y556377D02*
X677668D01*
X666516Y557794D02*
X677667D01*
X666413Y556731D02*
X677586D01*
X666535Y557440D02*
X677586D01*
X666502Y557085D02*
X677559D01*
X674803Y444054D02*
X677551D01*
X674803Y431298D02*
X677521D01*
X674803Y435904D02*
X677434D01*
X674803Y448660D02*
X677407D01*
X674803Y444408D02*
X677307D01*
X674803Y431652D02*
X677284D01*
X674803Y435550D02*
X677215D01*
X674803Y448306D02*
X677194D01*
X674803Y444762D02*
X677115D01*
X674803Y432007D02*
X677097D01*
X674803Y435196D02*
X677043D01*
X674803Y447951D02*
X677027D01*
X674803Y445117D02*
X676967D01*
X674803Y432361D02*
X676953D01*
X674803Y434841D02*
X676913D01*
X674803Y447597D02*
X676901D01*
X674803Y445471D02*
X676858D01*
X674803Y432715D02*
X676848D01*
X674803Y434487D02*
X676820D01*
X674803Y447243D02*
X676812D01*
X674803Y445825D02*
X676783D01*
X674803Y433070D02*
X676777D01*
X674803Y434133D02*
X676761D01*
X674803Y446888D02*
X676756D01*
X674803Y446180D02*
X676742D01*
X674803Y433424D02*
X676739D01*
X674803Y433778D02*
X676734D01*
X674803Y446534D02*
X676733D01*
X545472Y532637D02*
X674746D01*
X545472Y536888D02*
X674410D01*
X545472Y532991D02*
X674124D01*
X545472Y536534D02*
X673942D01*
X545472Y533345D02*
X673764D01*
X545472Y536180D02*
X673643D01*
X545472Y533699D02*
X673523D01*
X545472Y535825D02*
X673443D01*
X545472Y534054D02*
X673364D01*
X545472Y535471D02*
X673314D01*
X545472Y534408D02*
X673269D01*
X545472Y535117D02*
X673244D01*
X545472Y534762D02*
X673230D01*
X629016Y585432D02*
X672756D01*
X629671Y580825D02*
X672101D01*
X630183Y585077D02*
X671588D01*
X651575Y566652D02*
X671584D01*
X630353Y581180D02*
X671419D01*
X630625Y584723D02*
X671146D01*
X651575Y566298D02*
X671042D01*
X630731Y581534D02*
X671041D01*
X630911Y584369D02*
X670861D01*
X630982Y581888D02*
X670790D01*
X651575Y565944D02*
X670688D01*
X631103Y584014D02*
X670669D01*
X631149Y582243D02*
X670622D01*
X631225Y583660D02*
X670547D01*
X631251Y582597D02*
X670520D01*
X631288Y583306D02*
X670484D01*
X631296Y582951D02*
X670475D01*
X651575Y565589D02*
X670333D01*
X651575Y565235D02*
X669979D01*
X651575Y564881D02*
X669625D01*
X651575Y564526D02*
X669270D01*
X651575Y564172D02*
X668916D01*
X651575Y563818D02*
X668562D01*
X651605Y563463D02*
X668207D01*
X651953Y563109D02*
X667853D01*
X652307Y562755D02*
X667499D01*
X652662Y562400D02*
X667144D01*
X557283Y437676D02*
X667050D01*
X592277Y450432D02*
X666984D01*
X545472Y442637D02*
X666799D01*
X653016Y562046D02*
X666790D01*
X557283Y429881D02*
X666764D01*
X557283Y437322D02*
X666678D01*
X592550Y450077D02*
X666656D01*
X545472Y442991D02*
X666588D01*
X557283Y430235D02*
X666575D01*
X565397Y436967D02*
X666548D01*
X592733Y449723D02*
X666542D01*
X592849Y449369D02*
X666535D01*
X592905Y449014D02*
X666535D01*
X592908Y448660D02*
X666535D01*
X592857Y448306D02*
X666535D01*
X592748Y447951D02*
X666535D01*
X592573Y447597D02*
X666535D01*
X592311Y447243D02*
X666535D01*
X591913Y446888D02*
X666535D01*
X591151Y446534D02*
X666535D01*
X545472Y446180D02*
X666535D01*
X545472Y445825D02*
X666535D01*
X545472Y445471D02*
X666535D01*
X545472Y445117D02*
X666535D01*
X545472Y444762D02*
X666535D01*
X545472Y444408D02*
X666535D01*
X545472Y444054D02*
X666535D01*
X545472Y443699D02*
X666535D01*
X545472Y443345D02*
X666535D01*
X566268Y436613D02*
X666535D01*
X566687Y436259D02*
X666535D01*
X566960Y435904D02*
X666535D01*
X567143Y435550D02*
X666535D01*
X567258Y435196D02*
X666535D01*
X567315Y434841D02*
X666535D01*
X567318Y434487D02*
X666535D01*
X567266Y434133D02*
X666535D01*
X567158Y433778D02*
X666535D01*
X566982Y433424D02*
X666535D01*
X566720Y433070D02*
X666535D01*
X566322Y432715D02*
X666535D01*
X565561Y432361D02*
X666535D01*
X557283Y432007D02*
X666535D01*
X557283Y431652D02*
X666535D01*
X557283Y431298D02*
X666535D01*
X557283Y430944D02*
X666535D01*
X557283Y430589D02*
X666535D01*
X653370Y561692D02*
X666436D01*
X653725Y561337D02*
X666081D01*
X654079Y560983D02*
X665727D01*
X654433Y560629D02*
X665373D01*
X654788Y560274D02*
X665018D01*
X659852Y400471D02*
X664754D01*
X655142Y559920D02*
X664664D01*
X659688Y405077D02*
X664563D01*
X660097Y475944D02*
X664490D01*
X658332Y409684D02*
X664486D01*
X587566Y410038D02*
X664413D01*
X545472Y475589D02*
X664407D01*
X550919Y470274D02*
X664407D01*
X550360Y471337D02*
X664249D01*
X550582Y466022D02*
X664249D01*
X587865Y414290D02*
X664245D01*
X658658Y405432D02*
X664178D01*
X660433Y480196D02*
X664174D01*
X660560Y404723D02*
X664047D01*
X660613Y400825D02*
X663993D01*
X660719Y476298D02*
X663888D01*
X658950Y409329D02*
X663884D01*
X587769Y410392D02*
X663839D01*
X545472Y475235D02*
X663836D01*
X551039Y469920D02*
X663836D01*
X550091Y471692D02*
X663750D01*
X550767Y466377D02*
X663750D01*
X588007Y413936D02*
X663747D01*
X659126Y405786D02*
X663708D01*
X660901Y479841D02*
X663706D01*
X660978Y404369D02*
X663628D01*
X661012Y401180D02*
X663595D01*
X661079Y476652D02*
X663527D01*
X659309Y408975D02*
X663525D01*
X587931Y410747D02*
X663496D01*
X545472Y474881D02*
X663494D01*
X551130Y469566D02*
X663494D01*
X549767Y472046D02*
X663437D01*
X550918Y466731D02*
X663437D01*
X588116Y413581D02*
X663435D01*
X659426Y406140D02*
X663409D01*
X661199Y479487D02*
X663407D01*
X661251Y404014D02*
X663355D01*
X661274Y401534D02*
X663333D01*
X661319Y477007D02*
X663287D01*
X659549Y408621D02*
X663286D01*
X588059Y411101D02*
X663266D01*
X545472Y474526D02*
X663264D01*
X551194Y469211D02*
X663264D01*
X659748Y555314D02*
X663232D01*
X549368Y472400D02*
X663226D01*
X551038Y467085D02*
X663226D01*
X588194Y413227D02*
X663225D01*
X659627Y406495D02*
X663208D01*
X661400Y479133D02*
X663206D01*
X661434Y403660D02*
X663172D01*
X661449Y401888D02*
X663157D01*
X661479Y477361D02*
X663128D01*
X659708Y408266D02*
X663127D01*
X588154Y411455D02*
X663114D01*
X545472Y474172D02*
X663113D01*
X551232Y468857D02*
X663113D01*
X548863Y472755D02*
X663089D01*
X551129Y467440D02*
X663089D01*
X588243Y412873D02*
X663089D01*
X659757Y406849D02*
X663078D01*
X661529Y478778D02*
X663077D01*
X655496Y559566D02*
X663063D01*
X661549Y403306D02*
X663057D01*
X661558Y402243D02*
X663049D01*
X661574Y477715D02*
X663032D01*
X659803Y407912D02*
X663032D01*
X588219Y411810D02*
X663025D01*
X545472Y473818D02*
X663025D01*
X551244Y468503D02*
X663025D01*
X548167Y473109D02*
X663013D01*
X551193Y467794D02*
X663013D01*
X588263Y412518D02*
X663013D01*
X659826Y407203D02*
X663008D01*
X661598Y478424D02*
X663008D01*
X661606Y402951D02*
X663000D01*
X661609Y402597D02*
X662997D01*
X661613Y478070D02*
X662993D01*
X659841Y407558D02*
X662993D01*
X588255Y412164D02*
X662992D01*
X546758Y473463D02*
X662992D01*
X551231Y468148D02*
X662992D01*
X659394Y555668D02*
X662658D01*
X655851Y559211D02*
X662566D01*
X659040Y556022D02*
X662315D01*
X656205Y558857D02*
X662254D01*
X658685Y556377D02*
X662085D01*
X656559Y558503D02*
X662044D01*
X658331Y556731D02*
X661933D01*
X656914Y558148D02*
X661907D01*
X657977Y557085D02*
X661844D01*
X657268Y557794D02*
X661832D01*
X657622Y557440D02*
X661811D01*
X658722Y405077D02*
X658815D01*
X557283Y400471D02*
X658652D01*
X545472Y475944D02*
X658407D01*
X557283Y405077D02*
X658128D01*
X545472Y542203D02*
X658117D01*
X622533Y480196D02*
X658071D01*
X557283Y404723D02*
X657944D01*
X557283Y400825D02*
X657891D01*
X622239Y476298D02*
X657785D01*
X645177Y551416D02*
X657753D01*
X545472Y537951D02*
X657616D01*
X622892Y479841D02*
X657603D01*
X557283Y404369D02*
X657526D01*
X557283Y401180D02*
X657492D01*
X644314Y551770D02*
X657445D01*
X545472Y541849D02*
X657439D01*
X622709Y476652D02*
X657425D01*
X623132Y479487D02*
X657305D01*
X557283Y404014D02*
X657253D01*
X557283Y401534D02*
X657230D01*
X623008Y477007D02*
X657185D01*
X545472Y538306D02*
X657173D01*
X623291Y479133D02*
X657104D01*
X641765Y552125D02*
X657091D01*
X557283Y403660D02*
X657070D01*
X545472Y541495D02*
X657062D01*
X557283Y401888D02*
X657055D01*
X623210Y477361D02*
X657025D01*
X623385Y478778D02*
X656975D01*
X557283Y403306D02*
X656955D01*
X557283Y402243D02*
X656946D01*
X623339Y477715D02*
X656930D01*
X623424Y478424D02*
X656906D01*
X557283Y402951D02*
X656898D01*
X557283Y402597D02*
X656895D01*
X623409Y478070D02*
X656891D01*
X545472Y538660D02*
X656886D01*
X545472Y541140D02*
X656812D01*
X641267Y552479D02*
X656737D01*
X545472Y539014D02*
X656694D01*
X545472Y540786D02*
X656645D01*
X587316Y409684D02*
X656629D01*
X545472Y539369D02*
X656571D01*
X545472Y540432D02*
X656544D01*
X545472Y539723D02*
X656508D01*
X545472Y540077D02*
X656499D01*
X545472Y552833D02*
X656382D01*
X645534Y551062D02*
X656348D01*
X557283Y405432D02*
X656304D01*
X545472Y553188D02*
X656028D01*
X587009Y409329D02*
X656010D01*
X645889Y550707D02*
X655865D01*
X557283Y405786D02*
X655834D01*
X545472Y553542D02*
X655674D01*
X586625Y408975D02*
X655651D01*
X557283Y406140D02*
X655535D01*
X646243Y550353D02*
X655511D01*
X586128Y408621D02*
X655412D01*
X557283Y406495D02*
X655333D01*
X545472Y553896D02*
X655319D01*
X585417Y408266D02*
X655253D01*
X557283Y406849D02*
X655204D01*
X557283Y407912D02*
X655158D01*
X646597Y549999D02*
X655156D01*
X557283Y407203D02*
X655134D01*
X557283Y407558D02*
X655119D01*
X545472Y554251D02*
X654965D01*
X646952Y549644D02*
X654802D01*
X545472Y554605D02*
X654611D01*
X647306Y549290D02*
X654448D01*
X545472Y554959D02*
X654256D01*
X545472Y555314D02*
X653902D01*
X545472Y555668D02*
X653548D01*
X545472Y556022D02*
X653193D01*
X545472Y556377D02*
X652839D01*
X545472Y556731D02*
X652485D01*
X545472Y557085D02*
X652130D01*
X545472Y557440D02*
X651776D01*
X545472Y557794D02*
X651422D01*
X545472Y558148D02*
X651067D01*
X545472Y558503D02*
X650713D01*
X545472Y558857D02*
X650359D01*
X545472Y559211D02*
X650004D01*
X609076Y559566D02*
X649650D01*
X645885Y573739D02*
X649587D01*
X610179Y559920D02*
X649296D01*
X610798Y560274D02*
X648941D01*
X646641Y573385D02*
X648832D01*
X611251Y560629D02*
X648587D01*
X647037Y573030D02*
X648435D01*
X611607Y560983D02*
X648233D01*
X647299Y572676D02*
X648174D01*
X647474Y572322D02*
X647999D01*
X611893Y561337D02*
X647878D01*
X647695Y571967D02*
X647778D01*
X612126Y561692D02*
X647524D01*
X612315Y562046D02*
X647170D01*
X612466Y562400D02*
X646815D01*
X612582Y562755D02*
X646461D01*
X612667Y563109D02*
X646107D01*
X612723Y563463D02*
X645752D01*
X612749Y563818D02*
X645398D01*
X612748Y564172D02*
X645044D01*
X640705Y496849D02*
X644728D01*
X612718Y564526D02*
X644689D01*
X630294Y573739D02*
X644666D01*
X641218Y504999D02*
X644489D01*
X612660Y564881D02*
X644335D01*
X641241Y501101D02*
X644193D01*
X641279Y497203D02*
X644154D01*
X612572Y565235D02*
X644063D01*
X641371Y500747D02*
X644062D01*
X641413Y504644D02*
X644020D01*
X612452Y565589D02*
X643931D01*
X630315Y573385D02*
X643910D01*
X545472Y569133D02*
X643898D01*
X545472Y568778D02*
X643898D01*
X608841Y568424D02*
X643898D01*
X610099Y568070D02*
X643898D01*
X610744Y567715D02*
X643898D01*
X611209Y567361D02*
X643898D01*
X611573Y567007D02*
X643898D01*
X611866Y566652D02*
X643898D01*
X612104Y566298D02*
X643898D01*
X612297Y565944D02*
X643898D01*
X545472Y569487D02*
X643892D01*
X641591Y501455D02*
X643842D01*
X641622Y497558D02*
X643811D01*
X641683Y500392D02*
X643750D01*
X641711Y504290D02*
X643722D01*
X641831Y501810D02*
X643602D01*
X641852Y497912D02*
X643581D01*
X545472Y569841D02*
X643552D01*
X641893Y500038D02*
X643540D01*
X641912Y503936D02*
X643521D01*
X630282Y573030D02*
X643514D01*
X641990Y502164D02*
X643443D01*
X642004Y498266D02*
X643429D01*
X642030Y499684D02*
X643403D01*
X642041Y503581D02*
X643392D01*
X642086Y502518D02*
X643347D01*
X642093Y498621D02*
X643340D01*
X642105Y499329D02*
X643328D01*
X642110Y503227D02*
X643323D01*
X642125Y502873D02*
X643308D01*
X642126Y498975D02*
X643307D01*
X545472Y570196D02*
X643278D01*
X630193Y572676D02*
X643252D01*
X545472Y570550D02*
X643094D01*
X630041Y572322D02*
X643077D01*
X545472Y570904D02*
X642979D01*
X629811Y571967D02*
X642969D01*
X628894Y571259D02*
X642922D01*
X629468Y571613D02*
X642919D01*
X545472Y509251D02*
X639685D01*
X545472Y552479D02*
X639048D01*
X551102Y496849D02*
X638823D01*
X545472Y552125D02*
X638550D01*
X545472Y508896D02*
X638517D01*
X545472Y504999D02*
X638310D01*
X630267Y548936D02*
X638299D01*
X550186Y501101D02*
X638287D01*
X551175Y497203D02*
X638249D01*
X628031Y551770D02*
X638238D01*
X550439Y500747D02*
X638156D01*
X545472Y504644D02*
X638115D01*
X545472Y508542D02*
X638076D01*
X630312Y549290D02*
X638069D01*
X629199Y551416D02*
X638028D01*
X545472Y505353D02*
X637970D01*
X630165Y548581D02*
X637949D01*
X549881Y501455D02*
X637937D01*
X630303Y549644D02*
X637917D01*
X551222Y497558D02*
X637905D01*
X629641Y551062D02*
X637892D01*
X550649Y500392D02*
X637844D01*
X630240Y549999D02*
X637829D01*
X545472Y504290D02*
X637817D01*
X629926Y550707D02*
X637816D01*
X630118Y550353D02*
X637796D01*
X545472Y508188D02*
X637790D01*
X545472Y543975D02*
X637786D01*
X545472Y505707D02*
X637719D01*
X549510Y501810D02*
X637697D01*
X551243Y497912D02*
X637675D01*
X550822Y500038D02*
X637634D01*
X545472Y503936D02*
X637616D01*
X545472Y507833D02*
X637598D01*
X545472Y506062D02*
X637551D01*
X549046Y502164D02*
X637537D01*
X551239Y498266D02*
X637524D01*
X550962Y499684D02*
X637498D01*
X545472Y503581D02*
X637487D01*
X545472Y507479D02*
X637476D01*
X545472Y506416D02*
X637450D01*
X548429Y502518D02*
X637442D01*
X551209Y498621D02*
X637435D01*
X551072Y499329D02*
X637422D01*
X545472Y503227D02*
X637418D01*
X545472Y507125D02*
X637413D01*
X545472Y506770D02*
X637405D01*
X547443Y502873D02*
X637403D01*
X551154Y498975D02*
X637402D01*
X629998Y548227D02*
X637078D01*
X545472Y544329D02*
X637024D01*
X629747Y547873D02*
X636660D01*
X545472Y544684D02*
X636626D01*
X629368Y547518D02*
X636387D01*
X545472Y545038D02*
X636364D01*
X628686Y547164D02*
X636204D01*
X545472Y545392D02*
X636189D01*
X545472Y546810D02*
X636088D01*
X545472Y545747D02*
X636080D01*
X545472Y546455D02*
X636032D01*
X545472Y546101D02*
X636029D01*
X545472Y585432D02*
X628858D01*
X545472Y580825D02*
X628203D01*
X545472Y551770D02*
X627874D01*
X545472Y585077D02*
X627691D01*
X545472Y581180D02*
X627521D01*
X545472Y584723D02*
X627249D01*
X545472Y547164D02*
X627219D01*
X545472Y581534D02*
X627143D01*
X545472Y571259D02*
X627012D01*
X545472Y584369D02*
X626963D01*
X545472Y581888D02*
X626892D01*
X545472Y575511D02*
X626843D01*
X545472Y584014D02*
X626771D01*
X545472Y582243D02*
X626725D01*
X545472Y551416D02*
X626706D01*
X545472Y583660D02*
X626649D01*
X545472Y582597D02*
X626623D01*
X545472Y583306D02*
X626586D01*
X545472Y582951D02*
X626578D01*
X545472Y547518D02*
X626537D01*
X545472Y571613D02*
X626438D01*
X545472Y575156D02*
X626345D01*
X545472Y551062D02*
X626265D01*
X545472Y547873D02*
X626159D01*
X545472Y571967D02*
X626094D01*
X545472Y574802D02*
X626033D01*
X545472Y550707D02*
X625979D01*
X545472Y548227D02*
X625908D01*
X545472Y572322D02*
X625864D01*
X545472Y574448D02*
X625823D01*
X545472Y550353D02*
X625787D01*
X545472Y548581D02*
X625740D01*
X545472Y572676D02*
X625713D01*
X545472Y574093D02*
X625687D01*
X545472Y549999D02*
X625665D01*
X545472Y548936D02*
X625639D01*
X545472Y573030D02*
X625624D01*
X545472Y573739D02*
X625611D01*
X545472Y549644D02*
X625602D01*
X545472Y549290D02*
X625594D01*
X545472Y573385D02*
X625591D01*
X545472Y480550D02*
X620212D01*
X545472Y476298D02*
X619887D01*
X545472Y480196D02*
X619593D01*
X545472Y476652D02*
X619417D01*
X545472Y479841D02*
X619234D01*
X545472Y477007D02*
X619118D01*
X545472Y479487D02*
X618994D01*
X545472Y477361D02*
X618916D01*
X545472Y479133D02*
X618835D01*
X545472Y477715D02*
X618787D01*
X545472Y478778D02*
X618741D01*
X545472Y478070D02*
X618717D01*
X545472Y478424D02*
X618702D01*
X545472Y568424D02*
X607695D01*
X545472Y559566D02*
X607459D01*
X545472Y568070D02*
X606436D01*
X545472Y559920D02*
X606356D01*
X545472Y567715D02*
X605792D01*
X549641Y494369D02*
X605754D01*
X545472Y560274D02*
X605737D01*
X545472Y567361D02*
X605326D01*
X545472Y560629D02*
X605284D01*
X545472Y490117D02*
X605254D01*
X549211Y494014D02*
X605077D01*
X545472Y567007D02*
X604962D01*
X545472Y560983D02*
X604929D01*
X545472Y490471D02*
X604810D01*
X548655Y493660D02*
X604700D01*
X545472Y566652D02*
X604669D01*
X545472Y561337D02*
X604642D01*
X545472Y490825D02*
X604524D01*
X547846Y493306D02*
X604450D01*
X545472Y566298D02*
X604431D01*
X545472Y561692D02*
X604409D01*
X545472Y491180D02*
X604332D01*
X545485Y492951D02*
X604283D01*
X545472Y565944D02*
X604238D01*
X545472Y562046D02*
X604220D01*
X545472Y491534D02*
X604209D01*
X545472Y492597D02*
X604181D01*
X545472Y491888D02*
X604146D01*
X545472Y492243D02*
X604137D01*
X545472Y565589D02*
X604084D01*
X545472Y562400D02*
X604070D01*
X545472Y565235D02*
X603964D01*
X545472Y562755D02*
X603953D01*
X545472Y564881D02*
X603876D01*
X545472Y563109D02*
X603868D01*
X545472Y564526D02*
X603817D01*
X545472Y563463D02*
X603813D01*
X545472Y564172D02*
X603788D01*
X545472Y563818D02*
X603786D01*
X585246Y446534D02*
X589951D01*
X585755Y456810D02*
X589441D01*
X586007Y446888D02*
X589190D01*
X586253Y456455D02*
X588944D01*
X586405Y447243D02*
X588792D01*
X586565Y456101D02*
X588632D01*
X586667Y447597D02*
X588529D01*
X586775Y455747D02*
X588422D01*
X586843Y447951D02*
X588354D01*
X586911Y455392D02*
X588285D01*
X586951Y448306D02*
X588245D01*
X586975Y454329D02*
X588222D01*
X586987Y455038D02*
X588210D01*
X587000Y449014D02*
X588197D01*
X587003Y448660D02*
X588194D01*
X587008Y454684D02*
X588189D01*
X587012Y449369D02*
X588185D01*
X545472Y452203D02*
X585273D01*
X545472Y451495D02*
X585252D01*
X545472Y451849D02*
X585237D01*
X545472Y451140D02*
X584209D01*
X545472Y446534D02*
X584046D01*
X545472Y452558D02*
X583705D01*
X545472Y456810D02*
X583536D01*
X545472Y450786D02*
X583338D01*
X545472Y446888D02*
X583284D01*
X545472Y452912D02*
X583131D01*
X545472Y456455D02*
X583038D01*
X545472Y450432D02*
X582920D01*
X545472Y447243D02*
X582886D01*
X545472Y453266D02*
X582787D01*
X545472Y456101D02*
X582726D01*
X545472Y450077D02*
X582647D01*
X545472Y447597D02*
X582624D01*
X557283Y416770D02*
X582611D01*
X545472Y453621D02*
X582557D01*
X545472Y455747D02*
X582516D01*
X545472Y449723D02*
X582463D01*
X545472Y447951D02*
X582448D01*
X545472Y453975D02*
X582405D01*
X545472Y455392D02*
X582380D01*
X545472Y449369D02*
X582348D01*
X545472Y448306D02*
X582340D01*
X545472Y454329D02*
X582317D01*
X545472Y455038D02*
X582304D01*
X545472Y449014D02*
X582292D01*
X545472Y448660D02*
X582289D01*
X545472Y454684D02*
X582284D01*
X557283Y408266D02*
X582142D01*
X557283Y416416D02*
X581704D01*
X557283Y408621D02*
X581431D01*
X557283Y416062D02*
X581134D01*
X557283Y408975D02*
X580934D01*
X557283Y415707D02*
X580707D01*
X557283Y409329D02*
X580550D01*
X557283Y415353D02*
X580369D01*
X557283Y409684D02*
X580243D01*
X557283Y414999D02*
X580096D01*
X557283Y410038D02*
X579993D01*
X557283Y414644D02*
X579874D01*
X557283Y410392D02*
X579791D01*
X557283Y414290D02*
X579694D01*
X557283Y410747D02*
X579628D01*
X557283Y413936D02*
X579552D01*
X557283Y411101D02*
X579500D01*
X557283Y413581D02*
X579443D01*
X557283Y411455D02*
X579405D01*
X557283Y413227D02*
X579365D01*
X557283Y411810D02*
X579340D01*
X557283Y412873D02*
X579316D01*
X557283Y412164D02*
X579304D01*
X557283Y412518D02*
X579296D01*
X557283Y436967D02*
X564524D01*
X557283Y432361D02*
X564361D01*
X557283Y436613D02*
X563653D01*
X557283Y432715D02*
X563599D01*
X557283Y436259D02*
X563235D01*
X557283Y433070D02*
X563201D01*
X557283Y435904D02*
X562962D01*
X557283Y433424D02*
X562939D01*
X557283Y435550D02*
X562778D01*
X557283Y433778D02*
X562763D01*
X557283Y435196D02*
X562663D01*
X557283Y434133D02*
X562655D01*
X557283Y434841D02*
X562607D01*
X557283Y434487D02*
X562604D01*
X545603Y463542D02*
X545789D01*
X545611Y473463D02*
X545761D01*
X780811Y541140D02*
X782297D01*
X781166Y540786D02*
X782218D01*
X780457Y541495D02*
X781969D01*
X781521Y540432D02*
X781775D01*
X780103Y541849D02*
X781749D01*
X779748Y542203D02*
X781605D01*
X779394Y542558D02*
X781523D01*
X778685Y543266D02*
X781511D01*
X779040Y542912D02*
X781496D01*
X778543Y543621D02*
X781261D01*
X778543Y543975D02*
X781112D01*
X778543Y544329D02*
X780963D01*
X778543Y544684D02*
X780609D01*
X778541Y545038D02*
X780254D01*
X778473Y545392D02*
X779900D01*
X778295Y545747D02*
X779546D01*
X777971Y546101D02*
X779191D01*
X777616Y546455D02*
X778837D01*
X777262Y546810D02*
X778483D01*
X776908Y547164D02*
X778128D01*
X776553Y547518D02*
X777774D01*
X776199Y547873D02*
X777420D01*
X775925Y548227D02*
X777065D01*
X796398Y572676D02*
X797184D01*
X796438Y573030D02*
X797144D01*
X801398Y572676D02*
X802184D01*
X801438Y573030D02*
X802144D01*
X803053Y539723D02*
X803937D01*
X803212Y539369D02*
X803937D01*
X803307Y539014D02*
X803937D01*
X803345Y538660D02*
X803937D01*
X803330Y538306D02*
X803937D01*
X803261Y537951D02*
X803937D01*
X803131Y537597D02*
X803937D01*
X802930Y537243D02*
X803937D01*
X802630Y536888D02*
X803937D01*
X802161Y536534D02*
X803937D01*
X801533Y536180D02*
X803937D01*
X801753Y535825D02*
X803937D01*
X802108Y535471D02*
X803937D01*
X802462Y535117D02*
X803937D01*
X802816Y534762D02*
X803937D01*
X803170Y534408D02*
X803937D01*
X803411Y534054D02*
X803931D01*
X802813Y540077D02*
X803719D01*
X802454Y540432D02*
X803365D01*
X801836Y540786D02*
X803010D01*
X796438Y541140D02*
X802656D01*
X796084Y541495D02*
X802302D01*
X795730Y541849D02*
X801947D01*
X795375Y542203D02*
X801593D01*
X795021Y542558D02*
X801239D01*
X794882Y542912D02*
X800884D01*
X794882Y543266D02*
X800530D01*
X794882Y543621D02*
X800176D01*
X796793Y540786D02*
X800133D01*
X794882Y543975D02*
X799821D01*
X797147Y540432D02*
X799514D01*
X794882Y544329D02*
X799467D01*
X797501Y540077D02*
X799155D01*
X794882Y544684D02*
X799113D01*
X797856Y539723D02*
X798916D01*
X794882Y545038D02*
X798758D01*
X798210Y539369D02*
X798757D01*
X794882Y545392D02*
X798404D01*
X794882Y545747D02*
X798050D01*
X794882Y546101D02*
X797695D01*
X794882Y546455D02*
X797341D01*
X794882Y546810D02*
X796987D01*
X794882Y547164D02*
X796632D01*
X794882Y547518D02*
X796278D01*
X794882Y547873D02*
X795924D01*
X794882Y548227D02*
X795569D01*
X794943Y548581D02*
X795215D01*
X804522Y529093D02*
X819094D01*
X804519Y528739D02*
X819094D01*
X804462Y528385D02*
X819094D01*
X804347Y528030D02*
X819094D01*
X804163Y527676D02*
X819094D01*
X803889Y527322D02*
X819094D01*
X803469Y526967D02*
X819094D01*
X802588Y526613D02*
X819094D01*
X797268Y526259D02*
X819094D01*
X797622Y525904D02*
X819094D01*
X797977Y525550D02*
X819094D01*
X798331Y525196D02*
X819094D01*
X798685Y524841D02*
X819094D01*
X799040Y524487D02*
X819094D01*
X799394Y524133D02*
X819094D01*
X799748Y523778D02*
X819094D01*
X800103Y523424D02*
X819094D01*
X800457Y523070D02*
X819094D01*
X800810Y522715D02*
X819094D01*
X801050Y522361D02*
X819094D01*
X801161Y522007D02*
X819094D01*
X801181Y521652D02*
X819094D01*
X801181Y521298D02*
X819094D01*
X801181Y520944D02*
X819094D01*
X801181Y520589D02*
X819094D01*
X801181Y520235D02*
X819094D01*
X801181Y519881D02*
X819094D01*
X801181Y519526D02*
X819094D01*
X801181Y519172D02*
X819094D01*
X801181Y518818D02*
X819094D01*
X801181Y518463D02*
X819094D01*
X809528Y518109D02*
X819094D01*
X810695Y517755D02*
X819094D01*
X811137Y517400D02*
X819094D01*
X811423Y517046D02*
X819094D01*
X811614Y516692D02*
X819094D01*
X811736Y516337D02*
X819094D01*
X811799Y515983D02*
X819094D01*
X811808Y515629D02*
X819094D01*
X811763Y515274D02*
X819094D01*
X811661Y514920D02*
X819094D01*
X811494Y514566D02*
X819094D01*
X811243Y514211D02*
X819094D01*
X810864Y513857D02*
X819094D01*
X810183Y513503D02*
X819094D01*
X801181Y513148D02*
X819094D01*
X801181Y512794D02*
X819094D01*
X801181Y512440D02*
X819094D01*
X801181Y512085D02*
X819094D01*
X801181Y511731D02*
X819094D01*
X801181Y511377D02*
X819094D01*
X801181Y511022D02*
X819094D01*
X801181Y510668D02*
X819094D01*
X801281Y510314D02*
X819094D01*
X801635Y509959D02*
X819094D01*
X801989Y509605D02*
X819094D01*
X802344Y509251D02*
X819094D01*
X802698Y508896D02*
X819094D01*
X803052Y508542D02*
X819094D01*
X803407Y508188D02*
X819094D01*
X803761Y507833D02*
X819094D01*
X804115Y507479D02*
X819094D01*
X804470Y507125D02*
X819094D01*
X804824Y506770D02*
X819094D01*
X805178Y506416D02*
X819094D01*
X805533Y506062D02*
X819094D01*
X805887Y505707D02*
X819094D01*
X806241Y505353D02*
X819094D01*
X806596Y504999D02*
X819094D01*
X806950Y504644D02*
X819094D01*
X807304Y504290D02*
X819094D01*
X807659Y503936D02*
X819094D01*
X808013Y503581D02*
X819094D01*
X808367Y503227D02*
X819094D01*
X808722Y502873D02*
X819094D01*
X809076Y502518D02*
X819094D01*
X804472Y529448D02*
X819094D01*
X809430Y502164D02*
X818908D01*
X812974Y498621D02*
X818897D01*
X805915Y529802D02*
X818820D01*
X813328Y498266D02*
X818747D01*
X812619Y498975D02*
X818584D01*
X809785Y501810D02*
X818582D01*
X813682Y497912D02*
X818473D01*
X806676Y530156D02*
X818466D01*
X812265Y499329D02*
X818364D01*
X810139Y501455D02*
X818362D01*
X814037Y497558D02*
X818290D01*
X815808Y495786D02*
X818275D01*
X811911Y499684D02*
X818219D01*
X810493Y501101D02*
X818219D01*
X814391Y497203D02*
X818175D01*
X815454Y496140D02*
X818167D01*
X811556Y500038D02*
X818137D01*
X810848Y500747D02*
X818137D01*
X814745Y496849D02*
X818118D01*
X815100Y496495D02*
X818116D01*
X807075Y530511D02*
X818111D01*
X811202Y500392D02*
X818110D01*
X807337Y530865D02*
X817757D01*
X807512Y531219D02*
X817403D01*
X807621Y531574D02*
X817049D01*
X807672Y531928D02*
X816694D01*
X807669Y532282D02*
X816340D01*
X807612Y532637D02*
X815986D01*
X807497Y532991D02*
X815631D01*
X807314Y533345D02*
X815277D01*
X807041Y533699D02*
X814923D01*
X806699Y534054D02*
X814568D01*
X809112Y534408D02*
X814214D01*
X809734Y534762D02*
X813860D01*
X810095Y535117D02*
X813505D01*
X810335Y535471D02*
X813151D01*
X810494Y535825D02*
X812797D01*
X810590Y536180D02*
X812442D01*
X810629Y536534D02*
X812088D01*
X810614Y536888D02*
X811734D01*
X810545Y537243D02*
X811379D01*
X810416Y537597D02*
X811025D01*
X810382Y537951D02*
X810671D01*
X801181Y518109D02*
X809370D01*
X801181Y513503D02*
X808715D01*
X801181Y517755D02*
X808202D01*
X801181Y513857D02*
X808033D01*
X801181Y517400D02*
X807761D01*
X801181Y514211D02*
X807655D01*
X801181Y517046D02*
X807475D01*
X806693Y534408D02*
X807423D01*
X801181Y514566D02*
X807404D01*
X801181Y516692D02*
X807283D01*
X801181Y514920D02*
X807236D01*
X801181Y516337D02*
X807161D01*
X801181Y515274D02*
X807135D01*
X801181Y515983D02*
X807098D01*
X801181Y515629D02*
X807090D01*
X804555Y529802D02*
X804715D01*
X796914Y526613D02*
X801743D01*
X796559Y526967D02*
X800862D01*
X794488Y532637D02*
X800787D01*
X794488Y532282D02*
X800787D01*
X794488Y531928D02*
X800787D01*
X794488Y531574D02*
X800787D01*
X794488Y531219D02*
X800787D01*
X794488Y530865D02*
X800766D01*
X794488Y532991D02*
X800690D01*
X796205Y527322D02*
X800442D01*
X794488Y530511D02*
X800403D01*
X794488Y533345D02*
X800336D01*
X795851Y527676D02*
X800168D01*
X794488Y530156D02*
X800142D01*
X795496Y528030D02*
X799984D01*
X794488Y533699D02*
X799982D01*
X794488Y529802D02*
X799967D01*
X795142Y528385D02*
X799869D01*
X794488Y529448D02*
X799859D01*
X794788Y528739D02*
X799811D01*
X794490Y529093D02*
X799808D01*
X794488Y534054D02*
X799627D01*
X794488Y534408D02*
X799273D01*
X794488Y534762D02*
X798919D01*
X794488Y535117D02*
X798564D01*
X794488Y535471D02*
X798210D01*
X794488Y535825D02*
X797856D01*
X794488Y536180D02*
X797501D01*
X794483Y536534D02*
X797147D01*
X794405Y536888D02*
X796793D01*
X794214Y537243D02*
X796438D01*
X793879Y537597D02*
X796084D01*
X793525Y537951D02*
X795730D01*
X793171Y538306D02*
X795375D01*
X792894Y538660D02*
X795021D01*
X792913Y539014D02*
X794667D01*
X792881Y539369D02*
X794312D01*
X792792Y539723D02*
X793958D01*
X792641Y540077D02*
X793604D01*
X792412Y540432D02*
X793249D01*
X792069Y540786D02*
X792895D01*
X791498Y541140D02*
X792541D01*
X789173Y541495D02*
X792279D01*
X789173Y541849D02*
X792154D01*
X789189Y549290D02*
X792126D01*
X789005Y548936D02*
X792126D01*
X788731Y548581D02*
X792126D01*
X788312Y548227D02*
X792126D01*
X787430Y547873D02*
X792126D01*
X786772Y547518D02*
X792126D01*
X787124Y547164D02*
X792126D01*
X787478Y546810D02*
X792126D01*
X787833Y546455D02*
X792126D01*
X788187Y546101D02*
X792126D01*
X788541Y545747D02*
X792126D01*
X788881Y545392D02*
X792126D01*
X789082Y545038D02*
X792126D01*
X789166Y544684D02*
X792126D01*
X789173Y544329D02*
X792126D01*
X789173Y543975D02*
X792126D01*
X789173Y543621D02*
X792126D01*
X789173Y543266D02*
X792126D01*
X789173Y542912D02*
X792126D01*
X789173Y542558D02*
X792126D01*
X789173Y542203D02*
X792126D01*
X789305Y549644D02*
X792126D01*
X789362Y549999D02*
X791849D01*
X789365Y550353D02*
X791495D01*
X789314Y550707D02*
X791140D01*
X789206Y551062D02*
X790786D01*
X789031Y551416D02*
X790432D01*
X788770Y551770D02*
X790077D01*
X788373Y552125D02*
X789723D01*
X789204Y541140D02*
X789604D01*
X787618Y552479D02*
X789369D01*
X786320Y552833D02*
X789014D01*
X785966Y553188D02*
X788660D01*
X785611Y553542D02*
X788306D01*
X785257Y553896D02*
X787951D01*
X784903Y554251D02*
X787597D01*
X784548Y554605D02*
X787243D01*
X784194Y554959D02*
X786888D01*
X783840Y555314D02*
X786534D01*
X783451Y555668D02*
X786180D01*
X726592Y556022D02*
X785825D01*
X726662Y556377D02*
X785471D01*
X726745Y556731D02*
X785117D01*
X726772Y557085D02*
X784762D01*
X726757Y557440D02*
X784408D01*
X727066Y557794D02*
X784054D01*
X727420Y558148D02*
X783699D01*
X727774Y558503D02*
X783345D01*
X728129Y558857D02*
X782991D01*
X728483Y559211D02*
X782636D01*
X728837Y559566D02*
X782282D01*
X821341Y544329D02*
X833268D01*
X821696Y543975D02*
X833268D01*
X822050Y543621D02*
X833268D01*
X822404Y543266D02*
X833268D01*
X822759Y542912D02*
X833268D01*
X823113Y542558D02*
X833268D01*
X823467Y542203D02*
X833268D01*
X823822Y541849D02*
X833268D01*
X824176Y541495D02*
X833268D01*
X824530Y541140D02*
X833268D01*
X824885Y540786D02*
X833268D01*
X825239Y540432D02*
X833268D01*
X825593Y540077D02*
X833268D01*
X825948Y539723D02*
X833268D01*
X826302Y539369D02*
X833268D01*
X826656Y539014D02*
X833268D01*
X827010Y538660D02*
X833268D01*
X827365Y538306D02*
X833268D01*
X827719Y537951D02*
X833268D01*
X828073Y537597D02*
X833268D01*
X828428Y537243D02*
X833268D01*
X828782Y536888D02*
X833268D01*
X829136Y536534D02*
X833268D01*
X829491Y536180D02*
X833268D01*
X829845Y535825D02*
X833268D01*
X830199Y535471D02*
X833268D01*
X830554Y535117D02*
X833268D01*
X830908Y534762D02*
X833268D01*
X831262Y534408D02*
X833268D01*
X831617Y534054D02*
X833268D01*
X831963Y533699D02*
X833268D01*
X832178Y533345D02*
X833268D01*
X832272Y532991D02*
X833268D01*
X832283Y532637D02*
X833268D01*
X832283Y532282D02*
X833268D01*
X832283Y531928D02*
X833268D01*
X832283Y531574D02*
X833268D01*
X832283Y531219D02*
X833268D01*
X832283Y530865D02*
X833268D01*
X832283Y530511D02*
X833268D01*
X832283Y530156D02*
X833268D01*
X832283Y529802D02*
X833268D01*
X832283Y529448D02*
X833268D01*
X832283Y529093D02*
X833268D01*
X832283Y528739D02*
X833268D01*
X832283Y528385D02*
X833268D01*
X832283Y528030D02*
X833268D01*
X832283Y527676D02*
X833268D01*
X832283Y527322D02*
X833268D01*
X832283Y526967D02*
X833268D01*
X832283Y526613D02*
X833268D01*
X832283Y526259D02*
X833268D01*
X832283Y525904D02*
X833268D01*
X832283Y525550D02*
X833268D01*
X832283Y525196D02*
X833268D01*
X832283Y524841D02*
X833268D01*
X832283Y524487D02*
X833268D01*
X832283Y524133D02*
X833268D01*
X832283Y523778D02*
X833268D01*
X832283Y523424D02*
X833268D01*
X832283Y523070D02*
X833268D01*
X832283Y522715D02*
X833268D01*
X832283Y522361D02*
X833268D01*
X832283Y522007D02*
X833268D01*
X832283Y521652D02*
X833268D01*
X832283Y521298D02*
X833268D01*
X832283Y520944D02*
X833268D01*
X832283Y520589D02*
X833268D01*
X832283Y520235D02*
X833268D01*
X832283Y519881D02*
X833268D01*
X832283Y519526D02*
X833268D01*
X832283Y519172D02*
X833268D01*
X832283Y518818D02*
X833268D01*
X832283Y518463D02*
X833268D01*
X832283Y518109D02*
X833268D01*
X832283Y517755D02*
X833268D01*
X832283Y517400D02*
X833268D01*
X820987Y544684D02*
X833256D01*
X832554Y517046D02*
X832997D01*
X820633Y545038D02*
X832929D01*
X820278Y545392D02*
X832574D01*
X819924Y545747D02*
X832220D01*
X819570Y546101D02*
X831866D01*
X819215Y546455D02*
X831511D01*
X818861Y546810D02*
X831157D01*
X818507Y547164D02*
X830803D01*
X818152Y547518D02*
X830448D01*
X817798Y547873D02*
X830094D01*
X817444Y548227D02*
X829740D01*
X817089Y548581D02*
X829385D01*
X816735Y548936D02*
X829031D01*
X816381Y549290D02*
X828677D01*
X816026Y549644D02*
X828322D01*
X815672Y549999D02*
X827968D01*
X815318Y550353D02*
X827614D01*
X814963Y550707D02*
X827259D01*
X814609Y551062D02*
X826905D01*
X814255Y551416D02*
X826551D01*
X813900Y551770D02*
X826196D01*
X813546Y552125D02*
X825842D01*
X813192Y552479D02*
X825488D01*
X812837Y552833D02*
X825133D01*
X812483Y553188D02*
X824779D01*
X812129Y553542D02*
X824425D01*
X811774Y553896D02*
X824070D01*
X811420Y554251D02*
X823716D01*
X811066Y554605D02*
X823362D01*
X810711Y554959D02*
X823007D01*
X810357Y555314D02*
X822653D01*
X810003Y555668D02*
X822299D01*
X809648Y556022D02*
X821944D01*
X809294Y556377D02*
X821590D01*
X808940Y556731D02*
X821236D01*
X808585Y557085D02*
X820881D01*
X808231Y557440D02*
X820527D01*
X807877Y557794D02*
X820173D01*
X807522Y558148D02*
X819818D01*
X807168Y558503D02*
X819464D01*
X806814Y558857D02*
X819110D01*
X806459Y559211D02*
X818755D01*
X806105Y559566D02*
X818401D01*
X805751Y559920D02*
X818047D01*
X805669Y560274D02*
X817692D01*
X805669Y560629D02*
X817338D01*
X805669Y560983D02*
X816984D01*
X805669Y561337D02*
X816629D01*
X805669Y561692D02*
X816275D01*
X805669Y562046D02*
X815921D01*
X805669Y562400D02*
X815566D01*
X805669Y562755D02*
X815212D01*
X805669Y563109D02*
X814858D01*
X805669Y563463D02*
X814503D01*
X805669Y563818D02*
X814149D01*
X805669Y564172D02*
X813795D01*
X805669Y564526D02*
X813440D01*
X805669Y564881D02*
X813086D01*
X805669Y565235D02*
X812732D01*
X805669Y565589D02*
X812377D01*
X805669Y565944D02*
X812023D01*
X805669Y566298D02*
X811669D01*
X805669Y566652D02*
X811314D01*
X805669Y567007D02*
X810960D01*
X805669Y567361D02*
X810606D01*
X806040Y567715D02*
X810251D01*
X806480Y568070D02*
X809897D01*
X806795Y568424D02*
X809543D01*
X807030Y568778D02*
X809188D01*
X807203Y569133D02*
X808834D01*
X807325Y569487D02*
X808480D01*
X807402Y569841D02*
X808125D01*
X807482Y570196D02*
X807771D01*
G54D148*
X808661Y400197D02*
X812008Y403543D01*
Y476772*
X808661Y400197D02*
X717913D01*
X715551Y402559*
X713780*
X749921Y438819D02*
X749843D01*
X767598Y437677D02*
X773425Y443504D01*
Y448819*
X767598Y437677D02*
X750984D01*
X749843Y438819*
X768110Y436220D02*
X777559Y445669D01*
Y448819*
X768110Y436220D02*
X748543D01*
X746181Y438583*
X817520Y402953D02*
Y476772D01*
X810827Y483465*
X800748*
X800596Y483649*
X800596D02*
X797434Y486811D01*
X788780*
X816339Y401772D02*
X817520Y402953D01*
X748228Y473780D02*
X746850Y475157D01*
Y480906*
X731693Y475000D02*
X743701Y487008D01*
X733071Y465630D02*
X731693Y467008D01*
Y475000*
X730433Y455315D02*
X731769D01*
X746338Y469922*
X748228Y471812*
Y473780*
X730512Y451772D02*
X749803Y471063D01*
Y476102*
X730512Y460433D02*
X733071Y462992D01*
Y465630*
X730236Y464055D02*
Y477953D01*
X732677Y480315*
Y486220*
X777559Y448819D02*
Y449213D01*
X812008Y476772D02*
X808858Y479921D01*
X787992*
X785433Y482480*
X732677Y486220D02*
X732283D01*
X744094D02*
Y486614D01*
X743701Y487008*
X847362Y507126D02*
X834331Y494094D01*
X815551*
X799803Y509843*
Y521775*
X793110Y528468*
Y536417*
X790551Y538976*
X823425Y515354D02*
Y536024D01*
X794291Y565157*
Y570335*
X827165Y515354D02*
Y534232D01*
X799291Y562106*
Y570335*
X834646Y515354D02*
Y545270D01*
X804436Y575479*
X830906Y515354D02*
Y532816D01*
X804291Y559431*
Y570335*
X820472Y500394D02*
Y530098D01*
X789291Y561279*
Y565472*
X849243Y492717D02*
X853653Y497126D01*
X857362*
X849243Y492717D02*
X814980D01*
X798031Y509665*
Y520581*
X790551Y528061*
Y535236*
X638386Y546260D02*
X656299D01*
X658465Y548425*
X773698*
X654941Y547835D02*
X656910Y549803D01*
X777438*
X654941Y547835D02*
X646813D01*
X644253Y550394*
X640157*
X664173Y557480D02*
X672047Y565354D01*
X789173*
X789291Y565472*
X724409Y557087D02*
X728543Y561220D01*
X782576*
X708661Y558661D02*
X712598Y562598D01*
X783147*
X692520Y559055D02*
X697441Y563976D01*
X783717*
X786417Y538113D02*
Y543973D01*
X779013Y551378*
X659787*
X645276Y565889*
Y571457*
X787795Y537542D02*
Y544544D01*
X779387Y552953*
X660160*
X650197Y562916*
Y571457*
X787008Y550197D02*
X782677Y554528D01*
X685592*
X683033Y557087*
X679921*
X783465Y538780D02*
X781223D01*
X777165Y542838*
Y544958*
X773698Y548425*
X779134Y531102D02*
Y534328D01*
X781027Y536220*
X784525*
X786417Y538113*
X781890Y533465D02*
X783205Y534780D01*
X785033*
X787795Y537542*
X783858Y542913D02*
X782444Y544327D01*
Y544797*
X777438Y549803*
X802165Y528937D02*
Y533465D01*
X793504Y542126*
Y550292*
X782576Y561220*
X805315Y532087D02*
Y540430D01*
X783147Y562598*
X808268Y536614D02*
Y539426D01*
X783717Y563976*
X841732Y542323D02*
X852559D01*
X857362Y547126*
X789291Y565472D02*
Y570335D01*
X804291Y575335D02*
X804436Y575479D01*
G54D151*
X562992Y397638D03*
X573031Y399370D03*
X594488Y397835D03*
X610236Y397638D03*
X629724D03*
X683071D03*
X661417Y397441D03*
X724409Y397638D03*
X748031D03*
X801378D03*
X777559Y397441D03*
X830709Y397638D03*
X814961D03*
X846457D03*
X862205D03*
X564961Y404724D03*
X560039D03*
Y434646D03*
X564961D03*
X593504Y422244D03*
X576772Y426181D03*
X584646Y434055D03*
X569488Y433661D03*
X629921Y414173D03*
X676772Y418110D03*
X669291Y423228D03*
X649606D03*
X657480D03*
Y407480D03*
X665354Y402756D03*
X659252D03*
X665354Y412205D03*
Y407480D03*
X712126Y433307D03*
X702756Y419291D03*
X696850D03*
X708661Y425197D03*
X702756D03*
X698819Y402953D03*
X707480Y419094D03*
X712008Y427953D03*
X702756Y431102D03*
X723425Y439961D03*
Y436024D03*
X715945Y433465D03*
X708661Y431102D03*
X721457Y414173D03*
X685236Y410039D03*
Y421850D03*
X721457Y424213D03*
X696850Y430118D03*
X749921Y438819D03*
X746181Y438583D03*
X757874Y423228D03*
Y419291D03*
X752953D03*
X746063D03*
X752953Y423228D03*
X734252Y427165D03*
X738189Y429134D03*
X742126D03*
X746063Y425197D03*
X731299Y439961D03*
X727362Y436024D03*
X725591Y428346D03*
X727362Y439961D03*
X731299Y436024D03*
X745669Y432283D03*
X777559Y415354D03*
X801181Y429134D03*
X777559D03*
X801181Y415354D03*
X816339Y401772D03*
X814961Y413386D03*
X830709Y429134D03*
X814961D03*
X830709Y413386D03*
X862205D03*
X846457D03*
X563976Y471457D03*
X549803Y447835D03*
X574803Y459646D03*
X576772Y440945D03*
X587598Y451772D03*
X584646Y454724D03*
Y448819D03*
X590551D03*
Y454724D03*
X621063Y478346D03*
X623031Y441929D03*
X640748Y458661D03*
X613189Y441929D03*
X641732Y472441D03*
X647835Y466339D03*
X649606Y458661D03*
X675787Y461220D03*
X657480Y458661D03*
X669291D03*
X659252Y478150D03*
X665354D03*
Y473425D03*
Y468110D03*
X700787Y454724D03*
X706693Y448819D03*
X688976Y480315D03*
X711811Y451969D03*
X706693Y454724D03*
Y460630D03*
X700787D03*
Y448819D03*
X711614Y447008D03*
X724409Y480315D03*
X712598D03*
X700787D03*
X715748Y446063D03*
X723425Y443898D03*
X685039Y457480D03*
X721260Y465354D03*
X685039Y468898D03*
X721260Y455906D03*
X696654Y449213D03*
X730433Y455315D03*
X749803Y476102D03*
X730512Y451772D03*
Y460433D03*
X730236Y464055D03*
X736220Y463780D03*
X744094Y450787D03*
X755906Y452756D03*
X750000Y454724D03*
X744094D03*
Y458661D03*
X738189Y454724D03*
X746063Y462598D03*
X753268Y440669D03*
X740157Y471457D03*
X750000Y458661D03*
X726181Y463661D03*
X727362Y443898D03*
X738189Y450787D03*
X731299Y443898D03*
X745433Y445827D03*
X770472Y477953D03*
X773425Y448819D03*
X777559D03*
X801181Y444882D03*
X791339Y461614D03*
X802165Y476772D03*
X797244D03*
X781496Y453740D03*
X801181D03*
X792323Y476772D03*
X788583Y448031D03*
X791339Y455709D03*
X830709Y444882D03*
X814961D03*
X814567Y463386D03*
X832283Y476181D03*
X562992Y495079D03*
X548228Y513583D03*
X579724Y509843D03*
X595472D03*
X601378Y481299D03*
X606496Y492126D03*
X643701Y488189D03*
X610236Y509843D03*
X606299Y486220D03*
X639764Y506890D03*
Y502953D03*
Y499016D03*
X680118Y493110D03*
X645669Y499016D03*
Y502953D03*
X710630Y492126D03*
X700787D03*
X688976D03*
X764567Y502756D03*
X746850Y480906D03*
X746260Y513583D03*
X749803D03*
X753150Y502953D03*
X729331Y492126D03*
X753150Y498031D03*
X752953Y492913D03*
X753740Y488189D03*
X764370Y485827D03*
X753346Y514567D03*
X743504Y517717D03*
X754331Y519685D03*
X764370Y515354D03*
X788780Y486811D03*
X800394Y494094D03*
X769685Y496457D03*
X785433Y482480D03*
X795276Y518701D03*
Y511811D03*
X788386Y518701D03*
X795276Y504921D03*
X781496Y518701D03*
X788386Y504921D03*
X781496Y511811D03*
Y504921D03*
X788386Y511811D03*
X801181Y487795D03*
X793898Y490551D03*
X823425Y515354D03*
X827165D03*
X834646D03*
X830906D03*
X820472Y500394D03*
X817520Y481299D03*
Y486417D03*
X814961Y489961D03*
X810039D03*
X833465Y504724D03*
X817913Y519882D03*
X809449Y515748D03*
X820472Y496654D03*
X548031Y536024D03*
X555512Y524606D03*
X583465Y538780D03*
X575984Y545472D03*
X574803Y539370D03*
X638386Y546260D03*
X640157Y550394D03*
X637795Y542717D03*
X627953Y549409D03*
X664173Y557480D03*
X675591Y534843D03*
X679921Y557087D03*
X658858Y539961D03*
X656496Y560236D03*
X650197Y550394D03*
X672047Y557283D03*
X645079Y535827D03*
X724409Y557087D03*
X708661Y558661D03*
X692520Y559055D03*
X719291Y557087D03*
X703543Y557283D03*
X687795D03*
X723425Y539961D03*
X692913Y535433D03*
X690157Y539370D03*
X758858Y541929D03*
X759646Y523819D03*
X735236Y557087D03*
X736220Y534449D03*
X737008Y539961D03*
X752559D03*
X739370Y525197D03*
X764764Y543701D03*
X790551Y535236D03*
Y538976D03*
X787008Y550197D03*
X783465Y538780D03*
X779134Y531102D03*
X781890Y533465D03*
X783858Y542913D03*
X802165Y528937D03*
X777559Y558465D03*
X797244Y544882D03*
X769685Y543898D03*
X779724D03*
X774606D03*
X772835Y530315D03*
X800984Y538583D03*
X769685Y532874D03*
X775984D03*
X805315Y532087D03*
X808268Y536614D03*
X841732Y542323D03*
X817913Y557087D03*
X833661Y554134D03*
X812992Y554724D03*
X812795Y542323D03*
X594488Y586614D03*
X574803D03*
X633858D03*
X614173D03*
X625000Y583071D03*
X627953Y573425D03*
X628937Y583071D03*
X645276Y571457D03*
X650197D03*
X673228Y586614D03*
X653543D03*
X672835Y583071D03*
X692913Y586614D03*
X718504D03*
X708661Y576378D03*
X688189Y583071D03*
X719685D03*
X704331D03*
X740157Y586614D03*
X735039Y583071D03*
X799213Y580709D03*
X809252Y560630D03*
X838583Y566929D03*
X833858Y576772D03*
X857283Y584843D03*
X857480Y572835D03*
X857874Y566929D03*
X862205Y570866D03*
Y586614D03*
G54D153*
X588046Y377030D02*
X587509Y377768D01*
X586704Y378137*
X585630*
X584825Y377768*
X584288Y377030*
Y376292*
X584556Y375554*
X584825Y375185*
X585361Y374815*
X586972Y374077*
X587509Y373708*
X587777Y373339*
X588046Y372601*
Y371494*
X587509Y370755*
X586704Y370386*
X585630*
X584825Y370755*
X584288Y371494*
X592341Y378137D02*
Y370386D01*
X590462Y378137D02*
X594220D01*
X597978D02*
X597173Y377768D01*
X596904Y377030*
Y376292*
X597173Y375554*
X597709Y375185*
X598783Y374815*
X599588Y374446*
X600125Y373708*
X600394Y372970*
Y371863*
X600125Y371125*
X599857Y370755*
X599052Y370386*
X597978*
X597173Y370755*
X596904Y371125*
X596636Y371863*
Y372970*
X596904Y373708*
X597441Y374446*
X598246Y374815*
X599320Y375185*
X599857Y375554*
X600125Y376292*
Y377030*
X599857Y377768*
X599052Y378137*
X597978*
X606299D02*
X603615D01*
X603346Y374815*
X603615Y375185*
X604420Y375554*
X605225*
X606031Y375185*
X606568Y374446*
X606836Y373339*
X606568Y372601*
X606299Y371494*
X605762Y370755*
X604957Y370386*
X604152*
X603346Y370755*
X603078Y371125*
X602810Y371863*
X610863Y378137D02*
X610057Y377768D01*
X609520Y376661*
X609252Y374815*
Y373708*
X609520Y371863*
X610057Y370755*
X610863Y370386*
X611399*
X612205Y370755*
X612742Y371863*
X613010Y373708*
Y374815*
X612742Y376661*
X612205Y377768*
X611399Y378137*
X610863*
X617037D02*
X616231Y377768D01*
X615694Y376661*
X615426Y374815*
Y373708*
X615694Y371863*
X616231Y370755*
X617037Y370386*
X617573*
X618379Y370755*
X618916Y371863*
X619184Y373708*
Y374815*
X618916Y376661*
X618379Y377768*
X617573Y378137*
X617037*
X627774D02*
Y370386D01*
Y378137D02*
X629921Y370386D01*
X632069Y378137D02*
X629921Y370386D01*
X632069Y378137D02*
Y370386D01*
X636095Y378137D02*
X635558Y377768D01*
X635021Y377030*
X634753Y376292*
X634485Y375185*
Y373339*
X634753Y372232*
X635021Y371494*
X635558Y370755*
X636095Y370386*
X637169*
X637706Y370755*
X638243Y371494*
X638511Y372232*
X638780Y373339*
Y375185*
X638511Y376292*
X638243Y377030*
X637706Y377768*
X637169Y378137*
X636095*
X641195D02*
Y370386D01*
Y378137D02*
X643074D01*
X643880Y377768*
X644417Y377030*
X644685Y376292*
X644953Y375185*
Y373339*
X644685Y372232*
X644417Y371494*
X643880Y370755*
X643074Y370386*
X641195*
X647369Y378137D02*
Y372601D01*
X647638Y371494*
X648175Y370755*
X648980Y370386*
X649517*
X650322Y370755*
X650859Y371494*
X651127Y372601*
Y378137*
X653543D02*
Y370386D01*
X656764*
X659180Y378137D02*
Y370386D01*
Y378137D02*
X662670D01*
X659180Y374446D02*
X661328D01*
X659180Y370386D02*
X662670D01*
G54D155*
X784291Y575335D03*
X789291Y570335D03*
Y575335D03*
X794291Y570335D03*
Y575335D03*
X799291Y570335D03*
Y575335D03*
X804291Y570335D03*
Y575335D03*
G54D227*
X420276Y507126D03*
Y477126D03*
X783622Y469488D03*
X796102D03*
X680669Y446457D03*
Y433661D03*
X452756Y454724D03*
Y543307D03*
G54D235*
X773622Y469488D03*
X806102D03*
X670669Y446457D03*
Y433661D03*
X857362Y427126D03*
X410354Y477126D03*
X522402Y427244D03*
G54D238*
X847362Y427126D03*
X857362Y437126D03*
X847362D03*
X857362Y447126D03*
X847362D03*
X857362Y457126D03*
X847362D03*
X857362Y467126D03*
X847362D03*
X857362Y477126D03*
X847362D03*
X857362Y487126D03*
X847362D03*
X857362Y497126D03*
X847362D03*
X857362Y507126D03*
X847362D03*
X857362Y517126D03*
X847362D03*
X857362Y527126D03*
X847362D03*
X857362Y537126D03*
X847362D03*
X857362Y547126D03*
X847362D03*
X857362Y557126D03*
X847362D03*
X420354Y477126D03*
X410354Y487126D03*
X420354D03*
X410354Y497126D03*
X420354D03*
X410354Y507126D03*
X420354D03*
X522402Y417244D03*
X552402D03*
Y427244D03*
G54D278*
X744094Y572835D03*
X724409Y519685D03*
Y507874D03*
X608268Y563976D03*
X730315Y537402D03*
X714567D03*
X744094Y498031D03*
X732283D03*
Y486220D03*
X744094D03*
X713780Y402559D03*
X838583Y405118D03*
X689961Y402559D03*
X583780Y412441D03*
G54D308*
X354142Y614921D02*
Y644921D01*
X354142*
X358142Y629921D02*
G03X358142I-4000J0D01*
G01X362142D02*
G03X362142I-8000J0D01*
G01X905323Y614921D02*
Y644921D01*
X905323*
X909323Y629921D02*
G03X909323I-4000J0D01*
G01X913323D02*
G03X913323I-8000J0D01*
G01X354142Y339331D02*
Y369331D01*
X354142*
X358142Y354331D02*
G03X358142I-4000J0D01*
G01X362142D02*
G03X362142I-8000J0D01*
G74*
G01X0Y0D02*
M02*
