*
*
G04 PADS VX.2.1 Build Number: 5759717 generated Gerber (RS-274-X) file*
G04 PC Version=2.1*
*
%IN "STARCOM-1-DEVMODULE_Rev"*%
*
%MOIN*%
*
%FSLAX35Y35*%
*
*
*
*
G04 PC Standard Apertures*
*
*
G04 Thermal Relief Aperture macro.*
%AMTER*
1,1,$1,0,0*
1,0,$1-$2,0,0*
21,0,$3,$4,0,0,45*
21,0,$3,$4,0,0,135*
%
*
*
G04 Annular Aperture macro.*
%AMANN*
1,1,$1,0,0*
1,0,$2,0,0*
%
*
*
G04 Odd Aperture macro.*
%AMODD*
1,1,$1,0,0*
1,0,$1-0.005,0,0*
%
*
*
G04 PC Custom Aperture Macros*
*
*
*
*
*
*
G04 PC Aperture Table*
*
%ADD082C,0.01*%
%ADD088C,0.001*%
%ADD142C,0.03937*%
%ADD153C,0.00984*%
%ADD308C,0.004*%
%ADD586R,0.11024X0.14961*%
%ADD613R,0.07874X0.16535*%
*
*
*
*
G04 PC Circuitry*
G04 Layer Name STARCOM-1-DEVMODULE_Rev - circuitry*
%LPD*%
*
*
G04 PC Custom Flashes*
G04 Layer Name STARCOM-1-DEVMODULE_Rev - flashes*
%LPD*%
*
*
G04 PC Circuitry*
G04 Layer Name STARCOM-1-DEVMODULE_Rev - circuitry*
%LPD*%
*
G54D82*
G01X1015686Y474160D02*
X1016141Y474785D01*
X1016823Y475097*
X1017732*
X1018414Y474785*
X1018868Y474160*
Y473535*
X1018641Y472910*
X1018414Y472597*
X1017959Y472285*
X1016596Y471660*
X1016141Y471347*
X1015914Y471035*
X1015686Y470410*
Y469472*
X1016141Y468847*
X1016823Y468535*
X1017732*
X1018414Y468847*
X1018868Y469472*
X1012277Y475097D02*
X1012732Y474785D01*
X1013186Y474160*
X1013414Y473535*
X1013641Y472597*
Y471035*
X1013414Y470097*
X1013186Y469472*
X1012732Y468847*
X1012277Y468535*
X1011368*
X1010914Y468847*
X1010459Y469472*
X1010232Y470097*
X1010005Y471035*
Y472597*
X1010232Y473535*
X1010459Y474160*
X1010914Y474785*
X1011368Y475097*
X1012277*
X1007959D02*
Y468535D01*
X1005232*
X1003186Y475097D02*
Y468535D01*
Y475097D02*
X1001596D01*
X1000914Y474785*
X1000459Y474160*
X1000232Y473535*
X1000005Y472597*
Y471035*
X1000232Y470097*
X1000459Y469472*
X1000914Y468847*
X1001596Y468535*
X1003186*
X997959Y475097D02*
Y468535D01*
Y475097D02*
X995005D01*
X997959Y471972D02*
X996141D01*
X997959Y468535D02*
X995005D01*
X992959Y475097D02*
Y468535D01*
Y475097D02*
X990914D01*
X990232Y474785*
X990005Y474472*
X989777Y473847*
Y473222*
X990005Y472597*
X990232Y472285*
X990914Y471972*
X992959*
X991368D02*
X989777Y468535D01*
X982505Y475097D02*
Y468535D01*
Y475097D02*
X980459D01*
X979777Y474785*
X979550Y474472*
X979323Y473847*
Y472910*
X979550Y472285*
X979777Y471972*
X980459Y471660*
X982505*
X975459Y475097D02*
X977277Y468535D01*
X975459Y475097D02*
X973641Y468535D01*
X976596Y470722D02*
X974323D01*
X968414Y474160D02*
X968868Y474785D01*
X969550Y475097*
X970459*
X971141Y474785*
X971596Y474160*
Y473535*
X971368Y472910*
X971141Y472597*
X970686Y472285*
X969323Y471660*
X968868Y471347*
X968641Y471035*
X968414Y470410*
Y469472*
X968868Y468847*
X969550Y468535*
X970459*
X971141Y468847*
X971596Y469472*
X964777Y475097D02*
Y468535D01*
X966368Y475097D02*
X963186D01*
X961141D02*
Y468535D01*
Y475097D02*
X958186D01*
X961141Y471972D02*
X959323D01*
X961141Y468535D02*
X958186D01*
X950914Y475097D02*
Y468535D01*
Y475097D02*
X948868D01*
X948186Y474785*
X947959Y474472*
X947732Y473847*
Y473222*
X947959Y472597*
X948186Y472285*
X948868Y471972*
X950914D02*
X948868D01*
X948186Y471660*
X947959Y471347*
X947732Y470722*
Y469785*
X947959Y469160*
X948186Y468847*
X948868Y468535*
X950914*
X944323Y475097D02*
X944777Y474785D01*
X945232Y474160*
X945459Y473535*
X945686Y472597*
Y471035*
X945459Y470097*
X945232Y469472*
X944777Y468847*
X944323Y468535*
X943414*
X942959Y468847*
X942505Y469472*
X942277Y470097*
X942050Y471035*
Y472597*
X942277Y473535*
X942505Y474160*
X942959Y474785*
X943414Y475097*
X944323*
X938414D02*
Y468535D01*
X940005Y475097D02*
X936823D01*
X933186D02*
Y468535D01*
X934777Y475097D02*
X931596D01*
X928186D02*
X928641Y474785D01*
X929096Y474160*
X929323Y473535*
X929550Y472597*
Y471035*
X929323Y470097*
X929096Y469472*
X928641Y468847*
X928186Y468535*
X927277*
X926823Y468847*
X926368Y469472*
X926141Y470097*
X925914Y471035*
Y472597*
X926141Y473535*
X926368Y474160*
X926823Y474785*
X927277Y475097*
X928186*
X923868D02*
Y468535D01*
Y475097D02*
X922050Y468535D01*
X920232Y475097D02*
X922050Y468535D01*
X920232Y475097D02*
Y468535D01*
X354642Y629921D02*
G75*
G03X354642I-500J0D01*
G01X355142D02*
G03X355142I-1000J0D01*
G01X339142D02*
X369142D01*
X369142*
X366142D02*
G03X366142I-12000J0D01*
G01X905823D02*
G03X905823I-500J0D01*
G01X906323D02*
G03X906323I-1000J0D01*
G01X890323D02*
X920323D01*
X920323*
X917323D02*
G03X917323I-12000J0D01*
G01X354642Y354331D02*
G03X354642I-500J0D01*
G01X355142D02*
G03X355142I-1000J0D01*
G01X339142D02*
X369142D01*
X369142*
X366142D02*
G03X366142I-12000J0D01*
G54D88*
G54D142*
G01X404528Y436024D03*
X434055Y580709D03*
X856299Y403543D03*
G54D153*
X588046Y377030D02*
X587509Y377768D01*
X586704Y378137*
X585630*
X584825Y377768*
X584288Y377030*
Y376292*
X584556Y375554*
X584825Y375185*
X585361Y374815*
X586972Y374077*
X587509Y373708*
X587777Y373339*
X588046Y372601*
Y371494*
X587509Y370755*
X586704Y370386*
X585630*
X584825Y370755*
X584288Y371494*
X592341Y378137D02*
Y370386D01*
X590462Y378137D02*
X594220D01*
X597978D02*
X597173Y377768D01*
X596904Y377030*
Y376292*
X597173Y375554*
X597709Y375185*
X598783Y374815*
X599588Y374446*
X600125Y373708*
X600394Y372970*
Y371863*
X600125Y371125*
X599857Y370755*
X599052Y370386*
X597978*
X597173Y370755*
X596904Y371125*
X596636Y371863*
Y372970*
X596904Y373708*
X597441Y374446*
X598246Y374815*
X599320Y375185*
X599857Y375554*
X600125Y376292*
Y377030*
X599857Y377768*
X599052Y378137*
X597978*
X606299D02*
X603615D01*
X603346Y374815*
X603615Y375185*
X604420Y375554*
X605225*
X606031Y375185*
X606568Y374446*
X606836Y373339*
X606568Y372601*
X606299Y371494*
X605762Y370755*
X604957Y370386*
X604152*
X603346Y370755*
X603078Y371125*
X602810Y371863*
X610863Y378137D02*
X610057Y377768D01*
X609520Y376661*
X609252Y374815*
Y373708*
X609520Y371863*
X610057Y370755*
X610863Y370386*
X611399*
X612205Y370755*
X612742Y371863*
X613010Y373708*
Y374815*
X612742Y376661*
X612205Y377768*
X611399Y378137*
X610863*
X617037D02*
X616231Y377768D01*
X615694Y376661*
X615426Y374815*
Y373708*
X615694Y371863*
X616231Y370755*
X617037Y370386*
X617573*
X618379Y370755*
X618916Y371863*
X619184Y373708*
Y374815*
X618916Y376661*
X618379Y377768*
X617573Y378137*
X617037*
X627774D02*
Y370386D01*
Y378137D02*
X629921Y370386D01*
X632069Y378137D02*
X629921Y370386D01*
X632069Y378137D02*
Y370386D01*
X636095Y378137D02*
X635558Y377768D01*
X635021Y377030*
X634753Y376292*
X634485Y375185*
Y373339*
X634753Y372232*
X635021Y371494*
X635558Y370755*
X636095Y370386*
X637169*
X637706Y370755*
X638243Y371494*
X638511Y372232*
X638780Y373339*
Y375185*
X638511Y376292*
X638243Y377030*
X637706Y377768*
X637169Y378137*
X636095*
X641195D02*
Y370386D01*
Y378137D02*
X643074D01*
X643880Y377768*
X644417Y377030*
X644685Y376292*
X644953Y375185*
Y373339*
X644685Y372232*
X644417Y371494*
X643880Y370755*
X643074Y370386*
X641195*
X647369Y378137D02*
Y372601D01*
X647638Y371494*
X648175Y370755*
X648980Y370386*
X649517*
X650322Y370755*
X650859Y371494*
X651127Y372601*
Y378137*
X653543D02*
Y370386D01*
X656764*
X659180Y378137D02*
Y370386D01*
Y378137D02*
X662670D01*
X659180Y374446D02*
X661328D01*
X659180Y370386D02*
X662670D01*
G54D308*
X354142Y614921D02*
Y644921D01*
X354142*
X358142Y629921D02*
G03X358142I-4000J0D01*
G01X362142D02*
G03X362142I-8000J0D01*
G01X905323Y614921D02*
Y644921D01*
X905323*
X909323Y629921D02*
G03X909323I-4000J0D01*
G01X913323D02*
G03X913323I-8000J0D01*
G01X354142Y339331D02*
Y369331D01*
X354142*
X358142Y354331D02*
G03X358142I-4000J0D01*
G01X362142D02*
G03X362142I-8000J0D01*
G54D586*
G01X513128Y524606D03*
X545928D03*
G54D613*
X516929Y447835D03*
X542126D03*
G74*
X0Y0D02*
M02*
