*
*
G04 PADS VX.2.1 Build Number: 5759717 generated Gerber (RS-274-X) file*
G04 PC Version=2.1*
*
%IN "STARCOM-1-DEVMODULE_Rev"*%
*
%MOIN*%
*
%FSLAX35Y35*%
*
*
*
*
G04 PC Standard Apertures*
*
*
G04 Thermal Relief Aperture macro.*
%AMTER*
1,1,$1,0,0*
1,0,$1-$2,0,0*
21,0,$3,$4,0,0,45*
21,0,$3,$4,0,0,135*
%
*
*
G04 Annular Aperture macro.*
%AMANN*
1,1,$1,0,0*
1,0,$2,0,0*
%
*
*
G04 Odd Aperture macro.*
%AMODD*
1,1,$1,0,0*
1,0,$1-0.005,0,0*
%
*
*
G04 PC Custom Aperture Macros*
*
*
*
*
*
*
G04 PC Aperture Table*
*
%ADD082C,0.01*%
%ADD088C,0.001*%
%ADD134R,0.05118X0.05118*%
%ADD148C,0.00787*%
%ADD153C,0.00984*%
%ADD237R,0.06693X0.06693*%
%ADD308C,0.004*%
%ADD366R,0.07087X0.07087*%
%ADD367C,0.07087*%
%ADD386C,0.06693*%
%ADD512C,0.05118*%
%ADD532C,0.0748*%
%ADD548C,0.08268*%
%ADD575R,0.0748X0.0748*%
%ADD580C,0.07994*%
%ADD587R,0.11417X0.15354*%
%ADD588C,0.13386*%
%ADD604C,0.08994*%
%ADD615R,0.09055X0.17323*%
%ADD616C,0.00079*%
*
*
*
*
G04 PC Circuitry*
G04 Layer Name STARCOM-1-DEVMODULE_Rev - circuitry*
%LPD*%
*
*
G04 PC Custom Flashes*
G04 Layer Name STARCOM-1-DEVMODULE_Rev - flashes*
%LPD*%
*
*
G04 PC Circuitry*
G04 Layer Name STARCOM-1-DEVMODULE_Rev - circuitry*
%LPD*%
*
G54D82*
G01X1011141Y485971D02*
X1011596Y486596D01*
X1012277Y486908*
X1013186*
X1013868Y486596*
X1014323Y485971*
Y485346*
X1014096Y484721*
X1013868Y484408*
X1013414Y484096*
X1012050Y483471*
X1011596Y483158*
X1011368Y482846*
X1011141Y482221*
Y481283*
X1011596Y480658*
X1012277Y480346*
X1013186*
X1013868Y480658*
X1014323Y481283*
X1007732Y486908D02*
X1008186Y486596D01*
X1008641Y485971*
X1008868Y485346*
X1009096Y484408*
Y482846*
X1008868Y481908*
X1008641Y481283*
X1008186Y480658*
X1007732Y480346*
X1006823*
X1006368Y480658*
X1005914Y481283*
X1005686Y481908*
X1005459Y482846*
Y484408*
X1005686Y485346*
X1005914Y485971*
X1006368Y486596*
X1006823Y486908*
X1007732*
X1003414D02*
Y480346D01*
X1000686*
X998641Y486908D02*
Y480346D01*
Y486908D02*
X997050D01*
X996368Y486596*
X995914Y485971*
X995686Y485346*
X995459Y484408*
Y482846*
X995686Y481908*
X995914Y481283*
X996368Y480658*
X997050Y480346*
X998641*
X993414Y486908D02*
Y480346D01*
Y486908D02*
X990459D01*
X993414Y483783D02*
X991596D01*
X993414Y480346D02*
X990459D01*
X988414Y486908D02*
Y480346D01*
Y486908D02*
X986368D01*
X985686Y486596*
X985459Y486283*
X985232Y485658*
Y485033*
X985459Y484408*
X985686Y484096*
X986368Y483783*
X988414*
X986823D02*
X985232Y480346D01*
X977959Y486908D02*
Y480346D01*
Y486908D02*
X976141Y480346D01*
X974323Y486908D02*
X976141Y480346D01*
X974323Y486908D02*
Y480346D01*
X970459Y486908D02*
X972277Y480346D01*
X970459Y486908D02*
X968641Y480346D01*
X971596Y482533D02*
X969323D01*
X963414Y485971D02*
X963868Y486596D01*
X964550Y486908*
X965459*
X966141Y486596*
X966596Y485971*
Y485346*
X966368Y484721*
X966141Y484408*
X965686Y484096*
X964323Y483471*
X963868Y483158*
X963641Y482846*
X963414Y482221*
Y481283*
X963868Y480658*
X964550Y480346*
X965459*
X966141Y480658*
X966596Y481283*
X961368Y486908D02*
Y480346D01*
X958186Y486908D02*
X961368Y482533D01*
X960232Y484096D02*
X958186Y480346D01*
X950914Y486908D02*
Y480346D01*
Y486908D02*
X948868D01*
X948186Y486596*
X947959Y486283*
X947732Y485658*
Y485033*
X947959Y484408*
X948186Y484096*
X948868Y483783*
X950914D02*
X948868D01*
X948186Y483471*
X947959Y483158*
X947732Y482533*
Y481596*
X947959Y480971*
X948186Y480658*
X948868Y480346*
X950914*
X944323Y486908D02*
X944777Y486596D01*
X945232Y485971*
X945459Y485346*
X945686Y484408*
Y482846*
X945459Y481908*
X945232Y481283*
X944777Y480658*
X944323Y480346*
X943414*
X942959Y480658*
X942505Y481283*
X942277Y481908*
X942050Y482846*
Y484408*
X942277Y485346*
X942505Y485971*
X942959Y486596*
X943414Y486908*
X944323*
X938414D02*
Y480346D01*
X940005Y486908D02*
X936823D01*
X933186D02*
Y480346D01*
X934777Y486908D02*
X931596D01*
X928186D02*
X928641Y486596D01*
X929096Y485971*
X929323Y485346*
X929550Y484408*
Y482846*
X929323Y481908*
X929096Y481283*
X928641Y480658*
X928186Y480346*
X927277*
X926823Y480658*
X926368Y481283*
X926141Y481908*
X925914Y482846*
Y484408*
X926141Y485346*
X926368Y485971*
X926823Y486596*
X927277Y486908*
X928186*
X923868D02*
Y480346D01*
Y486908D02*
X922050Y480346D01*
X920232Y486908D02*
X922050Y480346D01*
X920232Y486908D02*
Y480346D01*
X354642Y629921D02*
G75*
G03X354642I-500J0D01*
G01X355142D02*
G03X355142I-1000J0D01*
G01X339142D02*
X369142D01*
X369142*
X366142D02*
G03X366142I-12000J0D01*
G01X905823D02*
G03X905823I-500J0D01*
G01X906323D02*
G03X906323I-1000J0D01*
G01X890323D02*
X920323D01*
X920323*
X917323D02*
G03X917323I-12000J0D01*
G01X354642Y354331D02*
G03X354642I-500J0D01*
G01X355142D02*
G03X355142I-1000J0D01*
G01X339142D02*
X369142D01*
X369142*
X366142D02*
G03X366142I-12000J0D01*
G54D88*
G54D134*
G01X784291Y570335D03*
G54D148*
X839690Y485702D02*
X835753D01*
X835015Y485523*
X834769Y485344*
X834523Y484986*
Y484628*
X834769Y484270*
X835015Y484091*
X835753Y483912*
X836245*
X838460Y487491D02*
X838706D01*
X839198Y487670*
X839444Y487849*
X839690Y488207*
Y488923*
X839444Y489281*
X839198Y489460*
X838706Y489639*
X838214*
X837721Y489460*
X836983Y489102*
X834523Y487312*
Y489817*
X839690Y492502D02*
X839444Y491965D01*
X838706Y491607*
X837475Y491428*
X836737*
X835507Y491607*
X834769Y491965*
X834523Y492502*
Y492860*
X834769Y493397*
X835507Y493754*
X836737Y493933*
X837475*
X838706Y493754*
X839444Y493397*
X839690Y492860*
Y492502*
Y496618D02*
X839444Y496081D01*
X838706Y495723*
X837475Y495544*
X836737*
X835507Y495723*
X834769Y496081*
X834523Y496618*
Y496976*
X834769Y497513*
X835507Y497870*
X836737Y498049*
X837475*
X838706Y497870*
X839444Y497513*
X839690Y496976*
Y496618*
X434769Y487097D02*
X430832D01*
X430094Y486918*
X429847Y486739*
X429601Y486382*
Y486024*
X429847Y485666*
X430094Y485487*
X430832Y485308*
X431324*
X433538Y488887D02*
X433784D01*
X434277Y489066*
X434523Y489245*
X434769Y489603*
Y490319*
X434523Y490676*
X434277Y490855*
X433784Y491034*
X433292*
X432800Y490855*
X432062Y490497*
X429601Y488708*
Y491213*
X434769Y493898D02*
X434523Y493361D01*
X433784Y493003*
X432554Y492824*
X431816*
X430586Y493003*
X429847Y493361*
X429601Y493898*
Y494256*
X429847Y494792*
X430586Y495150*
X431816Y495329*
X432554*
X433784Y495150*
X434523Y494792*
X434769Y494256*
Y493898*
X433784Y496940D02*
X434031Y497298D01*
X434769Y497835*
X429601*
X562974Y455832D02*
Y450664D01*
Y455832D02*
X561364D01*
X560827Y455586*
X560648Y455340*
X560469Y454847*
Y454355*
X560648Y453863*
X560827Y453617*
X561364Y453371*
X562974*
X561722D02*
X560469Y450664D01*
X558679Y454601D02*
Y454847D01*
X558500Y455340*
X558321Y455586*
X557963Y455832*
X557248*
X556890Y455586*
X556711Y455340*
X556532Y454847*
Y454355*
X556711Y453863*
X557069Y453125*
X558858Y450664*
X556353*
X552416Y455832D02*
X554205D01*
X554384Y453617*
X554205Y453863*
X553669Y454109*
X553132*
X552595Y453863*
X552237Y453371*
X552058Y452633*
X552237Y452141*
X552416Y451403*
X552774Y450910*
X553311Y450664*
X553848*
X554384Y450910*
X554563Y451156*
X554742Y451649*
X550447Y454847D02*
X550089Y455094D01*
X549553Y455832*
Y450664*
X567448Y540477D02*
Y535310D01*
X565301*
X563511Y539247D02*
Y539493D01*
X563332Y539985*
X563153Y540231*
X562795Y540477*
X562079*
X561722Y540231*
X561543Y539985*
X561364Y539493*
Y539001*
X561543Y538509*
X561901Y537771*
X561901D02*
X563690Y535310D01*
X561185*
X558500Y540477D02*
X559037Y540231D01*
X559395Y539493*
X559574Y538263*
Y537525*
X559395Y536294*
X559037Y535556*
X558500Y535310*
X558142*
X557606Y535556*
X557248Y536294*
X557069Y537525*
Y538263*
X557248Y539493*
X557606Y540231*
X558142Y540477*
X558500*
X555279Y539247D02*
Y539493D01*
X555100Y539985*
X554921Y540231*
X554563Y540477*
X553848*
X553490Y540231*
X553311Y539985*
X553132Y539493*
Y539001*
X553311Y538509*
X553669Y537771*
X555458Y535310*
X552953*
G54D153*
X588046Y377030D02*
X587509Y377768D01*
X586704Y378137*
X585630*
X584825Y377768*
X584288Y377030*
Y376292*
X584556Y375554*
X584825Y375185*
X585361Y374815*
X586972Y374077*
X587509Y373708*
X587777Y373339*
X588046Y372601*
Y371494*
X587509Y370755*
X586704Y370386*
X585630*
X584825Y370755*
X584288Y371494*
X592341Y378137D02*
Y370386D01*
X590462Y378137D02*
X594220D01*
X597978D02*
X597173Y377768D01*
X596904Y377030*
Y376292*
X597173Y375554*
X597709Y375185*
X598783Y374815*
X599588Y374446*
X600125Y373708*
X600394Y372970*
Y371863*
X600125Y371125*
X599857Y370755*
X599052Y370386*
X597978*
X597173Y370755*
X596904Y371125*
X596636Y371863*
Y372970*
X596904Y373708*
X597441Y374446*
X598246Y374815*
X599320Y375185*
X599857Y375554*
X600125Y376292*
Y377030*
X599857Y377768*
X599052Y378137*
X597978*
X606299D02*
X603615D01*
X603346Y374815*
X603615Y375185*
X604420Y375554*
X605225*
X606031Y375185*
X606568Y374446*
X606836Y373339*
X606568Y372601*
X606299Y371494*
X605762Y370755*
X604957Y370386*
X604152*
X603346Y370755*
X603078Y371125*
X602810Y371863*
X610863Y378137D02*
X610057Y377768D01*
X609520Y376661*
X609252Y374815*
Y373708*
X609520Y371863*
X610057Y370755*
X610863Y370386*
X611399*
X612205Y370755*
X612742Y371863*
X613010Y373708*
Y374815*
X612742Y376661*
X612205Y377768*
X611399Y378137*
X610863*
X617037D02*
X616231Y377768D01*
X615694Y376661*
X615426Y374815*
Y373708*
X615694Y371863*
X616231Y370755*
X617037Y370386*
X617573*
X618379Y370755*
X618916Y371863*
X619184Y373708*
Y374815*
X618916Y376661*
X618379Y377768*
X617573Y378137*
X617037*
X627774D02*
Y370386D01*
Y378137D02*
X629921Y370386D01*
X632069Y378137D02*
X629921Y370386D01*
X632069Y378137D02*
Y370386D01*
X636095Y378137D02*
X635558Y377768D01*
X635021Y377030*
X634753Y376292*
X634485Y375185*
Y373339*
X634753Y372232*
X635021Y371494*
X635558Y370755*
X636095Y370386*
X637169*
X637706Y370755*
X638243Y371494*
X638511Y372232*
X638780Y373339*
Y375185*
X638511Y376292*
X638243Y377030*
X637706Y377768*
X637169Y378137*
X636095*
X641195D02*
Y370386D01*
Y378137D02*
X643074D01*
X643880Y377768*
X644417Y377030*
X644685Y376292*
X644953Y375185*
Y373339*
X644685Y372232*
X644417Y371494*
X643880Y370755*
X643074Y370386*
X641195*
X647369Y378137D02*
Y372601D01*
X647638Y371494*
X648175Y370755*
X648980Y370386*
X649517*
X650322Y370755*
X650859Y371494*
X651127Y372601*
Y378137*
X653543D02*
Y370386D01*
X656764*
X659180Y378137D02*
Y370386D01*
Y378137D02*
X662670D01*
X659180Y374446D02*
X661328D01*
X659180Y370386D02*
X662670D01*
G54D237*
X857362Y427126D03*
G54D308*
X354142Y614921D02*
Y644921D01*
X354142*
X358142Y629921D02*
G03X358142I-4000J0D01*
G01X362142D02*
G03X362142I-8000J0D01*
G01X905323Y614921D02*
Y644921D01*
X905323*
X909323Y629921D02*
G03X909323I-4000J0D01*
G01X913323D02*
G03X913323I-8000J0D01*
G01X354142Y339331D02*
Y369331D01*
X354142*
X358142Y354331D02*
G03X358142I-4000J0D01*
G01X362142D02*
G03X362142I-8000J0D01*
G54D366*
G01X773622Y469488D03*
X806102D03*
X670669Y446457D03*
Y433661D03*
G54D367*
X420276Y507126D03*
Y477126D03*
X783622Y469488D03*
X796102D03*
X680669Y446457D03*
Y433661D03*
X452756Y454724D03*
Y543307D03*
G54D386*
X847362Y427126D03*
X857362Y437126D03*
X847362D03*
X857362Y447126D03*
X847362D03*
X857362Y457126D03*
X847362D03*
X857362Y467126D03*
X847362D03*
X857362Y477126D03*
X847362D03*
X857362Y487126D03*
X847362D03*
X857362Y497126D03*
X847362D03*
X857362Y507126D03*
X847362D03*
X857362Y517126D03*
X847362D03*
X857362Y527126D03*
X847362D03*
X857362Y537126D03*
X847362D03*
X857362Y547126D03*
X847362D03*
X857362Y557126D03*
X847362D03*
G54D512*
X784291Y575335D03*
X789291Y570335D03*
Y575335D03*
X794291Y570335D03*
Y575335D03*
X799291Y570335D03*
Y575335D03*
X804291Y570335D03*
Y575335D03*
G54D532*
X420354Y477126D03*
X410354Y487126D03*
X420354D03*
X410354Y497126D03*
X420354D03*
X410354Y507126D03*
X420354D03*
X522402Y417244D03*
X552402D03*
Y427244D03*
G54D548*
X404528Y436024D03*
X434055Y580709D03*
X856299Y403543D03*
G54D575*
X410354Y477126D03*
X522402Y427244D03*
G54D580*
X744094Y572835D03*
X724409Y519685D03*
Y507874D03*
X608268Y563976D03*
X730315Y537402D03*
X714567D03*
X744094Y498031D03*
X732283D03*
Y486220D03*
X744094D03*
X713780Y402559D03*
X838583Y405118D03*
X689961Y402559D03*
X583780Y412441D03*
G54D587*
X513128Y524606D03*
X545928D03*
G54D588*
X413386Y413386D03*
Y570866D03*
G54D604*
X506890Y498031D03*
Y468504D03*
X546260D03*
Y498031D03*
G54D615*
X516929Y447835D03*
X542126D03*
G54D616*
X731063Y445394D02*
X731535D01*
X730765Y445315D02*
X731833D01*
X730591Y445236D02*
X732008D01*
X730459Y445157D02*
X732140D01*
X730351Y445079D02*
X732247D01*
X730261Y445000D02*
X732338D01*
X730183Y444921D02*
X732416D01*
X730115Y444843D02*
X732483D01*
X730057Y444764D02*
X732542D01*
X730005Y444685D02*
X732593D01*
X729961Y444606D02*
X732638D01*
X729922Y444528D02*
X732677D01*
X729888Y444449D02*
X732710D01*
X729860Y444370D02*
X732738D01*
X729837Y444291D02*
X732762D01*
X729818Y444213D02*
X732781D01*
X729803Y444134D02*
X732795D01*
X729793Y444055D02*
X732806D01*
X729787Y443976D02*
X732812D01*
X729785Y443898D02*
X732814D01*
X729787Y443819D02*
X732812D01*
X729793Y443740D02*
X732806D01*
X729803Y443661D02*
X732795D01*
X729818Y443583D02*
X732781D01*
X729837Y443504D02*
X732762D01*
X729860Y443425D02*
X732738D01*
X729888Y443346D02*
X732710D01*
X729922Y443268D02*
X732677D01*
X729961Y443189D02*
X732638D01*
X730005Y443110D02*
X732593D01*
X730057Y443031D02*
X732542D01*
X730115Y442953D02*
X732483D01*
X730183Y442874D02*
X732416D01*
X730261Y442795D02*
X732338D01*
X730351Y442717D02*
X732247D01*
X730459Y442638D02*
X732140D01*
X730591Y442559D02*
X732008D01*
X730765Y442480D02*
X731833D01*
X731063Y442402D02*
X731535D01*
X729803Y443661D02*
Y444134D01*
X729882Y443364D02*
Y444432D01*
X729961Y443189D02*
Y444606D01*
X730039Y443057D02*
Y444738D01*
X730118Y442949D02*
Y444846D01*
X730197Y442859D02*
Y444936D01*
X730276Y442781D02*
Y445014D01*
X730354Y442714D02*
Y445081D01*
X730433Y442655D02*
Y445140D01*
X730512Y442604D02*
Y445191D01*
X730591Y442559D02*
Y445236D01*
X730669Y442520D02*
Y445275D01*
X730748Y442487D02*
Y445308D01*
X730827Y442459D02*
Y445337D01*
X730906Y442435D02*
Y445360D01*
X730984Y442416D02*
Y445379D01*
X731063Y442402D02*
Y445394D01*
X731142Y442391D02*
Y445404D01*
X731220Y442385D02*
Y445410D01*
X731299Y442383D02*
Y445412D01*
X731378Y442385D02*
Y445410D01*
X731457Y442391D02*
Y445404D01*
X731535Y442402D02*
Y445394D01*
X731614Y442416D02*
Y445379D01*
X731693Y442435D02*
Y445360D01*
X731772Y442459D02*
Y445337D01*
X731850Y442487D02*
Y445308D01*
X731929Y442520D02*
Y445275D01*
X732008Y442559D02*
Y445236D01*
X732087Y442604D02*
Y445191D01*
X732165Y442655D02*
Y445140D01*
X732244Y442714D02*
Y445081D01*
X732323Y442781D02*
Y445014D01*
X732402Y442859D02*
Y444936D01*
X732480Y442949D02*
Y444846D01*
X732559Y443057D02*
Y444738D01*
X732638Y443189D02*
Y444606D01*
X732717Y443364D02*
Y444432D01*
X732795Y443661D02*
Y444134D01*
X727126Y445394D02*
X727598D01*
X726828Y445315D02*
X727896D01*
X726654Y445236D02*
X728071D01*
X726521Y445157D02*
X728203D01*
X726414Y445079D02*
X728310D01*
X726324Y445000D02*
X728401D01*
X726246Y444921D02*
X728479D01*
X726178Y444843D02*
X728546D01*
X726120Y444764D02*
X728605D01*
X726068Y444685D02*
X728656D01*
X726024Y444606D02*
X728701D01*
X725985Y444528D02*
X728740D01*
X725951Y444449D02*
X728773D01*
X725923Y444370D02*
X728801D01*
X725900Y444291D02*
X728825D01*
X725881Y444213D02*
X728844D01*
X725866Y444134D02*
X728858D01*
X725856Y444055D02*
X728869D01*
X725850Y443976D02*
X728875D01*
X725848Y443898D02*
X728877D01*
X725850Y443819D02*
X728875D01*
X725856Y443740D02*
X728869D01*
X725866Y443661D02*
X728858D01*
X725881Y443583D02*
X728844D01*
X725900Y443504D02*
X728825D01*
X725923Y443425D02*
X728801D01*
X725951Y443346D02*
X728773D01*
X725985Y443268D02*
X728740D01*
X726024Y443189D02*
X728701D01*
X726068Y443110D02*
X728656D01*
X726120Y443031D02*
X728605D01*
X726178Y442953D02*
X728546D01*
X726246Y442874D02*
X728479D01*
X726324Y442795D02*
X728401D01*
X726414Y442717D02*
X728310D01*
X726521Y442638D02*
X728203D01*
X726654Y442559D02*
X728071D01*
X726828Y442480D02*
X727896D01*
X727126Y442402D02*
X727598D01*
X725866Y443661D02*
Y444134D01*
X725945Y443364D02*
Y444432D01*
X726024Y443189D02*
Y444606D01*
X726102Y443057D02*
Y444738D01*
X726181Y442949D02*
Y444846D01*
X726260Y442859D02*
Y444936D01*
X726339Y442781D02*
Y445014D01*
X726417Y442714D02*
Y445081D01*
X726496Y442655D02*
Y445140D01*
X726575Y442604D02*
Y445191D01*
X726654Y442559D02*
Y445236D01*
X726732Y442520D02*
Y445275D01*
X726811Y442487D02*
Y445308D01*
X726890Y442459D02*
Y445337D01*
X726969Y442435D02*
Y445360D01*
X727047Y442416D02*
Y445379D01*
X727126Y442402D02*
Y445394D01*
X727205Y442391D02*
Y445404D01*
X727283Y442385D02*
Y445410D01*
X727362Y442383D02*
Y445412D01*
X727441Y442385D02*
Y445410D01*
X727520Y442391D02*
Y445404D01*
X727598Y442402D02*
Y445394D01*
X727677Y442416D02*
Y445379D01*
X727756Y442435D02*
Y445360D01*
X727835Y442459D02*
Y445337D01*
X727913Y442487D02*
Y445308D01*
X727992Y442520D02*
Y445275D01*
X728071Y442559D02*
Y445236D01*
X728150Y442604D02*
Y445191D01*
X728228Y442655D02*
Y445140D01*
X728307Y442714D02*
Y445081D01*
X728386Y442781D02*
Y445014D01*
X728465Y442859D02*
Y444936D01*
X728543Y442949D02*
Y444846D01*
X728622Y443057D02*
Y444738D01*
X728701Y443189D02*
Y444606D01*
X728780Y443364D02*
Y444432D01*
X728858Y443661D02*
Y444134D01*
X723189Y445394D02*
X723661D01*
X722891Y445315D02*
X723959D01*
X722717Y445236D02*
X724134D01*
X722584Y445157D02*
X724266D01*
X722477Y445079D02*
X724373D01*
X722387Y445000D02*
X724464D01*
X722309Y444921D02*
X724542D01*
X722241Y444843D02*
X724609D01*
X722183Y444764D02*
X724668D01*
X722131Y444685D02*
X724719D01*
X722087Y444606D02*
X724764D01*
X722048Y444528D02*
X724803D01*
X722014Y444449D02*
X724836D01*
X721986Y444370D02*
X724864D01*
X721963Y444291D02*
X724888D01*
X721944Y444213D02*
X724907D01*
X721929Y444134D02*
X724921D01*
X721919Y444055D02*
X724932D01*
X721913Y443976D02*
X724938D01*
X721911Y443898D02*
X724940D01*
X721913Y443819D02*
X724938D01*
X721919Y443740D02*
X724932D01*
X721929Y443661D02*
X724921D01*
X721944Y443583D02*
X724907D01*
X721963Y443504D02*
X724888D01*
X721986Y443425D02*
X724864D01*
X722014Y443346D02*
X724836D01*
X722048Y443268D02*
X724803D01*
X722087Y443189D02*
X724764D01*
X722131Y443110D02*
X724719D01*
X722183Y443031D02*
X724668D01*
X722241Y442953D02*
X724609D01*
X722309Y442874D02*
X724542D01*
X722387Y442795D02*
X724464D01*
X722477Y442717D02*
X724373D01*
X722584Y442638D02*
X724266D01*
X722717Y442559D02*
X724134D01*
X722891Y442480D02*
X723959D01*
X723189Y442402D02*
X723661D01*
X721929Y443661D02*
Y444134D01*
X722008Y443364D02*
Y444432D01*
X722087Y443189D02*
Y444606D01*
X722165Y443057D02*
Y444738D01*
X722244Y442949D02*
Y444846D01*
X722323Y442859D02*
Y444936D01*
X722402Y442781D02*
Y445014D01*
X722480Y442714D02*
Y445081D01*
X722559Y442655D02*
Y445140D01*
X722638Y442604D02*
Y445191D01*
X722717Y442559D02*
Y445236D01*
X722795Y442520D02*
Y445275D01*
X722874Y442487D02*
Y445308D01*
X722953Y442459D02*
Y445337D01*
X723031Y442435D02*
Y445360D01*
X723110Y442416D02*
Y445379D01*
X723189Y442402D02*
Y445394D01*
X723268Y442391D02*
Y445404D01*
X723346Y442385D02*
Y445410D01*
X723425Y442383D02*
Y445412D01*
X723504Y442385D02*
Y445410D01*
X723583Y442391D02*
Y445404D01*
X723661Y442402D02*
Y445394D01*
X723740Y442416D02*
Y445379D01*
X723819Y442435D02*
Y445360D01*
X723898Y442459D02*
Y445337D01*
X723976Y442487D02*
Y445308D01*
X724055Y442520D02*
Y445275D01*
X724134Y442559D02*
Y445236D01*
X724213Y442604D02*
Y445191D01*
X724291Y442655D02*
Y445140D01*
X724370Y442714D02*
Y445081D01*
X724449Y442781D02*
Y445014D01*
X724528Y442859D02*
Y444936D01*
X724606Y442949D02*
Y444846D01*
X724685Y443057D02*
Y444738D01*
X724764Y443189D02*
Y444606D01*
X724843Y443364D02*
Y444432D01*
X724921Y443661D02*
Y444134D01*
X723189Y441457D02*
X723661D01*
X722891Y441378D02*
X723959D01*
X722717Y441299D02*
X724134D01*
X722584Y441220D02*
X724266D01*
X722477Y441142D02*
X724373D01*
X722387Y441063D02*
X724464D01*
X722309Y440984D02*
X724542D01*
X722241Y440906D02*
X724609D01*
X722183Y440827D02*
X724668D01*
X722131Y440748D02*
X724719D01*
X722087Y440669D02*
X724764D01*
X722048Y440591D02*
X724803D01*
X722014Y440512D02*
X724836D01*
X721986Y440433D02*
X724864D01*
X721963Y440354D02*
X724888D01*
X721944Y440276D02*
X724907D01*
X721929Y440197D02*
X724921D01*
X721919Y440118D02*
X724932D01*
X721913Y440039D02*
X724938D01*
X721911Y439961D02*
X724940D01*
X721913Y439882D02*
X724938D01*
X721919Y439803D02*
X724932D01*
X721929Y439724D02*
X724921D01*
X721944Y439646D02*
X724907D01*
X721963Y439567D02*
X724888D01*
X721986Y439488D02*
X724864D01*
X722014Y439409D02*
X724836D01*
X722048Y439331D02*
X724803D01*
X722087Y439252D02*
X724764D01*
X722131Y439173D02*
X724719D01*
X722183Y439094D02*
X724668D01*
X722241Y439016D02*
X724609D01*
X722309Y438937D02*
X724542D01*
X722387Y438858D02*
X724464D01*
X722477Y438780D02*
X724373D01*
X722584Y438701D02*
X724266D01*
X722717Y438622D02*
X724134D01*
X722891Y438543D02*
X723959D01*
X723189Y438465D02*
X723661D01*
X721929Y439724D02*
Y440197D01*
X722008Y439427D02*
Y440495D01*
X722087Y439252D02*
Y440669D01*
X722165Y439120D02*
Y440801D01*
X722244Y439012D02*
Y440909D01*
X722323Y438922D02*
Y440999D01*
X722402Y438844D02*
Y441077D01*
X722480Y438777D02*
Y441144D01*
X722559Y438718D02*
Y441203D01*
X722638Y438667D02*
Y441254D01*
X722717Y438622D02*
Y441299D01*
X722795Y438583D02*
Y441338D01*
X722874Y438550D02*
Y441371D01*
X722953Y438522D02*
Y441400D01*
X723031Y438498D02*
Y441423D01*
X723110Y438479D02*
Y441442D01*
X723189Y438465D02*
Y441457D01*
X723268Y438454D02*
Y441467D01*
X723346Y438448D02*
Y441473D01*
X723425Y438446D02*
Y441475D01*
X723504Y438448D02*
Y441473D01*
X723583Y438454D02*
Y441467D01*
X723661Y438465D02*
Y441457D01*
X723740Y438479D02*
Y441442D01*
X723819Y438498D02*
Y441423D01*
X723898Y438522D02*
Y441400D01*
X723976Y438550D02*
Y441371D01*
X724055Y438583D02*
Y441338D01*
X724134Y438622D02*
Y441299D01*
X724213Y438667D02*
Y441254D01*
X724291Y438718D02*
Y441203D01*
X724370Y438777D02*
Y441144D01*
X724449Y438844D02*
Y441077D01*
X724528Y438922D02*
Y440999D01*
X724606Y439012D02*
Y440909D01*
X724685Y439120D02*
Y440801D01*
X724764Y439252D02*
Y440669D01*
X724843Y439427D02*
Y440495D01*
X724921Y439724D02*
Y440197D01*
X727126Y441457D02*
X727598D01*
X726828Y441378D02*
X727896D01*
X726654Y441299D02*
X728071D01*
X726521Y441220D02*
X728203D01*
X726414Y441142D02*
X728310D01*
X726324Y441063D02*
X728401D01*
X726246Y440984D02*
X728479D01*
X726178Y440906D02*
X728546D01*
X726120Y440827D02*
X728605D01*
X726068Y440748D02*
X728656D01*
X726024Y440669D02*
X728701D01*
X725985Y440591D02*
X728740D01*
X725951Y440512D02*
X728773D01*
X725923Y440433D02*
X728801D01*
X725900Y440354D02*
X728825D01*
X725881Y440276D02*
X728844D01*
X725866Y440197D02*
X728858D01*
X725856Y440118D02*
X728869D01*
X725850Y440039D02*
X728875D01*
X725848Y439961D02*
X728877D01*
X725850Y439882D02*
X728875D01*
X725856Y439803D02*
X728869D01*
X725866Y439724D02*
X728858D01*
X725881Y439646D02*
X728844D01*
X725900Y439567D02*
X728825D01*
X725923Y439488D02*
X728801D01*
X725951Y439409D02*
X728773D01*
X725985Y439331D02*
X728740D01*
X726024Y439252D02*
X728701D01*
X726068Y439173D02*
X728656D01*
X726120Y439094D02*
X728605D01*
X726178Y439016D02*
X728546D01*
X726246Y438937D02*
X728479D01*
X726324Y438858D02*
X728401D01*
X726414Y438780D02*
X728310D01*
X726521Y438701D02*
X728203D01*
X726654Y438622D02*
X728071D01*
X726828Y438543D02*
X727896D01*
X727126Y438465D02*
X727598D01*
X725866Y439724D02*
Y440197D01*
X725945Y439427D02*
Y440495D01*
X726024Y439252D02*
Y440669D01*
X726102Y439120D02*
Y440801D01*
X726181Y439012D02*
Y440909D01*
X726260Y438922D02*
Y440999D01*
X726339Y438844D02*
Y441077D01*
X726417Y438777D02*
Y441144D01*
X726496Y438718D02*
Y441203D01*
X726575Y438667D02*
Y441254D01*
X726654Y438622D02*
Y441299D01*
X726732Y438583D02*
Y441338D01*
X726811Y438550D02*
Y441371D01*
X726890Y438522D02*
Y441400D01*
X726969Y438498D02*
Y441423D01*
X727047Y438479D02*
Y441442D01*
X727126Y438465D02*
Y441457D01*
X727205Y438454D02*
Y441467D01*
X727283Y438448D02*
Y441473D01*
X727362Y438446D02*
Y441475D01*
X727441Y438448D02*
Y441473D01*
X727520Y438454D02*
Y441467D01*
X727598Y438465D02*
Y441457D01*
X727677Y438479D02*
Y441442D01*
X727756Y438498D02*
Y441423D01*
X727835Y438522D02*
Y441400D01*
X727913Y438550D02*
Y441371D01*
X727992Y438583D02*
Y441338D01*
X728071Y438622D02*
Y441299D01*
X728150Y438667D02*
Y441254D01*
X728228Y438718D02*
Y441203D01*
X728307Y438777D02*
Y441144D01*
X728386Y438844D02*
Y441077D01*
X728465Y438922D02*
Y440999D01*
X728543Y439012D02*
Y440909D01*
X728622Y439120D02*
Y440801D01*
X728701Y439252D02*
Y440669D01*
X728780Y439427D02*
Y440495D01*
X728858Y439724D02*
Y440197D01*
X731063Y441457D02*
X731535D01*
X730765Y441378D02*
X731833D01*
X730591Y441299D02*
X732008D01*
X730459Y441220D02*
X732140D01*
X730351Y441142D02*
X732247D01*
X730261Y441063D02*
X732338D01*
X730183Y440984D02*
X732416D01*
X730115Y440906D02*
X732483D01*
X730057Y440827D02*
X732542D01*
X730005Y440748D02*
X732593D01*
X729961Y440669D02*
X732638D01*
X729922Y440591D02*
X732677D01*
X729888Y440512D02*
X732710D01*
X729860Y440433D02*
X732738D01*
X729837Y440354D02*
X732762D01*
X729818Y440276D02*
X732781D01*
X729803Y440197D02*
X732795D01*
X729793Y440118D02*
X732806D01*
X729787Y440039D02*
X732812D01*
X729785Y439961D02*
X732814D01*
X729787Y439882D02*
X732812D01*
X729793Y439803D02*
X732806D01*
X729803Y439724D02*
X732795D01*
X729818Y439646D02*
X732781D01*
X729837Y439567D02*
X732762D01*
X729860Y439488D02*
X732738D01*
X729888Y439409D02*
X732710D01*
X729922Y439331D02*
X732677D01*
X729961Y439252D02*
X732638D01*
X730005Y439173D02*
X732593D01*
X730057Y439094D02*
X732542D01*
X730115Y439016D02*
X732483D01*
X730183Y438937D02*
X732416D01*
X730261Y438858D02*
X732338D01*
X730351Y438780D02*
X732247D01*
X730459Y438701D02*
X732140D01*
X730591Y438622D02*
X732008D01*
X730765Y438543D02*
X731833D01*
X731063Y438465D02*
X731535D01*
X729803Y439724D02*
Y440197D01*
X729882Y439427D02*
Y440495D01*
X729961Y439252D02*
Y440669D01*
X730039Y439120D02*
Y440801D01*
X730118Y439012D02*
Y440909D01*
X730197Y438922D02*
Y440999D01*
X730276Y438844D02*
Y441077D01*
X730354Y438777D02*
Y441144D01*
X730433Y438718D02*
Y441203D01*
X730512Y438667D02*
Y441254D01*
X730591Y438622D02*
Y441299D01*
X730669Y438583D02*
Y441338D01*
X730748Y438550D02*
Y441371D01*
X730827Y438522D02*
Y441400D01*
X730906Y438498D02*
Y441423D01*
X730984Y438479D02*
Y441442D01*
X731063Y438465D02*
Y441457D01*
X731142Y438454D02*
Y441467D01*
X731220Y438448D02*
Y441473D01*
X731299Y438446D02*
Y441475D01*
X731378Y438448D02*
Y441473D01*
X731457Y438454D02*
Y441467D01*
X731535Y438465D02*
Y441457D01*
X731614Y438479D02*
Y441442D01*
X731693Y438498D02*
Y441423D01*
X731772Y438522D02*
Y441400D01*
X731850Y438550D02*
Y441371D01*
X731929Y438583D02*
Y441338D01*
X732008Y438622D02*
Y441299D01*
X732087Y438667D02*
Y441254D01*
X732165Y438718D02*
Y441203D01*
X732244Y438777D02*
Y441144D01*
X732323Y438844D02*
Y441077D01*
X732402Y438922D02*
Y440999D01*
X732480Y439012D02*
Y440909D01*
X732559Y439120D02*
Y440801D01*
X732638Y439252D02*
Y440669D01*
X732717Y439427D02*
Y440495D01*
X732795Y439724D02*
Y440197D01*
X723189Y437520D02*
X723661D01*
X722891Y437441D02*
X723959D01*
X722717Y437362D02*
X724134D01*
X722584Y437283D02*
X724266D01*
X722477Y437205D02*
X724373D01*
X722387Y437126D02*
X724464D01*
X722309Y437047D02*
X724542D01*
X722241Y436969D02*
X724609D01*
X722183Y436890D02*
X724668D01*
X722131Y436811D02*
X724719D01*
X722087Y436732D02*
X724764D01*
X722048Y436654D02*
X724803D01*
X722014Y436575D02*
X724836D01*
X721986Y436496D02*
X724864D01*
X721963Y436417D02*
X724888D01*
X721944Y436339D02*
X724907D01*
X721929Y436260D02*
X724921D01*
X721919Y436181D02*
X724932D01*
X721913Y436102D02*
X724938D01*
X721911Y436024D02*
X724940D01*
X721913Y435945D02*
X724938D01*
X721919Y435866D02*
X724932D01*
X721929Y435787D02*
X724921D01*
X721944Y435709D02*
X724907D01*
X721963Y435630D02*
X724888D01*
X721986Y435551D02*
X724864D01*
X722014Y435472D02*
X724836D01*
X722048Y435394D02*
X724803D01*
X722087Y435315D02*
X724764D01*
X722131Y435236D02*
X724719D01*
X722183Y435157D02*
X724668D01*
X722241Y435079D02*
X724609D01*
X722309Y435000D02*
X724542D01*
X722387Y434921D02*
X724464D01*
X722477Y434843D02*
X724373D01*
X722584Y434764D02*
X724266D01*
X722717Y434685D02*
X724134D01*
X722891Y434606D02*
X723959D01*
X723189Y434528D02*
X723661D01*
X721929Y435787D02*
Y436260D01*
X722008Y435490D02*
Y436558D01*
X722087Y435315D02*
Y436732D01*
X722165Y435183D02*
Y436864D01*
X722244Y435075D02*
Y436972D01*
X722323Y434985D02*
Y437062D01*
X722402Y434907D02*
Y437140D01*
X722480Y434840D02*
Y437207D01*
X722559Y434781D02*
Y437266D01*
X722638Y434730D02*
Y437317D01*
X722717Y434685D02*
Y437362D01*
X722795Y434646D02*
Y437401D01*
X722874Y434613D02*
Y437434D01*
X722953Y434585D02*
Y437463D01*
X723031Y434561D02*
Y437486D01*
X723110Y434542D02*
Y437505D01*
X723189Y434528D02*
Y437520D01*
X723268Y434517D02*
Y437530D01*
X723346Y434511D02*
Y437536D01*
X723425Y434509D02*
Y437538D01*
X723504Y434511D02*
Y437536D01*
X723583Y434517D02*
Y437530D01*
X723661Y434528D02*
Y437520D01*
X723740Y434542D02*
Y437505D01*
X723819Y434561D02*
Y437486D01*
X723898Y434585D02*
Y437463D01*
X723976Y434613D02*
Y437434D01*
X724055Y434646D02*
Y437401D01*
X724134Y434685D02*
Y437362D01*
X724213Y434730D02*
Y437317D01*
X724291Y434781D02*
Y437266D01*
X724370Y434840D02*
Y437207D01*
X724449Y434907D02*
Y437140D01*
X724528Y434985D02*
Y437062D01*
X724606Y435075D02*
Y436972D01*
X724685Y435183D02*
Y436864D01*
X724764Y435315D02*
Y436732D01*
X724843Y435490D02*
Y436558D01*
X724921Y435787D02*
Y436260D01*
X727126Y437520D02*
X727598D01*
X726828Y437441D02*
X727896D01*
X726654Y437362D02*
X728071D01*
X726521Y437283D02*
X728203D01*
X726414Y437205D02*
X728310D01*
X726324Y437126D02*
X728401D01*
X726246Y437047D02*
X728479D01*
X726178Y436969D02*
X728546D01*
X726120Y436890D02*
X728605D01*
X726068Y436811D02*
X728656D01*
X726024Y436732D02*
X728701D01*
X725985Y436654D02*
X728740D01*
X725951Y436575D02*
X728773D01*
X725923Y436496D02*
X728801D01*
X725900Y436417D02*
X728825D01*
X725881Y436339D02*
X728844D01*
X725866Y436260D02*
X728858D01*
X725856Y436181D02*
X728869D01*
X725850Y436102D02*
X728875D01*
X725848Y436024D02*
X728877D01*
X725850Y435945D02*
X728875D01*
X725856Y435866D02*
X728869D01*
X725866Y435787D02*
X728858D01*
X725881Y435709D02*
X728844D01*
X725900Y435630D02*
X728825D01*
X725923Y435551D02*
X728801D01*
X725951Y435472D02*
X728773D01*
X725985Y435394D02*
X728740D01*
X726024Y435315D02*
X728701D01*
X726068Y435236D02*
X728656D01*
X726120Y435157D02*
X728605D01*
X726178Y435079D02*
X728546D01*
X726246Y435000D02*
X728479D01*
X726324Y434921D02*
X728401D01*
X726414Y434843D02*
X728310D01*
X726521Y434764D02*
X728203D01*
X726654Y434685D02*
X728071D01*
X726828Y434606D02*
X727896D01*
X727126Y434528D02*
X727598D01*
X725866Y435787D02*
Y436260D01*
X725945Y435490D02*
Y436558D01*
X726024Y435315D02*
Y436732D01*
X726102Y435183D02*
Y436864D01*
X726181Y435075D02*
Y436972D01*
X726260Y434985D02*
Y437062D01*
X726339Y434907D02*
Y437140D01*
X726417Y434840D02*
Y437207D01*
X726496Y434781D02*
Y437266D01*
X726575Y434730D02*
Y437317D01*
X726654Y434685D02*
Y437362D01*
X726732Y434646D02*
Y437401D01*
X726811Y434613D02*
Y437434D01*
X726890Y434585D02*
Y437463D01*
X726969Y434561D02*
Y437486D01*
X727047Y434542D02*
Y437505D01*
X727126Y434528D02*
Y437520D01*
X727205Y434517D02*
Y437530D01*
X727283Y434511D02*
Y437536D01*
X727362Y434509D02*
Y437538D01*
X727441Y434511D02*
Y437536D01*
X727520Y434517D02*
Y437530D01*
X727598Y434528D02*
Y437520D01*
X727677Y434542D02*
Y437505D01*
X727756Y434561D02*
Y437486D01*
X727835Y434585D02*
Y437463D01*
X727913Y434613D02*
Y437434D01*
X727992Y434646D02*
Y437401D01*
X728071Y434685D02*
Y437362D01*
X728150Y434730D02*
Y437317D01*
X728228Y434781D02*
Y437266D01*
X728307Y434840D02*
Y437207D01*
X728386Y434907D02*
Y437140D01*
X728465Y434985D02*
Y437062D01*
X728543Y435075D02*
Y436972D01*
X728622Y435183D02*
Y436864D01*
X728701Y435315D02*
Y436732D01*
X728780Y435490D02*
Y436558D01*
X728858Y435787D02*
Y436260D01*
X731063Y437520D02*
X731535D01*
X730765Y437441D02*
X731833D01*
X730591Y437362D02*
X732008D01*
X730459Y437283D02*
X732140D01*
X730351Y437205D02*
X732247D01*
X730261Y437126D02*
X732338D01*
X730183Y437047D02*
X732416D01*
X730115Y436969D02*
X732483D01*
X730057Y436890D02*
X732542D01*
X730005Y436811D02*
X732593D01*
X729961Y436732D02*
X732638D01*
X729922Y436654D02*
X732677D01*
X729888Y436575D02*
X732710D01*
X729860Y436496D02*
X732738D01*
X729837Y436417D02*
X732762D01*
X729818Y436339D02*
X732781D01*
X729803Y436260D02*
X732795D01*
X729793Y436181D02*
X732806D01*
X729787Y436102D02*
X732812D01*
X729785Y436024D02*
X732814D01*
X729787Y435945D02*
X732812D01*
X729793Y435866D02*
X732806D01*
X729803Y435787D02*
X732795D01*
X729818Y435709D02*
X732781D01*
X729837Y435630D02*
X732762D01*
X729860Y435551D02*
X732738D01*
X729888Y435472D02*
X732710D01*
X729922Y435394D02*
X732677D01*
X729961Y435315D02*
X732638D01*
X730005Y435236D02*
X732593D01*
X730057Y435157D02*
X732542D01*
X730115Y435079D02*
X732483D01*
X730183Y435000D02*
X732416D01*
X730261Y434921D02*
X732338D01*
X730351Y434843D02*
X732247D01*
X730459Y434764D02*
X732140D01*
X730591Y434685D02*
X732008D01*
X730765Y434606D02*
X731833D01*
X731063Y434528D02*
X731535D01*
X729803Y435787D02*
Y436260D01*
X729882Y435490D02*
Y436558D01*
X729961Y435315D02*
Y436732D01*
X730039Y435183D02*
Y436864D01*
X730118Y435075D02*
Y436972D01*
X730197Y434985D02*
Y437062D01*
X730276Y434907D02*
Y437140D01*
X730354Y434840D02*
Y437207D01*
X730433Y434781D02*
Y437266D01*
X730512Y434730D02*
Y437317D01*
X730591Y434685D02*
Y437362D01*
X730669Y434646D02*
Y437401D01*
X730748Y434613D02*
Y437434D01*
X730827Y434585D02*
Y437463D01*
X730906Y434561D02*
Y437486D01*
X730984Y434542D02*
Y437505D01*
X731063Y434528D02*
Y437520D01*
X731142Y434517D02*
Y437530D01*
X731220Y434511D02*
Y437536D01*
X731299Y434509D02*
Y437538D01*
X731378Y434511D02*
Y437536D01*
X731457Y434517D02*
Y437530D01*
X731535Y434528D02*
Y437520D01*
X731614Y434542D02*
Y437505D01*
X731693Y434561D02*
Y437486D01*
X731772Y434585D02*
Y437463D01*
X731850Y434613D02*
Y437434D01*
X731929Y434646D02*
Y437401D01*
X732008Y434685D02*
Y437362D01*
X732087Y434730D02*
Y437317D01*
X732165Y434781D02*
Y437266D01*
X732244Y434840D02*
Y437207D01*
X732323Y434907D02*
Y437140D01*
X732402Y434985D02*
Y437062D01*
X732480Y435075D02*
Y436972D01*
X732559Y435183D02*
Y436864D01*
X732638Y435315D02*
Y436732D01*
X732717Y435490D02*
Y436558D01*
X732795Y435787D02*
Y436260D01*
G74*
X0Y0D02*
M02*
